STARTFONT 2.1
FONT -Baekmuk-Dotum-Medium-R-Normal--14-140-75-75-M-140-ksx1001.1997-0
SIZE 14 75 75
FONTBOUNDINGBOX 14 14 0 -3
STARTPROPERTIES 18
FOUNDRY "Baekmuk"
FAMILY_NAME "Dotum"
WEIGHT_NAME "Medium"
SLANT "R"
SETWIDTH_NAME "Normal"
ADD_STYLE_NAME ""
PIXEL_SIZE 14
POINT_SIZE 140
RESOLUTION_X 75
RESOLUTION_Y 75
SPACING "M"
AVERAGE_WIDTH 140
CHARSET_REGISTRY "ksx1001.1997"
CHARSET_ENCODING "0"
DEFAULT_CHAR 8481
FONT_ASCENT 11
FONT_DESCENT 2
COPYRIGHT "(c)Hwan Design Inc. and Mizi Research Inc."
ENDPROPERTIES
CHARS 8224
STARTCHAR 3000
ENCODING 8481
SWIDTH 1400 0
DWIDTH 14 0
BBX 0 0 0 0
BITMAP
ENDCHAR
STARTCHAR 3001
ENCODING 8482
SWIDTH 1400 0
DWIDTH 14 0
BBX 2 2 6 9
BITMAP
80
40
ENDCHAR
STARTCHAR 3002
ENCODING 8483
SWIDTH 1400 0
DWIDTH 14 0
BBX 3 3 5 8
BITMAP
E0
A0
A0
ENDCHAR
STARTCHAR 00B7
ENCODING 8484
SWIDTH 1400 0
DWIDTH 14 0
BBX 2 2 6 3
BITMAP
C0
C0
ENDCHAR
STARTCHAR 2025
ENCODING 8485
SWIDTH 1400 0
DWIDTH 14 0
BBX 8 2 3 3
BITMAP
C3
C3
ENDCHAR
STARTCHAR 2026
ENCODING 8486
SWIDTH 1400 0
DWIDTH 14 0
BBX 12 2 1 3
BITMAP
C630
C630
ENDCHAR
STARTCHAR 00A8
ENCODING 8487
SWIDTH 1400 0
DWIDTH 14 0
BBX 6 1 4 10
BITMAP
84
ENDCHAR
STARTCHAR 3003
ENCODING 8488
SWIDTH 1400 0
DWIDTH 14 0
BBX 4 4 5 2
BITMAP
50
A0
A0
20
ENDCHAR
STARTCHAR 00AD
ENCODING 8489
SWIDTH 1400 0
DWIDTH 14 0
BBX 6 1 4 4
BITMAP
FC
ENDCHAR
STARTCHAR 2015
ENCODING 8490
SWIDTH 1400 0
DWIDTH 14 0
BBX 14 1 0 4
BITMAP
FFFC
ENDCHAR
STARTCHAR 2225
ENCODING 8491
SWIDTH 1400 0
DWIDTH 14 0
BBX 4 12 5 -2
BITMAP
90
90
90
90
90
90
90
90
90
90
90
90
ENDCHAR
STARTCHAR FF3C
ENCODING 8492
SWIDTH 1400 0
DWIDTH 14 0
BBX 12 12 1 -2
BITMAP
8000
4000
2000
1000
0800
0400
0200
0100
0080
0040
0020
0010
ENDCHAR
STARTCHAR 223C
ENCODING 8493
SWIDTH 1400 0
DWIDTH 14 0
BBX 8 3 3 2
BITMAP
70
89
06
ENDCHAR
STARTCHAR 2018
ENCODING 8494
SWIDTH 1400 0
DWIDTH 14 0
BBX 1 2 9 8
BITMAP
80
80
ENDCHAR
STARTCHAR 2019
ENCODING 8495
SWIDTH 1400 0
DWIDTH 14 0
BBX 1 3 4 8
BITMAP
80
80
80
ENDCHAR
STARTCHAR 201C
ENCODING 8496
SWIDTH 1400 0
DWIDTH 14 0
BBX 5 3 6 8
BITMAP
08
90
48
ENDCHAR
STARTCHAR 201D
ENCODING 8497
SWIDTH 1400 0
DWIDTH 14 0
BBX 4 3 3 8
BITMAP
90
90
90
ENDCHAR
STARTCHAR 3014
ENCODING 8498
SWIDTH 1400 0
DWIDTH 14 0
BBX 3 13 10 -2
BITMAP
20
C0
80
80
80
80
80
80
80
80
80
80
60
ENDCHAR
STARTCHAR 3015
ENCODING 8499
SWIDTH 1400 0
DWIDTH 14 0
BBX 3 13 1 -2
BITMAP
80
60
20
20
20
20
20
20
20
20
20
20
C0
ENDCHAR
STARTCHAR 3008
ENCODING 8500
SWIDTH 1400 0
DWIDTH 14 0
BBX 5 10 4 -1
BITMAP
08
10
20
40
80
40
20
20
10
08
ENDCHAR
STARTCHAR 3009
ENCODING 8501
SWIDTH 1400 0
DWIDTH 14 0
BBX 4 10 5 -1
BITMAP
80
40
20
20
10
10
20
20
40
80
ENDCHAR
STARTCHAR 300A
ENCODING 8502
SWIDTH 1400 0
DWIDTH 14 0
BBX 5 10 4 -1
BITMAP
28
30
60
60
C0
A0
60
50
30
28
ENDCHAR
STARTCHAR 300B
ENCODING 8503
SWIDTH 1400 0
DWIDTH 14 0
BBX 6 11 4 -2
BITMAP
60
60
30
18
18
1C
28
30
50
A0
20
ENDCHAR
STARTCHAR 300C
ENCODING 8504
SWIDTH 1400 0
DWIDTH 14 0
BBX 5 7 8 4
BITMAP
F8
80
80
80
80
80
80
ENDCHAR
STARTCHAR 300D
ENCODING 8505
SWIDTH 1400 0
DWIDTH 14 0
BBX 5 7 1 -3
BITMAP
08
08
08
08
08
08
F8
ENDCHAR
STARTCHAR 300E
ENCODING 8506
SWIDTH 1400 0
DWIDTH 14 0
BBX 6 7 7 4
BITMAP
FC
FC
C0
C0
C0
C0
C0
ENDCHAR
STARTCHAR 300F
ENCODING 8507
SWIDTH 1400 0
DWIDTH 14 0
BBX 6 7 1 -3
BITMAP
0C
0C
0C
0C
0C
FC
FC
ENDCHAR
STARTCHAR 3010
ENCODING 8508
SWIDTH 1400 0
DWIDTH 14 0
BBX 4 12 9 -2
BITMAP
F0
E0
E0
C0
C0
C0
C0
C0
C0
E0
E0
F0
ENDCHAR
STARTCHAR 3011
ENCODING 8509
SWIDTH 1400 0
DWIDTH 14 0
BBX 4 12 1 -2
BITMAP
F0
70
70
30
30
30
30
30
30
70
70
F0
ENDCHAR
STARTCHAR 00B1
ENCODING 8510
SWIDTH 1400 0
DWIDTH 14 0
BBX 9 9 2 0
BITMAP
0800
0800
0800
FF80
0800
0800
0800
0800
7F80
ENDCHAR
STARTCHAR 00D7
ENCODING 8511
SWIDTH 1400 0
DWIDTH 14 0
BBX 9 9 2 0
BITMAP
4080
2100
2200
1400
0800
1400
2200
4100
8080
ENDCHAR
STARTCHAR 00F7
ENCODING 8512
SWIDTH 1400 0
DWIDTH 14 0
BBX 10 9 2 0
BITMAP
0C00
0C00
0000
0000
FFC0
0000
0000
0C00
0C00
ENDCHAR
STARTCHAR 2260
ENCODING 8513
SWIDTH 1400 0
DWIDTH 14 0
BBX 10 7 2 1
BITMAP
1000
0800
FFC0
0800
0800
FFC0
0400
ENDCHAR
STARTCHAR 2264
ENCODING 8514
SWIDTH 1400 0
DWIDTH 14 0
BBX 10 9 2 0
BITMAP
0080
0300
1C00
6000
2000
1C00
0380
0000
FFC0
ENDCHAR
STARTCHAR 2265
ENCODING 8515
SWIDTH 1400 0
DWIDTH 14 0
BBX 9 9 2 0
BITMAP
4000
3000
0C00
0380
0100
0E00
7000
0000
FF80
ENDCHAR
STARTCHAR 221E
ENCODING 8516
SWIDTH 1400 0
DWIDTH 14 0
BBX 12 6 1 1
BITMAP
79E0
8630
8410
8410
CA30
71E0
ENDCHAR
STARTCHAR 2234
ENCODING 8517
SWIDTH 1400 0
DWIDTH 14 0
BBX 8 7 3 1
BITMAP
18
18
00
00
00
C3
C3
ENDCHAR
STARTCHAR 00B0
ENCODING 8518
SWIDTH 1400 0
DWIDTH 14 0
BBX 4 3 5 8
BITMAP
60
90
E0
ENDCHAR
STARTCHAR 2032
ENCODING 8519
SWIDTH 1400 0
DWIDTH 14 0
BBX 2 2 6 9
BITMAP
40
80
ENDCHAR
STARTCHAR 2033
ENCODING 8520
SWIDTH 1400 0
DWIDTH 14 0
BBX 4 3 5 8
BITMAP
50
A0
20
ENDCHAR
STARTCHAR 2103
ENCODING 8521
SWIDTH 1400 0
DWIDTH 14 0
BBX 10 11 2 0
BITMAP
E000
AF00
F0C0
1040
2000
2000
2000
2000
1040
10C0
0F00
ENDCHAR
STARTCHAR 212B
ENCODING 8522
SWIDTH 1400 0
DWIDTH 14 0
BBX 10 11 2 0
BITMAP
1C00
1400
0800
0800
1400
1200
2200
2100
7F00
4080
80C0
ENDCHAR
STARTCHAR FFE0
ENCODING 8523
SWIDTH 1400 0
DWIDTH 14 0
BBX 11 11 2 -1
BITMAP
0020
3F40
4080
4180
4200
4400
4800
5080
6080
7300
8C00
ENDCHAR
STARTCHAR FFE1
ENCODING 8524
SWIDTH 1400 0
DWIDTH 14 0
BBX 9 10 2 0
BITMAP
0700
0880
0800
1800
1800
7F00
0800
0800
F880
A700
ENDCHAR
STARTCHAR FFE5
ENCODING 8525
SWIDTH 1400 0
DWIDTH 14 0
BBX 9 10 2 0
BITMAP
4100
4100
2200
FF80
1400
0800
FF80
0800
0800
0800
ENDCHAR
STARTCHAR 2642
ENCODING 8526
SWIDTH 1400 0
DWIDTH 14 0
BBX 7 12 3 -2
BITMAP
10
38
54
92
10
10
10
68
44
44
44
38
ENDCHAR
STARTCHAR 2640
ENCODING 8527
SWIDTH 1400 0
DWIDTH 14 0
BBX 9 12 2 -2
BITMAP
1E00
2200
2200
2200
1C00
0800
FF80
0800
0800
0800
0800
0800
ENDCHAR
STARTCHAR 2220
ENCODING 8528
SWIDTH 1400 0
DWIDTH 14 0
BBX 9 9 3 0
BITMAP
0100
0200
0400
0800
1000
2000
4000
8000
FF80
ENDCHAR
STARTCHAR 22A5
ENCODING 8529
SWIDTH 1400 0
DWIDTH 14 0
BBX 9 9 2 0
BITMAP
0800
0800
0800
0800
0800
0800
0800
0800
FF80
ENDCHAR
STARTCHAR 2312
ENCODING 8530
SWIDTH 1400 0
DWIDTH 14 0
BBX 8 3 3 8
BITMAP
3C
42
81
ENDCHAR
STARTCHAR 2202
ENCODING 8531
SWIDTH 1400 0
DWIDTH 14 0
BBX 7 11 3 -2
BITMAP
0C
12
02
02
12
6E
44
84
8C
58
20
ENDCHAR
STARTCHAR 2207
ENCODING 8532
SWIDTH 1400 0
DWIDTH 14 0
BBX 11 9 1 0
BITMAP
7FE0
8020
4040
2080
2080
1100
0900
0A00
0400
ENDCHAR
STARTCHAR 2261
ENCODING 8533
SWIDTH 1400 0
DWIDTH 14 0
BBX 10 6 2 1
BITMAP
FFC0
0000
FFC0
0000
0000
FFC0
ENDCHAR
STARTCHAR 2252
ENCODING 8534
SWIDTH 1400 0
DWIDTH 14 0
BBX 10 9 2 0
BITMAP
6000
6000
0000
FFC0
0000
0000
FFC0
0180
0180
ENDCHAR
STARTCHAR 00A7
ENCODING 8535
SWIDTH 1400 0
DWIDTH 14 0
BBX 6 12 4 -2
BITMAP
78
C8
40
60
70
88
C4
78
18
4C
4C
38
ENDCHAR
STARTCHAR 203B
ENCODING 8536
SWIDTH 1400 0
DWIDTH 14 0
BBX 8 9 3 -1
BITMAP
9A
5A
24
DB
DB
24
5A
9A
01
ENDCHAR
STARTCHAR 2606
ENCODING 8537
SWIDTH 1400 0
DWIDTH 14 0
BBX 10 11 2 -2
BITMAP
0C00
0C00
1400
F3C0
8080
4100
2100
2100
5D00
6300
4080
ENDCHAR
STARTCHAR 2605
ENCODING 8538
SWIDTH 1400 0
DWIDTH 14 0
BBX 12 11 1 -2
BITMAP
0200
0600
0600
FFF0
3FC0
1F80
0F00
1F80
1980
3080
2040
ENDCHAR
STARTCHAR 25CB
ENCODING 8539
SWIDTH 1400 0
DWIDTH 14 0
BBX 12 12 1 -2
BITMAP
0F00
30C0
6020
4030
8010
8010
8010
8010
4030
4020
30C0
0F80
ENDCHAR
STARTCHAR 25CF
ENCODING 8540
SWIDTH 1400 0
DWIDTH 14 0
BBX 12 12 1 -2
BITMAP
0F00
3FC0
7FE0
7FE0
FFF0
FFF0
FFF0
FFF0
7FE0
7FE0
3FC0
0F00
ENDCHAR
STARTCHAR 25CE
ENCODING 8541
SWIDTH 1400 0
DWIDTH 14 0
BBX 12 12 1 -2
BITMAP
0F80
30C0
6F60
D0B0
A050
A050
A050
A050
90A0
4F20
2040
1F80
ENDCHAR
STARTCHAR 25C7
ENCODING 8542
SWIDTH 1400 0
DWIDTH 14 0
BBX 13 13 0 -2
BITMAP
0100
0680
0880
1040
2020
4010
8008
4010
2020
1040
0880
0500
0200
ENDCHAR
STARTCHAR 25C6
ENCODING 8543
SWIDTH 1400 0
DWIDTH 14 0
BBX 12 12 1 -1
BITMAP
0200
0700
0F00
1F80
3FC0
7FE0
FFF0
7FE0
3FC0
1F80
0F00
0600
ENDCHAR
STARTCHAR 25A1
ENCODING 8544
SWIDTH 1400 0
DWIDTH 14 0
BBX 12 12 1 -2
BITMAP
FFF0
8010
8010
8010
8010
8010
8010
8010
8010
8010
8010
FFF0
ENDCHAR
STARTCHAR 25A0
ENCODING 8545
SWIDTH 1400 0
DWIDTH 14 0
BBX 12 11 1 -1
BITMAP
FFF0
FFF0
FFF0
FFF0
FFF0
FFF0
FFF0
FFF0
FFF0
FFF0
FFF0
ENDCHAR
STARTCHAR 25B3
ENCODING 8546
SWIDTH 1400 0
DWIDTH 14 0
BBX 12 10 1 -1
BITMAP
0400
0A00
0900
1100
2080
2080
4040
8020
8020
FFF0
ENDCHAR
STARTCHAR 25B2
ENCODING 8547
SWIDTH 1400 0
DWIDTH 14 0
BBX 12 9 1 -1
BITMAP
0600
0F00
0F00
1F80
1F80
3FC0
7FE0
7FE0
FFF0
ENDCHAR
STARTCHAR 25BD
ENCODING 8548
SWIDTH 1400 0
DWIDTH 14 0
BBX 12 10 1 0
BITMAP
FFF0
8020
8020
4040
2040
2080
1080
1100
0A00
0600
ENDCHAR
STARTCHAR 25BC
ENCODING 8549
SWIDTH 1400 0
DWIDTH 14 0
BBX 12 9 1 0
BITMAP
FFF0
7FE0
7FE0
3FC0
1F80
1F80
0F00
0F00
0600
ENDCHAR
STARTCHAR 2192
ENCODING 8550
SWIDTH 1400 0
DWIDTH 14 0
BBX 12 3 1 3
BITMAP
0020
FFF0
0020
ENDCHAR
STARTCHAR 2190
ENCODING 8551
SWIDTH 1400 0
DWIDTH 14 0
BBX 12 3 1 2
BITMAP
FFF0
4000
2000
ENDCHAR
STARTCHAR 2191
ENCODING 8552
SWIDTH 1400 0
DWIDTH 14 0
BBX 3 13 5 -2
BITMAP
40
40
E0
40
40
40
40
40
40
40
40
40
40
ENDCHAR
STARTCHAR 2193
ENCODING 8553
SWIDTH 1400 0
DWIDTH 14 0
BBX 3 13 6 -2
BITMAP
40
40
40
40
40
40
40
40
40
40
E0
E0
40
ENDCHAR
STARTCHAR 2194
ENCODING 8554
SWIDTH 1400 0
DWIDTH 14 0
BBX 12 5 1 2
BITMAP
2040
4020
FFF0
4020
2040
ENDCHAR
STARTCHAR 3013
ENCODING 8555
SWIDTH 1400 0
DWIDTH 14 0
BBX 10 4 2 2
BITMAP
FFC0
0000
0000
FFC0
ENDCHAR
STARTCHAR 226A
ENCODING 8556
SWIDTH 1400 0
DWIDTH 14 0
BBX 10 10 2 -1
BITMAP
0240
0480
1B00
2400
D800
8800
6400
1300
0C80
0200
ENDCHAR
STARTCHAR 226B
ENCODING 8557
SWIDTH 1400 0
DWIDTH 14 0
BBX 10 10 2 -1
BITMAP
9000
4800
3600
0900
06C0
0440
0980
3200
CC00
1000
ENDCHAR
STARTCHAR 221A
ENCODING 8558
SWIDTH 1400 0
DWIDTH 14 0
BBX 12 13 1 -2
BITMAP
01F0
0200
0400
0400
0400
0800
0800
0800
D000
5000
2000
2000
2000
ENDCHAR
STARTCHAR 223D
ENCODING 8559
SWIDTH 1400 0
DWIDTH 14 0
BBX 12 6 1 1
BITMAP
38E0
C320
8210
8410
8420
78E0
ENDCHAR
STARTCHAR 221D
ENCODING 8560
SWIDTH 1400 0
DWIDTH 14 0
BBX 10 7 2 0
BITMAP
2000
DB80
8C00
8400
8A00
7140
0080
ENDCHAR
STARTCHAR 2235
ENCODING 8561
SWIDTH 1400 0
DWIDTH 14 0
BBX 8 7 3 1
BITMAP
C3
C3
00
00
00
18
18
ENDCHAR
STARTCHAR 222B
ENCODING 8562
SWIDTH 1400 0
DWIDTH 14 0
BBX 3 12 5 -2
BITMAP
60
80
40
40
40
40
20
20
20
20
20
60
ENDCHAR
STARTCHAR 222C
ENCODING 8563
SWIDTH 1400 0
DWIDTH 14 0
BBX 6 12 4 -2
BITMAP
5C
90
90
88
88
48
44
44
44
44
44
C8
ENDCHAR
STARTCHAR 2208
ENCODING 8564
SWIDTH 1400 0
DWIDTH 14 0
BBX 11 8 1 0
BITMAP
1FC0
6000
4000
7FE0
8000
4000
2000
1FE0
ENDCHAR
STARTCHAR 220B
ENCODING 8565
SWIDTH 1400 0
DWIDTH 14 0
BBX 10 8 2 0
BITMAP
FF00
0080
0040
FFC0
0040
0040
0080
0300
ENDCHAR
STARTCHAR 2286
ENCODING 8566
SWIDTH 1400 0
DWIDTH 14 0
BBX 9 9 2 0
BITMAP
3F80
4000
8000
8000
8000
4000
3F00
0000
7F80
ENDCHAR
STARTCHAR 2287
ENCODING 8567
SWIDTH 1400 0
DWIDTH 14 0
BBX 9 9 3 0
BITMAP
FE00
0100
0080
0080
0080
0100
FE00
0000
FF00
ENDCHAR
STARTCHAR 2282
ENCODING 8568
SWIDTH 1400 0
DWIDTH 14 0
BBX 11 8 1 0
BITMAP
1FE0
2000
4000
8000
8000
4000
2000
1FE0
ENDCHAR
STARTCHAR 2283
ENCODING 8569
SWIDTH 1400 0
DWIDTH 14 0
BBX 10 8 2 0
BITMAP
FF00
0080
0040
0040
0040
0040
0080
0100
ENDCHAR
STARTCHAR 222A
ENCODING 8570
SWIDTH 1400 0
DWIDTH 14 0
BBX 8 10 3 -1
BITMAP
81
81
81
81
81
81
81
81
42
3C
ENDCHAR
STARTCHAR 2229
ENCODING 8571
SWIDTH 1400 0
DWIDTH 14 0
BBX 8 10 3 -1
BITMAP
3C
42
81
81
81
81
81
81
81
81
ENDCHAR
STARTCHAR 2227
ENCODING 8572
SWIDTH 1400 0
DWIDTH 14 0
BBX 8 8 3 0
BITMAP
18
28
24
44
42
82
81
01
ENDCHAR
STARTCHAR 2228
ENCODING 8573
SWIDTH 1400 0
DWIDTH 14 0
BBX 8 7 3 1
BITMAP
81
82
42
44
24
28
18
ENDCHAR
STARTCHAR FFE2
ENCODING 8574
SWIDTH 1400 0
DWIDTH 14 0
BBX 9 6 3 1
BITMAP
FF80
0080
0080
0080
0080
0080
ENDCHAR
STARTCHAR 21D2
ENCODING 8737
SWIDTH 1400 0
DWIDTH 14 0
BBX 12 5 1 2
BITMAP
0040
FFE0
0010
0020
FFC0
ENDCHAR
STARTCHAR 21D4
ENCODING 8738
SWIDTH 1400 0
DWIDTH 14 0
BBX 12 8 1 0
BITMAP
1080
2040
3FE0
C010
8020
7FC0
2000
1000
ENDCHAR
STARTCHAR 2200
ENCODING 8739
SWIDTH 1400 0
DWIDTH 14 0
BBX 9 11 2 -1
BITMAP
8000
8000
4080
4080
3F00
4100
2200
2200
1400
1400
0C00
ENDCHAR
STARTCHAR 2203
ENCODING 8740
SWIDTH 1400 0
DWIDTH 14 0
BBX 7 10 4 -1
BITMAP
FE
02
02
02
FE
02
02
02
02
FE
ENDCHAR
STARTCHAR 00B4
ENCODING 8741
SWIDTH 1400 0
DWIDTH 14 0
BBX 2 1 6 10
BITMAP
C0
ENDCHAR
STARTCHAR FF5E
ENCODING 8742
SWIDTH 1400 0
DWIDTH 14 0
BBX 6 2 4 8
BITMAP
E0
1C
ENDCHAR
STARTCHAR 02C7
ENCODING 8743
SWIDTH 1400 0
DWIDTH 14 0
BBX 4 2 5 9
BITMAP
90
60
ENDCHAR
STARTCHAR 02D8
ENCODING 8744
SWIDTH 1400 0
DWIDTH 14 0
BBX 4 1 5 9
BITMAP
F0
ENDCHAR
STARTCHAR 02DD
ENCODING 8745
SWIDTH 1400 0
DWIDTH 14 0
BBX 1 1 5 10
BITMAP
80
ENDCHAR
STARTCHAR 02DA
ENCODING 8746
SWIDTH 1400 0
DWIDTH 14 0
BBX 3 3 5 8
BITMAP
60
A0
60
ENDCHAR
STARTCHAR 02D9
ENCODING 8747
SWIDTH 1400 0
DWIDTH 14 0
BBX 2 2 6 9
BITMAP
C0
C0
ENDCHAR
STARTCHAR 00B8
ENCODING 8748
SWIDTH 1400 0
DWIDTH 14 0
BBX 2 2 6 -2
BITMAP
C0
40
ENDCHAR
STARTCHAR 02DB
ENCODING 8749
SWIDTH 1400 0
DWIDTH 14 0
BBX 2 2 6 -2
BITMAP
80
C0
ENDCHAR
STARTCHAR 00A1
ENCODING 8750
SWIDTH 1400 0
DWIDTH 14 0
BBX 2 10 6 -1
BITMAP
C0
C0
00
00
80
80
80
80
C0
C0
ENDCHAR
STARTCHAR 00BF
ENCODING 8751
SWIDTH 1400 0
DWIDTH 14 0
BBX 4 11 5 -1
BITMAP
30
30
00
00
20
20
60
80
80
80
70
ENDCHAR
STARTCHAR 02D0
ENCODING 8752
SWIDTH 1400 0
DWIDTH 14 0
BBX 2 6 6 1
BITMAP
C0
00
00
00
00
C0
ENDCHAR
STARTCHAR 222E
ENCODING 8753
SWIDTH 1400 0
DWIDTH 14 0
BBX 5 11 4 -1
BITMAP
18
20
20
20
70
B0
B0
60
20
40
C0
ENDCHAR
STARTCHAR 2211
ENCODING 8754
SWIDTH 1400 0
DWIDTH 14 0
BBX 12 12 1 -2
BITMAP
FFF0
6030
3010
1810
0410
0200
0200
0400
0800
1010
2010
7FF0
ENDCHAR
STARTCHAR 220F
ENCODING 8755
SWIDTH 1400 0
DWIDTH 14 0
BBX 12 12 1 -2
BITMAP
FFF0
2040
2040
2040
2040
2040
2040
2040
2040
2040
2040
70E0
ENDCHAR
STARTCHAR 00A4
ENCODING 8756
SWIDTH 1400 0
DWIDTH 14 0
BBX 10 11 2 -1
BITMAP
8040
DE80
6100
4080
8080
8080
8080
4100
4100
7E80
8040
ENDCHAR
STARTCHAR 2109
ENCODING 8757
SWIDTH 1400 0
DWIDTH 14 0
BBX 11 10 1 0
BITMAP
07E0
E400
A400
E400
07E0
0400
0400
0400
0400
0400
ENDCHAR
STARTCHAR 2030
ENCODING 8758
SWIDTH 1400 0
DWIDTH 14 0
BBX 12 13 1 -2
BITMAP
7000
8880
8900
8A00
8C00
9400
6800
1E70
2950
2950
4950
8950
0660
ENDCHAR
STARTCHAR 25C1
ENCODING 8759
SWIDTH 1400 0
DWIDTH 14 0
BBX 9 11 3 -1
BITMAP
0080
0380
0480
1880
6080
8080
4080
2080
1880
0680
0180
ENDCHAR
STARTCHAR 25C0
ENCODING 8760
SWIDTH 1400 0
DWIDTH 14 0
BBX 8 9 3 0
BITMAP
03
0F
1F
7F
FF
7F
1F
0F
03
ENDCHAR
STARTCHAR 25B7
ENCODING 8761
SWIDTH 1400 0
DWIDTH 14 0
BBX 9 11 2 -1
BITMAP
8000
C000
B000
8C00
8200
8180
8100
8600
8800
B000
C000
ENDCHAR
STARTCHAR 25B6
ENCODING 8762
SWIDTH 1400 0
DWIDTH 14 0
BBX 8 9 3 0
BITMAP
C0
F0
F8
FE
FF
FE
F8
F0
C0
ENDCHAR
STARTCHAR 2664
ENCODING 8763
SWIDTH 1400 0
DWIDTH 14 0
BBX 10 11 2 -2
BITMAP
0C00
1200
2100
4080
4080
8040
8040
8C80
7F00
1600
1E00
ENDCHAR
STARTCHAR 2660
ENCODING 8764
SWIDTH 1400 0
DWIDTH 14 0
BBX 10 11 2 -2
BITMAP
0C00
1E00
3F00
7F80
7F80
FFC0
FFC0
FBC0
7D80
0C00
1E00
ENDCHAR
STARTCHAR 2661
ENCODING 8765
SWIDTH 1400 0
DWIDTH 14 0
BBX 10 11 2 -2
BITMAP
7380
8C40
8C40
8040
C040
4080
6180
2100
1200
1E00
0C00
ENDCHAR
STARTCHAR 2665
ENCODING 8766
SWIDTH 1400 0
DWIDTH 14 0
BBX 12 12 1 -2
BITMAP
79E0
7FE0
FFF0
FFF0
7FE0
7FE0
3FC0
3FC0
1F80
0F00
0600
0600
ENDCHAR
STARTCHAR 2667
ENCODING 8767
SWIDTH 1400 0
DWIDTH 14 0
BBX 12 12 1 -2
BITMAP
0F00
1080
1080
1180
0B00
7BE0
8010
8010
8F30
7AE0
0A00
0F00
ENDCHAR
STARTCHAR 2663
ENCODING 8768
SWIDTH 1400 0
DWIDTH 14 0
BBX 12 12 1 -2
BITMAP
0F00
0F00
1F80
1F80
0F00
7FE0
FFF0
FFF0
FDF0
76E0
0600
0600
ENDCHAR
STARTCHAR 2299
ENCODING 8769
SWIDTH 1400 0
DWIDTH 14 0
BBX 12 12 1 -2
BITMAP
1F80
2040
4F20
9FA0
BFD0
BFD0
BFD0
9F90
5FA0
6060
30C0
0F80
ENDCHAR
STARTCHAR 25C8
ENCODING 8770
SWIDTH 1400 0
DWIDTH 14 0
BBX 13 13 0 -2
BITMAP
0100
0700
0880
1340
27A0
4FD0
9FE8
5FF0
2FE0
17C0
0B80
0580
0300
ENDCHAR
STARTCHAR 25A3
ENCODING 8771
SWIDTH 1400 0
DWIDTH 14 0
BBX 12 12 1 -2
BITMAP
FFF0
8010
8010
9F90
9F90
9F90
9F90
9F90
9F90
8010
8010
FFF0
ENDCHAR
STARTCHAR 25D0
ENCODING 8772
SWIDTH 1400 0
DWIDTH 14 0
BBX 12 12 1 -2
BITMAP
0F80
3840
3820
7820
7810
F810
F810
7810
7820
3860
38C0
0F80
ENDCHAR
STARTCHAR 25D1
ENCODING 8773
SWIDTH 1400 0
DWIDTH 14 0
BBX 12 12 1 -2
BITMAP
1F00
21C0
41E0
81E0
81E0
81F0
81E0
81E0
41E0
21C0
1100
0E00
ENDCHAR
STARTCHAR 2592
ENCODING 8774
SWIDTH 1400 0
DWIDTH 14 0
BBX 12 12 1 -2
BITMAP
FFF0
AAB0
D550
AAB0
D550
AAB0
D550
AAB0
D550
AAB0
D550
FFF0
ENDCHAR
STARTCHAR 25A4
ENCODING 8775
SWIDTH 1400 0
DWIDTH 14 0
BBX 12 12 1 -2
BITMAP
FFF0
8010
8010
FFF0
8010
FFF0
8010
8010
FFF0
8010
8010
FFF0
ENDCHAR
STARTCHAR 25A5
ENCODING 8776
SWIDTH 1400 0
DWIDTH 14 0
BBX 12 12 1 -2
BITMAP
FFF0
9490
9490
9490
9490
9490
9490
9490
9490
9490
9490
FFF0
ENDCHAR
STARTCHAR 25A8
ENCODING 8777
SWIDTH 1400 0
DWIDTH 14 0
BBX 12 12 1 -2
BITMAP
FFF0
8430
8850
9090
A110
C210
8470
9890
A110
C210
8410
FFF0
ENDCHAR
STARTCHAR 25A7
ENCODING 8778
SWIDTH 1400 0
DWIDTH 14 0
BBX 12 12 1 -2
BITMAP
FFF0
C210
A110
9090
8850
8430
C210
A110
9090
8850
8430
FFF0
ENDCHAR
STARTCHAR 25A6
ENCODING 8779
SWIDTH 1400 0
DWIDTH 14 0
BBX 12 12 1 -2
BITMAP
FFF0
9490
9490
FFF0
9490
FFF0
9490
9490
FFF0
9490
9490
FFF0
ENDCHAR
STARTCHAR 25A9
ENCODING 8780
SWIDTH 1400 0
DWIDTH 14 0
BBX 12 12 1 -2
BITMAP
FFF0
CA50
B190
B190
CA50
8430
CA70
B190
B090
C950
8630
FFF0
ENDCHAR
STARTCHAR 2668
ENCODING 8781
SWIDTH 1400 0
DWIDTH 14 0
BBX 12 11 1 -2
BITMAP
0400
1500
1500
1780
0A80
0A80
0AA0
D510
9510
71E0
1F80
ENDCHAR
STARTCHAR 260F
ENCODING 8782
SWIDTH 1400 0
DWIDTH 14 0
BBX 13 10 0 -1
BITMAP
1FE0
7858
97A8
AFE8
4850
3860
4850
4850
4790
3860
ENDCHAR
STARTCHAR 260E
ENCODING 8783
SWIDTH 1400 0
DWIDTH 14 0
BBX 12 9 1 0
BITMAP
3FC0
EF70
E970
DFB0
1080
30C0
70E0
70E0
7FE0
ENDCHAR
STARTCHAR 261C
ENCODING 8784
SWIDTH 1400 0
DWIDTH 14 0
BBX 13 6 0 1
BITMAP
FFE8
7F18
1F98
1318
0F38
02C0
ENDCHAR
STARTCHAR 261E
ENCODING 8785
SWIDTH 1400 0
DWIDTH 14 0
BBX 13 6 0 1
BITMAP
5FF8
E3C8
C7B0
C440
A780
5B00
ENDCHAR
STARTCHAR 00B6
ENCODING 8786
SWIDTH 1400 0
DWIDTH 14 0
BBX 9 12 2 -2
BITMAP
3C80
4480
8480
4480
6480
1C80
0480
0480
0480
0480
0480
0480
ENDCHAR
STARTCHAR 2020
ENCODING 8787
SWIDTH 1400 0
DWIDTH 14 0
BBX 7 13 4 -2
BITMAP
10
10
10
10
FE
10
10
10
10
10
10
10
10
ENDCHAR
STARTCHAR 2021
ENCODING 8788
SWIDTH 1400 0
DWIDTH 14 0
BBX 7 13 3 -2
BITMAP
10
10
FE
10
10
FE
10
10
10
10
10
10
10
ENDCHAR
STARTCHAR 2195
ENCODING 8789
SWIDTH 1400 0
DWIDTH 14 0
BBX 3 12 5 -2
BITMAP
40
E0
40
40
40
40
40
40
40
40
E0
40
ENDCHAR
STARTCHAR 2197
ENCODING 8790
SWIDTH 1400 0
DWIDTH 14 0
BBX 8 8 3 0
BITMAP
03
03
04
08
10
20
40
80
ENDCHAR
STARTCHAR 2199
ENCODING 8791
SWIDTH 1400 0
DWIDTH 14 0
BBX 8 8 3 0
BITMAP
01
02
04
08
10
20
C0
E0
ENDCHAR
STARTCHAR 2196
ENCODING 8792
SWIDTH 1400 0
DWIDTH 14 0
BBX 8 8 3 0
BITMAP
C0
C0
20
10
08
04
02
01
ENDCHAR
STARTCHAR 2198
ENCODING 8793
SWIDTH 1400 0
DWIDTH 14 0
BBX 8 9 3 0
BITMAP
80
80
40
20
10
08
05
03
07
ENDCHAR
STARTCHAR 266D
ENCODING 8794
SWIDTH 1400 0
DWIDTH 14 0
BBX 5 10 4 -1
BITMAP
80
80
80
B0
C8
88
88
90
A0
C0
ENDCHAR
STARTCHAR 2669
ENCODING 8795
SWIDTH 1400 0
DWIDTH 14 0
BBX 4 12 5 -2
BITMAP
10
10
10
10
10
10
10
10
10
10
70
C0
ENDCHAR
STARTCHAR 266A
ENCODING 8796
SWIDTH 1400 0
DWIDTH 14 0
BBX 7 12 4 -2
BITMAP
20
30
38
24
22
22
22
24
20
60
C0
80
ENDCHAR
STARTCHAR 266C
ENCODING 8797
SWIDTH 1400 0
DWIDTH 14 0
BBX 10 10 2 -1
BITMAP
1FC0
1040
1FC0
1040
1040
1040
1040
10C0
6180
C300
ENDCHAR
STARTCHAR 327F
ENCODING 8798
SWIDTH 1400 0
DWIDTH 14 0
BBX 12 12 1 -2
BITMAP
1F00
20C0
4020
8920
8A00
EE70
0910
0910
48A0
2040
1D80
0200
ENDCHAR
STARTCHAR 321C
ENCODING 8799
SWIDTH 1400 0
DWIDTH 14 0
BBX 14 11 0 -2
BITMAP
0FD0
4108
8308
8CC4
8004
9FF4
8108
8108
8108
4110
2100
ENDCHAR
STARTCHAR 2116
ENCODING 8800
SWIDTH 1400 0
DWIDTH 14 0
BBX 14 10 0 0
BITMAP
8400
C400
C400
A4F0
A598
A508
9508
9508
8D98
84F4
ENDCHAR
STARTCHAR 33C7
ENCODING 8801
SWIDTH 1400 0
DWIDTH 14 0
BBX 13 12 0 -1
BITMAP
3800
4400
4400
8400
80F0
8090
8108
8108
8508
4508
2890
1060
ENDCHAR
STARTCHAR 2122
ENCODING 8802
SWIDTH 1400 0
DWIDTH 14 0
BBX 12 10 1 0
BITMAP
FA10
2210
2330
2330
2350
2350
2350
22D0
22D0
2210
ENDCHAR
STARTCHAR 33C2
ENCODING 8803
SWIDTH 1400 0
DWIDTH 14 0
BBX 14 7 0 0
BITMAP
71F0
9150
1150
7150
9150
9150
6954
ENDCHAR
STARTCHAR 33D8
ENCODING 8804
SWIDTH 1400 0
DWIDTH 14 0
BBX 14 10 0 -3
BITMAP
71F0
9150
8950
8950
8950
8950
D554
A000
8000
8000
ENDCHAR
STARTCHAR 2121
ENCODING 8805
SWIDTH 1400 0
DWIDTH 14 0
BBX 11 12 2 -1
BITMAP
0020
F820
2020
2020
2620
2920
30A0
2FA0
3020
28A0
2500
0200
ENDCHAR
STARTCHAR FF01
ENCODING 8993
SWIDTH 1400 0
DWIDTH 14 0
BBX 2 10 6 0
BITMAP
80
80
80
80
80
80
80
00
00
40
ENDCHAR
STARTCHAR FF02
ENCODING 8994
SWIDTH 1400 0
DWIDTH 14 0
BBX 4 3 5 8
BITMAP
50
A0
20
ENDCHAR
STARTCHAR FF03
ENCODING 8995
SWIDTH 1400 0
DWIDTH 14 0
BBX 10 8 2 1
BITMAP
0900
0900
7FC0
1200
1200
FF80
2400
2400
ENDCHAR
STARTCHAR FF04
ENCODING 8996
SWIDTH 1400 0
DWIDTH 14 0
BBX 7 12 3 -1
BITMAP
10
7C
50
90
90
70
1C
12
92
52
3C
10
ENDCHAR
STARTCHAR FF05
ENCODING 8997
SWIDTH 1400 0
DWIDTH 14 0
BBX 10 10 2 0
BITMAP
6100
9200
9200
9400
6400
0980
0A40
1240
1240
2180
ENDCHAR
STARTCHAR FF06
ENCODING 8998
SWIDTH 1400 0
DWIDTH 14 0
BBX 8 10 3 0
BITMAP
38
48
48
28
30
50
8A
86
86
79
ENDCHAR
STARTCHAR FF07
ENCODING 8999
SWIDTH 1400 0
DWIDTH 14 0
BBX 2 3 6 8
BITMAP
C0
80
80
ENDCHAR
STARTCHAR FF08
ENCODING 9000
SWIDTH 1400 0
DWIDTH 14 0
BBX 3 12 5 -2
BITMAP
20
20
40
40
40
80
80
40
40
40
20
20
ENDCHAR
STARTCHAR FF09
ENCODING 9001
SWIDTH 1400 0
DWIDTH 14 0
BBX 2 12 6 -2
BITMAP
80
80
40
40
40
40
40
40
40
40
80
80
ENDCHAR
STARTCHAR FF0A
ENCODING 9002
SWIDTH 1400 0
DWIDTH 14 0
BBX 3 5 6 2
BITMAP
40
40
E0
A0
A0
ENDCHAR
STARTCHAR FF0B
ENCODING 9003
SWIDTH 1400 0
DWIDTH 14 0
BBX 9 9 2 0
BITMAP
0800
0800
0800
0800
FF80
0800
0800
0800
0800
ENDCHAR
STARTCHAR FF0C
ENCODING 9004
SWIDTH 1400 0
DWIDTH 14 0
BBX 1 3 2 -2
BITMAP
80
80
80
ENDCHAR
STARTCHAR FF0D
ENCODING 9005
SWIDTH 1400 0
DWIDTH 14 0
BBX 10 1 2 4
BITMAP
FFC0
ENDCHAR
STARTCHAR FF0E
ENCODING 9006
SWIDTH 1400 0
DWIDTH 14 0
BBX 1 1 3 0
BITMAP
80
ENDCHAR
STARTCHAR FF0F
ENCODING 9007
SWIDTH 1400 0
DWIDTH 14 0
BBX 12 12 1 -2
BITMAP
0010
0020
0040
0080
0100
0200
0400
0800
1000
2000
4000
8000
ENDCHAR
STARTCHAR FF10
ENCODING 9008
SWIDTH 1400 0
DWIDTH 14 0
BBX 6 10 4 0
BITMAP
78
48
84
84
84
84
84
84
48
78
ENDCHAR
STARTCHAR FF11
ENCODING 9009
SWIDTH 1400 0
DWIDTH 14 0
BBX 3 10 6 0
BITMAP
20
20
E0
20
20
20
20
20
20
20
ENDCHAR
STARTCHAR FF12
ENCODING 9010
SWIDTH 1400 0
DWIDTH 14 0
BBX 6 10 4 0
BITMAP
38
44
84
04
0C
18
20
40
80
FC
ENDCHAR
STARTCHAR FF13
ENCODING 9011
SWIDTH 1400 0
DWIDTH 14 0
BBX 6 10 4 0
BITMAP
78
84
04
08
38
04
04
84
84
78
ENDCHAR
STARTCHAR FF14
ENCODING 9012
SWIDTH 1400 0
DWIDTH 14 0
BBX 6 10 4 0
BITMAP
08
18
18
28
48
48
88
FC
08
08
ENDCHAR
STARTCHAR FF15
ENCODING 9013
SWIDTH 1400 0
DWIDTH 14 0
BBX 6 10 4 0
BITMAP
7C
80
80
80
F8
04
04
84
84
78
ENDCHAR
STARTCHAR FF16
ENCODING 9014
SWIDTH 1400 0
DWIDTH 14 0
BBX 6 10 4 0
BITMAP
38
44
80
80
F8
84
84
84
84
78
ENDCHAR
STARTCHAR FF17
ENCODING 9015
SWIDTH 1400 0
DWIDTH 14 0
BBX 6 10 4 0
BITMAP
FC
08
08
10
10
20
20
20
40
40
ENDCHAR
STARTCHAR FF18
ENCODING 9016
SWIDTH 1400 0
DWIDTH 14 0
BBX 7 10 3 0
BITMAP
3C
42
42
22
1C
66
82
82
46
3C
ENDCHAR
STARTCHAR FF19
ENCODING 9017
SWIDTH 1400 0
DWIDTH 14 0
BBX 6 10 4 0
BITMAP
78
C8
84
84
84
4C
34
04
48
78
ENDCHAR
STARTCHAR FF1A
ENCODING 9018
SWIDTH 1400 0
DWIDTH 14 0
BBX 1 7 7 0
BITMAP
80
00
00
00
00
00
80
ENDCHAR
STARTCHAR FF1B
ENCODING 9019
SWIDTH 1400 0
DWIDTH 14 0
BBX 1 9 6 -2
BITMAP
80
00
00
00
00
00
80
80
80
ENDCHAR
STARTCHAR FF1C
ENCODING 9020
SWIDTH 1400 0
DWIDTH 14 0
BBX 8 9 3 0
BITMAP
01
06
18
60
80
60
18
06
01
ENDCHAR
STARTCHAR FF1D
ENCODING 9021
SWIDTH 1400 0
DWIDTH 14 0
BBX 10 4 2 2
BITMAP
FFC0
0000
0000
FFC0
ENDCHAR
STARTCHAR FF1E
ENCODING 9022
SWIDTH 1400 0
DWIDTH 14 0
BBX 9 9 3 0
BITMAP
8000
6000
1800
0600
0180
0600
1800
6000
8000
ENDCHAR
STARTCHAR FF1F
ENCODING 9023
SWIDTH 1400 0
DWIDTH 14 0
BBX 6 10 4 0
BITMAP
78
84
84
04
08
10
20
00
00
20
ENDCHAR
STARTCHAR FF20
ENCODING 9024
SWIDTH 1400 0
DWIDTH 14 0
BBX 10 10 2 -1
BITMAP
1E00
6180
5F40
B340
A140
A140
B340
5D80
2040
1F80
ENDCHAR
STARTCHAR FF21
ENCODING 9025
SWIDTH 1400 0
DWIDTH 14 0
BBX 8 10 3 0
BITMAP
18
18
18
24
24
42
7E
42
81
81
ENDCHAR
STARTCHAR FF22
ENCODING 9026
SWIDTH 1400 0
DWIDTH 14 0
BBX 8 10 3 0
BITMAP
FE
82
83
82
FC
82
81
81
83
FE
ENDCHAR
STARTCHAR FF23
ENCODING 9027
SWIDTH 1400 0
DWIDTH 14 0
BBX 8 10 3 0
BITMAP
3C
63
41
80
80
80
80
41
41
3E
ENDCHAR
STARTCHAR FF24
ENCODING 9028
SWIDTH 1400 0
DWIDTH 14 0
BBX 8 10 3 0
BITMAP
F8
86
82
81
81
81
81
81
82
FC
ENDCHAR
STARTCHAR FF25
ENCODING 9029
SWIDTH 1400 0
DWIDTH 14 0
BBX 7 10 4 0
BITMAP
FE
80
80
80
FC
80
80
80
80
FE
ENDCHAR
STARTCHAR FF26
ENCODING 9030
SWIDTH 1400 0
DWIDTH 14 0
BBX 6 10 4 0
BITMAP
FC
80
80
80
FC
80
80
80
80
80
ENDCHAR
STARTCHAR FF27
ENCODING 9031
SWIDTH 1400 0
DWIDTH 14 0
BBX 8 10 3 0
BITMAP
3E
63
41
80
80
8F
81
81
43
25
ENDCHAR
STARTCHAR FF28
ENCODING 9032
SWIDTH 1400 0
DWIDTH 14 0
BBX 8 10 3 0
BITMAP
81
81
81
81
FF
81
81
81
81
81
ENDCHAR
STARTCHAR FF29
ENCODING 9033
SWIDTH 1400 0
DWIDTH 14 0
BBX 1 10 6 0
BITMAP
80
80
80
80
80
80
80
80
80
80
ENDCHAR
STARTCHAR FF2A
ENCODING 9034
SWIDTH 1400 0
DWIDTH 14 0
BBX 5 10 5 0
BITMAP
08
08
08
08
08
08
08
88
88
70
ENDCHAR
STARTCHAR FF2B
ENCODING 9035
SWIDTH 1400 0
DWIDTH 14 0
BBX 7 10 3 0
BITMAP
82
84
88
90
F0
D0
88
84
82
82
ENDCHAR
STARTCHAR FF2C
ENCODING 9036
SWIDTH 1400 0
DWIDTH 14 0
BBX 6 10 4 0
BITMAP
80
80
80
80
80
80
80
80
80
FC
ENDCHAR
STARTCHAR FF2D
ENCODING 9037
SWIDTH 1400 0
DWIDTH 14 0
BBX 10 10 2 0
BITMAP
C0C0
C0C0
C0C0
A140
A140
9240
9240
9240
8C40
8C40
ENDCHAR
STARTCHAR FF2E
ENCODING 9038
SWIDTH 1400 0
DWIDTH 14 0
BBX 8 10 3 0
BITMAP
C1
C1
A1
A1
91
89
89
85
83
83
ENDCHAR
STARTCHAR FF2F
ENCODING 9039
SWIDTH 1400 0
DWIDTH 14 0
BBX 9 10 3 0
BITMAP
3E00
4100
8080
8080
8080
8080
8080
8180
4100
3E00
ENDCHAR
STARTCHAR FF30
ENCODING 9040
SWIDTH 1400 0
DWIDTH 14 0
BBX 7 10 4 0
BITMAP
F8
86
82
82
84
F8
80
80
80
80
ENDCHAR
STARTCHAR FF31
ENCODING 9041
SWIDTH 1400 0
DWIDTH 14 0
BBX 10 11 2 -1
BITMAP
1E00
6180
4080
8040
8040
8040
8040
8040
4280
2180
1EC0
ENDCHAR
STARTCHAR FF32
ENCODING 9042
SWIDTH 1400 0
DWIDTH 14 0
BBX 8 10 3 0
BITMAP
FE
83
81
81
82
FE
82
81
81
81
ENDCHAR
STARTCHAR FF33
ENCODING 9043
SWIDTH 1400 0
DWIDTH 14 0
BBX 7 10 4 0
BITMAP
78
C4
80
80
60
1C
02
82
46
3C
ENDCHAR
STARTCHAR FF34
ENCODING 9044
SWIDTH 1400 0
DWIDTH 14 0
BBX 7 10 3 0
BITMAP
FE
10
10
10
10
10
10
10
10
10
ENDCHAR
STARTCHAR FF35
ENCODING 9045
SWIDTH 1400 0
DWIDTH 14 0
BBX 8 10 3 0
BITMAP
81
81
81
81
81
81
81
81
42
3C
ENDCHAR
STARTCHAR FF36
ENCODING 9046
SWIDTH 1400 0
DWIDTH 14 0
BBX 8 10 3 0
BITMAP
81
42
42
42
24
24
24
18
18
18
ENDCHAR
STARTCHAR FF37
ENCODING 9047
SWIDTH 1400 0
DWIDTH 14 0
BBX 12 10 1 0
BITMAP
8610
8620
4620
4A20
4920
4940
2940
3140
30C0
1080
ENDCHAR
STARTCHAR FF38
ENCODING 9048
SWIDTH 1400 0
DWIDTH 14 0
BBX 6 9 4 1
BITMAP
84
84
48
30
30
30
48
48
84
ENDCHAR
STARTCHAR FF39
ENCODING 9049
SWIDTH 1400 0
DWIDTH 14 0
BBX 7 10 3 0
BITMAP
82
42
44
28
28
10
10
10
10
10
ENDCHAR
STARTCHAR FF3A
ENCODING 9050
SWIDTH 1400 0
DWIDTH 14 0
BBX 8 10 3 0
BITMAP
7F
02
04
08
08
10
20
40
40
FF
ENDCHAR
STARTCHAR FF3B
ENCODING 9051
SWIDTH 1400 0
DWIDTH 14 0
BBX 3 13 6 -2
BITMAP
E0
80
80
80
80
80
80
80
80
80
80
80
C0
ENDCHAR
STARTCHAR FFE6
ENCODING 9052
SWIDTH 1400 0
DWIDTH 14 0
BBX 14 10 0 0
BITMAP
4108
4308
2310
FFFC
2490
FFFC
14A0
18A0
1860
0840
ENDCHAR
STARTCHAR FF3D
ENCODING 9053
SWIDTH 1400 0
DWIDTH 14 0
BBX 3 13 6 -2
BITMAP
E0
20
20
20
20
20
20
20
20
20
20
20
E0
ENDCHAR
STARTCHAR FF3E
ENCODING 9054
SWIDTH 1400 0
DWIDTH 14 0
BBX 4 2 5 9
BITMAP
60
90
ENDCHAR
STARTCHAR FF3F
ENCODING 9055
SWIDTH 1400 0
DWIDTH 14 0
BBX 14 1 0 -2
BITMAP
FFFC
ENDCHAR
STARTCHAR FF40
ENCODING 9056
SWIDTH 1400 0
DWIDTH 14 0
BBX 1 3 6 8
BITMAP
80
80
80
ENDCHAR
STARTCHAR FF41
ENCODING 9057
SWIDTH 1400 0
DWIDTH 14 0
BBX 6 7 4 0
BITMAP
78
88
88
78
88
88
F4
ENDCHAR
STARTCHAR FF42
ENCODING 9058
SWIDTH 1400 0
DWIDTH 14 0
BBX 6 10 4 0
BITMAP
80
80
80
F8
8C
04
04
04
8C
F8
ENDCHAR
STARTCHAR FF43
ENCODING 9059
SWIDTH 1400 0
DWIDTH 14 0
BBX 6 7 4 0
BITMAP
78
84
80
80
80
84
78
ENDCHAR
STARTCHAR FF44
ENCODING 9060
SWIDTH 1400 0
DWIDTH 14 0
BBX 7 10 3 0
BITMAP
02
02
02
7E
46
82
82
82
46
3A
ENDCHAR
STARTCHAR FF45
ENCODING 9061
SWIDTH 1400 0
DWIDTH 14 0
BBX 6 7 4 0
BITMAP
78
84
84
FC
80
84
78
ENDCHAR
STARTCHAR FF46
ENCODING 9062
SWIDTH 1400 0
DWIDTH 14 0
BBX 3 10 5 0
BITMAP
20
40
40
E0
40
40
40
40
40
40
ENDCHAR
STARTCHAR FF47
ENCODING 9063
SWIDTH 1400 0
DWIDTH 14 0
BBX 6 10 4 -3
BITMAP
74
CC
84
84
84
4C
74
04
88
70
ENDCHAR
STARTCHAR FF48
ENCODING 9064
SWIDTH 1400 0
DWIDTH 14 0
BBX 6 10 4 0
BITMAP
80
80
80
F8
84
84
84
84
84
84
ENDCHAR
STARTCHAR FF49
ENCODING 9065
SWIDTH 1400 0
DWIDTH 14 0
BBX 1 10 7 0
BITMAP
80
00
00
80
80
80
80
80
80
80
ENDCHAR
STARTCHAR FF4A
ENCODING 9066
SWIDTH 1400 0
DWIDTH 14 0
BBX 2 13 6 -3
BITMAP
40
00
00
40
40
40
40
40
40
40
40
40
80
ENDCHAR
STARTCHAR FF4B
ENCODING 9067
SWIDTH 1400 0
DWIDTH 14 0
BBX 6 10 4 0
BITMAP
80
80
80
88
90
A0
D0
90
88
84
ENDCHAR
STARTCHAR FF4C
ENCODING 9068
SWIDTH 1400 0
DWIDTH 14 0
BBX 1 10 7 0
BITMAP
80
80
80
80
80
80
80
80
80
80
ENDCHAR
STARTCHAR FF4D
ENCODING 9069
SWIDTH 1400 0
DWIDTH 14 0
BBX 10 7 2 0
BITMAP
FBC0
8C40
8840
8840
8840
8840
8840
ENDCHAR
STARTCHAR FF4E
ENCODING 9070
SWIDTH 1400 0
DWIDTH 14 0
BBX 6 7 4 0
BITMAP
B8
C4
84
84
84
84
84
ENDCHAR
STARTCHAR FF4F
ENCODING 9071
SWIDTH 1400 0
DWIDTH 14 0
BBX 6 7 4 0
BITMAP
30
48
84
84
84
48
30
ENDCHAR
STARTCHAR FF50
ENCODING 9072
SWIDTH 1400 0
DWIDTH 14 0
BBX 6 10 4 -3
BITMAP
B0
C8
84
84
84
84
F8
90
80
80
ENDCHAR
STARTCHAR FF51
ENCODING 9073
SWIDTH 1400 0
DWIDTH 14 0
BBX 7 10 3 -3
BITMAP
30
4E
82
82
82
46
7E
12
02
02
ENDCHAR
STARTCHAR FF52
ENCODING 9074
SWIDTH 1400 0
DWIDTH 14 0
BBX 4 7 5 0
BITMAP
B0
C0
80
80
80
80
80
ENDCHAR
STARTCHAR FF53
ENCODING 9075
SWIDTH 1400 0
DWIDTH 14 0
BBX 6 8 4 -1
BITMAP
78
80
80
70
0C
84
48
30
ENDCHAR
STARTCHAR FF54
ENCODING 9076
SWIDTH 1400 0
DWIDTH 14 0
BBX 3 9 5 0
BITMAP
40
40
E0
40
40
40
40
40
60
ENDCHAR
STARTCHAR FF55
ENCODING 9077
SWIDTH 1400 0
DWIDTH 14 0
BBX 6 7 4 0
BITMAP
84
84
84
84
84
84
7C
ENDCHAR
STARTCHAR FF56
ENCODING 9078
SWIDTH 1400 0
DWIDTH 14 0
BBX 6 7 4 0
BITMAP
84
88
48
48
50
30
30
ENDCHAR
STARTCHAR FF57
ENCODING 9079
SWIDTH 1400 0
DWIDTH 14 0
BBX 10 7 2 0
BITMAP
8440
4C80
4C80
5480
5300
3300
2100
ENDCHAR
STARTCHAR FF58
ENCODING 9080
SWIDTH 1400 0
DWIDTH 14 0
BBX 6 7 4 0
BITMAP
80
48
30
30
30
48
84
ENDCHAR
STARTCHAR FF59
ENCODING 9081
SWIDTH 1400 0
DWIDTH 14 0
BBX 6 9 4 -2
BITMAP
84
88
48
48
50
30
30
20
20
ENDCHAR
STARTCHAR FF5A
ENCODING 9082
SWIDTH 1400 0
DWIDTH 14 0
BBX 6 7 4 0
BITMAP
FC
08
10
20
40
40
FC
ENDCHAR
STARTCHAR FF5B
ENCODING 9083
SWIDTH 1400 0
DWIDTH 14 0
BBX 2 14 6 -3
BITMAP
40
80
80
80
80
80
80
80
80
80
80
80
80
40
ENDCHAR
STARTCHAR FF5C
ENCODING 9084
SWIDTH 1400 0
DWIDTH 14 0
BBX 1 13 7 -2
BITMAP
80
80
80
80
80
80
80
80
80
80
80
80
80
ENDCHAR
STARTCHAR FF5D
ENCODING 9085
SWIDTH 1400 0
DWIDTH 14 0
BBX 3 14 5 -3
BITMAP
80
40
40
40
40
40
40
60
40
40
40
40
40
80
ENDCHAR
STARTCHAR FFE3
ENCODING 9086
SWIDTH 1400 0
DWIDTH 14 0
BBX 6 1 4 10
BITMAP
FC
ENDCHAR
STARTCHAR 3131
ENCODING 9249
SWIDTH 1400 0
DWIDTH 14 0
BBX 9 7 2 1
BITMAP
FF80
0080
0080
0080
0080
0080
0080
ENDCHAR
STARTCHAR 3132
ENCODING 9250
SWIDTH 1400 0
DWIDTH 14 0
BBX 10 7 2 0
BITMAP
FFC0
0840
0840
0840
0840
0840
0040
ENDCHAR
STARTCHAR 3133
ENCODING 9251
SWIDTH 1400 0
DWIDTH 14 0
BBX 11 7 1 1
BITMAP
F880
0880
0880
0980
0940
0A20
0A00
ENDCHAR
STARTCHAR 3134
ENCODING 9252
SWIDTH 1400 0
DWIDTH 14 0
BBX 9 7 2 1
BITMAP
8000
8000
8000
8000
8000
8000
FF80
ENDCHAR
STARTCHAR 3135
ENCODING 9253
SWIDTH 1400 0
DWIDTH 14 0
BBX 10 8 2 0
BITMAP
87C0
8100
8100
8300
8280
8480
8840
E000
ENDCHAR
STARTCHAR 3136
ENCODING 9254
SWIDTH 1400 0
DWIDTH 14 0
BBX 10 8 2 0
BITMAP
8380
8000
8FC0
8380
8440
8440
9C40
E380
ENDCHAR
STARTCHAR 3137
ENCODING 9255
SWIDTH 1400 0
DWIDTH 14 0
BBX 9 6 3 2
BITMAP
FF00
8000
8000
8000
8000
FF80
ENDCHAR
STARTCHAR 3138
ENCODING 9256
SWIDTH 1400 0
DWIDTH 14 0
BBX 10 7 2 1
BITMAP
F7C0
8400
8400
8400
8400
8C00
F7C0
ENDCHAR
STARTCHAR 3139
ENCODING 9257
SWIDTH 1400 0
DWIDTH 14 0
BBX 9 7 3 1
BITMAP
FF00
0100
0100
FF00
8000
8000
FF80
ENDCHAR
STARTCHAR 313A
ENCODING 9258
SWIDTH 1400 0
DWIDTH 14 0
BBX 11 8 1 0
BITMAP
FBE0
0820
0820
7820
4020
4020
4020
7C20
ENDCHAR
STARTCHAR 313B
ENCODING 9259
SWIDTH 1400 0
DWIDTH 14 0
BBX 11 8 1 0
BITMAP
F9E0
0920
0920
7920
4120
4120
45E0
7900
ENDCHAR
STARTCHAR 313C
ENCODING 9260
SWIDTH 1400 0
DWIDTH 14 0
BBX 10 8 2 0
BITMAP
F240
1240
1240
F3C0
8240
8240
8A40
73C0
ENDCHAR
STARTCHAR 313D
ENCODING 9261
SWIDTH 1400 0
DWIDTH 14 0
BBX 11 8 1 0
BITMAP
F880
0880
0880
7980
4140
4120
4600
3800
ENDCHAR
STARTCHAR 313E
ENCODING 9262
SWIDTH 1400 0
DWIDTH 14 0
BBX 12 8 1 0
BITMAP
F9F0
0900
0900
79E0
4100
4100
4500
38E0
ENDCHAR
STARTCHAR 313F
ENCODING 9263
SWIDTH 1400 0
DWIDTH 14 0
BBX 10 8 2 0
BITMAP
F7C0
1000
1080
F480
8480
8280
9FC0
E000
ENDCHAR
STARTCHAR 3140
ENCODING 9264
SWIDTH 1400 0
DWIDTH 14 0
BBX 12 8 1 0
BITMAP
79C0
0800
0FF0
F9C0
8220
8220
8A20
71C0
ENDCHAR
STARTCHAR 3141
ENCODING 9265
SWIDTH 1400 0
DWIDTH 14 0
BBX 8 7 3 1
BITMAP
FF
81
81
81
81
81
FF
ENDCHAR
STARTCHAR 3142
ENCODING 9266
SWIDTH 1400 0
DWIDTH 14 0
BBX 8 7 3 1
BITMAP
80
81
81
FF
81
81
FF
ENDCHAR
STARTCHAR 3143
ENCODING 9267
SWIDTH 1400 0
DWIDTH 14 0
BBX 10 7 2 1
BITMAP
9240
9240
F3C0
9240
9240
9240
F3C0
ENDCHAR
STARTCHAR 3144
ENCODING 9268
SWIDTH 1400 0
DWIDTH 14 0
BBX 10 7 2 1
BITMAP
0100
9100
9100
F300
9280
9440
F400
ENDCHAR
STARTCHAR 3145
ENCODING 9269
SWIDTH 1400 0
DWIDTH 14 0
BBX 10 7 2 0
BITMAP
0800
0C00
0C00
1200
2200
4180
8040
ENDCHAR
STARTCHAR 3146
ENCODING 9270
SWIDTH 1400 0
DWIDTH 14 0
BBX 10 7 2 1
BITMAP
0100
2100
2100
3300
4B00
4480
8840
ENDCHAR
STARTCHAR 3147
ENCODING 9271
SWIDTH 1400 0
DWIDTH 14 0
BBX 8 8 3 0
BITMAP
3C
42
81
81
81
81
42
3C
ENDCHAR
STARTCHAR 3148
ENCODING 9272
SWIDTH 1400 0
DWIDTH 14 0
BBX 10 7 2 1
BITMAP
7F80
0800
0C00
1400
1200
2100
C0C0
ENDCHAR
STARTCHAR 3149
ENCODING 9273
SWIDTH 1400 0
DWIDTH 14 0
BBX 10 7 2 1
BITMAP
F7C0
2100
2100
3280
5280
4C40
8800
ENDCHAR
STARTCHAR 314A
ENCODING 9274
SWIDTH 1400 0
DWIDTH 14 0
BBX 10 8 2 1
BITMAP
1F00
0000
0000
7F80
0800
0C00
1300
E0C0
ENDCHAR
STARTCHAR 314B
ENCODING 9275
SWIDTH 1400 0
DWIDTH 14 0
BBX 9 7 3 1
BITMAP
FF80
0080
0080
0480
7880
0080
0100
ENDCHAR
STARTCHAR 314C
ENCODING 9276
SWIDTH 1400 0
DWIDTH 14 0
BBX 9 7 3 1
BITMAP
FF00
8000
8000
FF00
8000
8000
FF80
ENDCHAR
STARTCHAR 314D
ENCODING 9277
SWIDTH 1400 0
DWIDTH 14 0
BBX 10 7 2 1
BITMAP
7F80
0000
2100
2100
2100
2200
FFC0
ENDCHAR
STARTCHAR 314E
ENCODING 9278
SWIDTH 1400 0
DWIDTH 14 0
BBX 10 9 2 0
BITMAP
1E00
0000
FFC0
0000
1E00
2100
2100
2100
1E00
ENDCHAR
STARTCHAR 314F
ENCODING 9279
SWIDTH 1400 0
DWIDTH 14 0
BBX 4 12 5 -2
BITMAP
80
80
80
80
80
F0
80
80
80
80
80
80
ENDCHAR
STARTCHAR 3150
ENCODING 9280
SWIDTH 1400 0
DWIDTH 14 0
BBX 4 12 5 -2
BITMAP
90
90
90
90
90
F0
90
90
90
90
90
10
ENDCHAR
STARTCHAR 3151
ENCODING 9281
SWIDTH 1400 0
DWIDTH 14 0
BBX 4 12 5 -2
BITMAP
80
80
80
80
F0
80
80
F0
80
80
80
80
ENDCHAR
STARTCHAR 3152
ENCODING 9282
SWIDTH 1400 0
DWIDTH 14 0
BBX 4 12 5 -2
BITMAP
90
90
90
F0
90
90
F0
90
90
90
90
10
ENDCHAR
STARTCHAR 3153
ENCODING 9283
SWIDTH 1400 0
DWIDTH 14 0
BBX 5 12 4 -2
BITMAP
08
08
08
08
08
F8
08
08
08
08
08
08
ENDCHAR
STARTCHAR 3154
ENCODING 9284
SWIDTH 1400 0
DWIDTH 14 0
BBX 6 12 4 -2
BITMAP
14
14
14
14
14
F4
14
14
14
14
14
14
ENDCHAR
STARTCHAR 3155
ENCODING 9285
SWIDTH 1400 0
DWIDTH 14 0
BBX 5 12 5 -2
BITMAP
08
08
08
F8
08
08
08
F8
08
08
08
08
ENDCHAR
STARTCHAR 3156
ENCODING 9286
SWIDTH 1400 0
DWIDTH 14 0
BBX 6 12 4 -2
BITMAP
14
14
14
F4
14
14
14
F4
14
14
14
04
ENDCHAR
STARTCHAR 3157
ENCODING 9287
SWIDTH 1400 0
DWIDTH 14 0
BBX 12 6 1 1
BITMAP
0400
0400
0400
0400
0400
FFF0
ENDCHAR
STARTCHAR 3158
ENCODING 9288
SWIDTH 1400 0
DWIDTH 14 0
BBX 12 12 1 -2
BITMAP
0080
0080
0080
0880
0880
08F0
0880
0980
F680
0080
0080
0080
ENDCHAR
STARTCHAR 3159
ENCODING 9289
SWIDTH 1400 0
DWIDTH 14 0
BBX 11 13 1 -2
BITMAP
00A0
00A0
00A0
10A0
10A0
10A0
10E0
10A0
FFA0
00A0
00A0
00A0
0020
ENDCHAR
STARTCHAR 315A
ENCODING 9290
SWIDTH 1400 0
DWIDTH 14 0
BBX 10 13 2 -2
BITMAP
0040
0040
0040
0840
0840
0840
0840
0840
09C0
F640
0040
0040
0040
ENDCHAR
STARTCHAR 315B
ENCODING 9291
SWIDTH 1400 0
DWIDTH 14 0
BBX 13 7 0 1
BITMAP
0800
0840
0840
0840
0840
0840
FFF8
ENDCHAR
STARTCHAR 315C
ENCODING 9292
SWIDTH 1400 0
DWIDTH 14 0
BBX 11 9 2 -2
BITMAP
FFE0
0400
0400
0400
0400
0400
0400
0400
0400
ENDCHAR
STARTCHAR 315D
ENCODING 9293
SWIDTH 1400 0
DWIDTH 14 0
BBX 10 12 2 -2
BITMAP
0040
0040
0040
FF40
0840
0BC0
0840
0840
0840
0840
0840
0040
ENDCHAR
STARTCHAR 315E
ENCODING 9294
SWIDTH 1400 0
DWIDTH 14 0
BBX 11 13 1 -2
BITMAP
0020
00A0
00A0
00A0
FEA0
10A0
13A0
10A0
10A0
10A0
10A0
00A0
0020
ENDCHAR
STARTCHAR 315F
ENCODING 9295
SWIDTH 1400 0
DWIDTH 14 0
BBX 10 12 2 -2
BITMAP
0040
0040
0040
0040
FFC0
0840
0840
0840
0840
0840
0040
0040
ENDCHAR
STARTCHAR 3160
ENCODING 9296
SWIDTH 1400 0
DWIDTH 14 0
BBX 12 9 1 -2
BITMAP
FFF0
1080
1080
1080
1080
1080
1080
1080
1080
ENDCHAR
STARTCHAR 3161
ENCODING 9297
SWIDTH 1400 0
DWIDTH 14 0
BBX 12 1 1 4
BITMAP
FFF0
ENDCHAR
STARTCHAR 3162
ENCODING 9298
SWIDTH 1400 0
DWIDTH 14 0
BBX 10 12 2 -2
BITMAP
0040
0040
0040
0040
0040
0040
01C0
FE40
0040
0040
0040
0040
ENDCHAR
STARTCHAR 3163
ENCODING 9299
SWIDTH 1400 0
DWIDTH 14 0
BBX 1 12 6 -2
BITMAP
80
80
80
80
80
80
80
80
80
80
80
80
ENDCHAR
STARTCHAR 3164
ENCODING 9300
SWIDTH 1400 0
DWIDTH 14 0
BBX 0 0 0 0
BITMAP
ENDCHAR
STARTCHAR 3165
ENCODING 9301
SWIDTH 1400 0
DWIDTH 14 0
BBX 10 7 2 1
BITMAP
8400
8400
8400
8400
8400
8400
FFC0
ENDCHAR
STARTCHAR 3166
ENCODING 9302
SWIDTH 1400 0
DWIDTH 14 0
BBX 10 7 2 1
BITMAP
87C0
8400
8400
8400
8400
8C00
F7C0
ENDCHAR
STARTCHAR 3167
ENCODING 9303
SWIDTH 1400 0
DWIDTH 14 0
BBX 10 7 2 1
BITMAP
8100
8100
8100
8300
8280
8440
FC40
ENDCHAR
STARTCHAR 3168
ENCODING 9304
SWIDTH 1400 0
DWIDTH 14 0
BBX 11 7 1 0
BITMAP
8080
8180
8240
8240
8420
87E0
F000
ENDCHAR
STARTCHAR 3169
ENCODING 9305
SWIDTH 1400 0
DWIDTH 14 0
BBX 12 8 1 0
BITMAP
7E40
1240
1240
F240
82C0
82A0
9310
6000
ENDCHAR
STARTCHAR 316A
ENCODING 9306
SWIDTH 1400 0
DWIDTH 14 0
BBX 11 8 2 0
BITMAP
F3E0
1200
1200
F200
8200
8200
8200
FBE0
ENDCHAR
STARTCHAR 316B
ENCODING 9307
SWIDTH 1400 0
DWIDTH 14 0
BBX 12 7 1 1
BITMAP
E140
2940
2940
EF40
89A0
89A0
FF10
ENDCHAR
STARTCHAR 316C
ENCODING 9308
SWIDTH 1400 0
DWIDTH 14 0
BBX 11 8 1 0
BITMAP
F880
0880
0940
F940
8140
8220
8BE0
7000
ENDCHAR
STARTCHAR 316D
ENCODING 9309
SWIDTH 1400 0
DWIDTH 14 0
BBX 12 7 1 1
BITMAP
FBF0
0800
09C0
FA20
8220
8220
F9C0
ENDCHAR
STARTCHAR 316E
ENCODING 9310
SWIDTH 1400 0
DWIDTH 14 0
BBX 10 8 2 0
BITMAP
0040
F240
9240
93C0
9240
9240
F3C0
8000
ENDCHAR
STARTCHAR 316F
ENCODING 9311
SWIDTH 1400 0
DWIDTH 14 0
BBX 11 7 1 1
BITMAP
0080
F880
8880
8980
8940
8A20
F800
ENDCHAR
STARTCHAR 3170
ENCODING 9312
SWIDTH 1400 0
DWIDTH 14 0
BBX 11 7 1 1
BITMAP
0080
F880
8940
8940
8A40
8A20
FBE0
ENDCHAR
STARTCHAR 3171
ENCODING 9313
SWIDTH 1400 0
DWIDTH 14 0
BBX 6 10 4 -1
BITMAP
FC
84
84
FC
00
78
84
84
84
78
ENDCHAR
STARTCHAR 3172
ENCODING 9314
SWIDTH 1400 0
DWIDTH 14 0
BBX 10 7 2 1
BITMAP
0FC0
8840
8840
F840
8840
8840
F840
ENDCHAR
STARTCHAR 3173
ENCODING 9315
SWIDTH 1400 0
DWIDTH 14 0
BBX 12 7 1 1
BITMAP
0800
89F0
8900
F900
8900
8900
F9F0
ENDCHAR
STARTCHAR 3174
ENCODING 9316
SWIDTH 1400 0
DWIDTH 14 0
BBX 10 7 2 1
BITMAP
27C0
A440
A440
E440
AA40
AA40
E140
ENDCHAR
STARTCHAR 3175
ENCODING 9317
SWIDTH 1400 0
DWIDTH 14 0
BBX 12 7 1 1
BITMAP
14E0
9480
9480
F480
9C80
9A80
F0F0
ENDCHAR
STARTCHAR 3176
ENCODING 9318
SWIDTH 1400 0
DWIDTH 14 0
BBX 11 7 1 1
BITMAP
03E0
8880
8880
F880
8940
8A20
FC00
ENDCHAR
STARTCHAR 3177
ENCODING 9319
SWIDTH 1400 0
DWIDTH 14 0
BBX 12 7 1 1
BITMAP
01F0
8900
8900
F9F0
8900
8900
F9F0
ENDCHAR
STARTCHAR 3178
ENCODING 9320
SWIDTH 1400 0
DWIDTH 14 0
BBX 6 12 4 -2
BITMAP
84
84
FC
84
84
FC
00
78
84
84
84
78
ENDCHAR
STARTCHAR 3179
ENCODING 9321
SWIDTH 1400 0
DWIDTH 14 0
BBX 10 12 2 -2
BITMAP
9240
9240
F3C0
9240
F3C0
0000
1E00
3300
2100
2100
3300
1E00
ENDCHAR
STARTCHAR 317A
ENCODING 9322
SWIDTH 1400 0
DWIDTH 14 0
BBX 12 7 1 1
BITMAP
11F0
1010
1010
3010
2810
4410
8210
ENDCHAR
STARTCHAR 317B
ENCODING 9323
SWIDTH 1400 0
DWIDTH 14 0
BBX 12 7 1 1
BITMAP
0100
1100
1100
1100
3100
4900
85F0
ENDCHAR
STARTCHAR 317C
ENCODING 9324
SWIDTH 1400 0
DWIDTH 14 0
BBX 12 7 1 1
BITMAP
01F0
2100
1100
3100
3100
4900
85F0
ENDCHAR
STARTCHAR 317D
ENCODING 9325
SWIDTH 1400 0
DWIDTH 14 0
BBX 11 7 2 1
BITMAP
2000
2220
2220
23E0
6220
9220
0BE0
ENDCHAR
STARTCHAR 317E
ENCODING 9326
SWIDTH 1400 0
DWIDTH 14 0
BBX 12 7 1 1
BITMAP
23F0
2080
20C0
60C0
5140
8920
8A10
ENDCHAR
STARTCHAR 317F
ENCODING 9327
SWIDTH 1400 0
DWIDTH 14 0
BBX 8 7 3 0
BITMAP
18
24
24
42
42
81
FF
ENDCHAR
STARTCHAR 3180
ENCODING 9328
SWIDTH 1400 0
DWIDTH 14 0
BBX 12 8 1 0
BITMAP
70C0
4920
8610
8610
8610
8A10
4920
30C0
ENDCHAR
STARTCHAR 3181
ENCODING 9329
SWIDTH 1400 0
DWIDTH 14 0
BBX 8 7 3 1
BITMAP
10
28
C6
81
81
C3
3C
ENDCHAR
STARTCHAR 3182
ENCODING 9330
SWIDTH 1400 0
DWIDTH 14 0
BBX 11 7 1 1
BITMAP
2080
E080
9080
8880
8940
9920
7200
ENDCHAR
STARTCHAR 3183
ENCODING 9331
SWIDTH 1400 0
DWIDTH 14 0
BBX 11 7 1 1
BITMAP
2000
D080
8980
8940
8A40
DA20
73E0
ENDCHAR
STARTCHAR 3184
ENCODING 9332
SWIDTH 1400 0
DWIDTH 14 0
BBX 8 12 3 -2
BITMAP
FF
40
44
44
FF
00
18
64
42
42
62
1C
ENDCHAR
STARTCHAR 3185
ENCODING 9333
SWIDTH 1400 0
DWIDTH 14 0
BBX 12 8 1 0
BITMAP
39C0
0000
FFF0
79E0
4920
8A20
4920
79E0
ENDCHAR
STARTCHAR 3186
ENCODING 9334
SWIDTH 1400 0
DWIDTH 14 0
BBX 12 9 1 -1
BITMAP
FFF0
0000
0000
0F00
1980
1080
1080
1980
0F00
ENDCHAR
STARTCHAR 3187
ENCODING 9335
SWIDTH 1400 0
DWIDTH 14 0
BBX 12 12 1 -2
BITMAP
0040
0040
2440
2440
2470
2440
2440
3FF0
C040
0040
0040
0040
ENDCHAR
STARTCHAR 3188
ENCODING 9336
SWIDTH 1400 0
DWIDTH 14 0
BBX 10 12 2 -2
BITMAP
0140
0140
0140
29C0
2940
2940
29C0
FF40
0140
0140
0140
0040
ENDCHAR
STARTCHAR 3189
ENCODING 9337
SWIDTH 1400 0
DWIDTH 14 0
BBX 10 12 2 -2
BITMAP
0040
0040
0040
2440
2440
2440
2440
2440
FFC0
0040
0040
0040
ENDCHAR
STARTCHAR 318A
ENCODING 9338
SWIDTH 1400 0
DWIDTH 14 0
BBX 11 12 1 -2
BITMAP
0020
0020
0020
FF20
1220
12E0
1220
12E0
1220
1220
0020
0020
ENDCHAR
STARTCHAR 318B
ENCODING 9339
SWIDTH 1400 0
DWIDTH 14 0
BBX 9 12 3 -2
BITMAP
0280
0280
0280
3A80
D280
5680
5280
5680
5280
5280
0280
0080
ENDCHAR
STARTCHAR 318C
ENCODING 9340
SWIDTH 1400 0
DWIDTH 14 0
BBX 11 12 1 -2
BITMAP
0020
0020
0020
0020
FFE0
1220
1220
1220
1220
1220
0020
0020
ENDCHAR
STARTCHAR 318D
ENCODING 9341
SWIDTH 1400 0
DWIDTH 14 0
BBX 2 2 6 3
BITMAP
C0
C0
ENDCHAR
STARTCHAR 318E
ENCODING 9342
SWIDTH 1400 0
DWIDTH 14 0
BBX 6 12 4 -2
BITMAP
04
04
04
04
04
C4
C4
04
04
04
04
04
ENDCHAR
STARTCHAR 2170
ENCODING 9505
SWIDTH 1400 0
DWIDTH 14 0
BBX 1 10 6 0
BITMAP
80
00
00
00
80
80
80
80
80
80
ENDCHAR
STARTCHAR 2171
ENCODING 9506
SWIDTH 1400 0
DWIDTH 14 0
BBX 6 10 4 0
BITMAP
84
00
00
00
84
84
84
84
84
84
ENDCHAR
STARTCHAR 2172
ENCODING 9507
SWIDTH 1400 0
DWIDTH 14 0
BBX 8 10 3 0
BITMAP
89
00
00
00
89
89
89
89
89
89
ENDCHAR
STARTCHAR 2173
ENCODING 9508
SWIDTH 1400 0
DWIDTH 14 0
BBX 8 10 3 0
BITMAP
80
00
00
00
91
92
8A
8A
8C
84
ENDCHAR
STARTCHAR 2174
ENCODING 9509
SWIDTH 1400 0
DWIDTH 14 0
BBX 6 6 4 1
BITMAP
84
48
48
50
30
30
ENDCHAR
STARTCHAR 2175
ENCODING 9510
SWIDTH 1400 0
DWIDTH 14 0
BBX 8 10 3 0
BITMAP
01
00
00
00
81
91
51
61
21
21
ENDCHAR
STARTCHAR 2176
ENCODING 9511
SWIDTH 1400 0
DWIDTH 14 0
BBX 10 10 2 0
BITMAP
0240
0000
0000
0000
9240
9240
5240
6240
2240
2240
ENDCHAR
STARTCHAR 2177
ENCODING 9512
SWIDTH 1400 0
DWIDTH 14 0
BBX 10 10 2 0
BITMAP
0540
0000
0000
0000
1540
A540
A540
A540
4540
4540
ENDCHAR
STARTCHAR 2178
ENCODING 9513
SWIDTH 1400 0
DWIDTH 14 0
BBX 8 10 3 0
BITMAP
80
00
00
00
91
8A
84
84
8A
91
ENDCHAR
STARTCHAR 2179
ENCODING 9514
SWIDTH 1400 0
DWIDTH 14 0
BBX 4 6 5 0
BITMAP
90
90
60
60
90
90
ENDCHAR
STARTCHAR 2160
ENCODING 9520
SWIDTH 1400 0
DWIDTH 14 0
BBX 1 10 6 0
BITMAP
80
80
80
80
80
80
80
80
80
80
ENDCHAR
STARTCHAR 2161
ENCODING 9521
SWIDTH 1400 0
DWIDTH 14 0
BBX 6 10 4 0
BITMAP
84
84
84
84
84
84
84
84
84
84
ENDCHAR
STARTCHAR 2162
ENCODING 9522
SWIDTH 1400 0
DWIDTH 14 0
BBX 8 10 3 0
BITMAP
89
89
89
89
89
89
89
89
89
89
ENDCHAR
STARTCHAR 2163
ENCODING 9523
SWIDTH 1400 0
DWIDTH 14 0
BBX 8 10 3 0
BITMAP
A1
A1
91
92
92
92
8C
8C
84
84
ENDCHAR
STARTCHAR 2164
ENCODING 9524
SWIDTH 1400 0
DWIDTH 14 0
BBX 6 9 4 1
BITMAP
84
84
48
48
48
48
30
30
30
ENDCHAR
STARTCHAR 2165
ENCODING 9525
SWIDTH 1400 0
DWIDTH 14 0
BBX 8 10 3 0
BITMAP
85
89
89
49
49
51
51
31
31
01
ENDCHAR
STARTCHAR 2166
ENCODING 9526
SWIDTH 1400 0
DWIDTH 14 0
BBX 10 10 2 0
BITMAP
8540
8940
8940
4940
5140
5140
5140
3140
2140
0140
ENDCHAR
STARTCHAR 2167
ENCODING 9527
SWIDTH 1400 0
DWIDTH 14 0
BBX 12 10 1 0
BITMAP
8A90
4A90
4A90
5290
5290
5290
5290
3290
2290
2290
ENDCHAR
STARTCHAR 2168
ENCODING 9528
SWIDTH 1400 0
DWIDTH 14 0
BBX 8 10 3 0
BITMAP
91
92
8A
8C
84
84
8C
8A
92
91
ENDCHAR
STARTCHAR 2169
ENCODING 9529
SWIDTH 1400 0
DWIDTH 14 0
BBX 6 10 4 0
BITMAP
88
48
48
30
30
30
30
48
48
84
ENDCHAR
STARTCHAR 0391
ENCODING 9537
SWIDTH 1400 0
DWIDTH 14 0
BBX 10 11 2 -1
BITMAP
0180
0380
0280
0480
0880
0880
1080
3F80
2040
4040
8000
ENDCHAR
STARTCHAR 0392
ENCODING 9538
SWIDTH 1400 0
DWIDTH 14 0
BBX 8 10 3 0
BITMAP
1F
21
21
41
7E
42
42
82
82
FC
ENDCHAR
STARTCHAR 0393
ENCODING 9539
SWIDTH 1400 0
DWIDTH 14 0
BBX 8 10 3 0
BITMAP
1F
20
20
20
40
40
40
40
80
80
ENDCHAR
STARTCHAR 0394
ENCODING 9540
SWIDTH 1400 0
DWIDTH 14 0
BBX 9 10 3 0
BITMAP
0300
0300
0F00
1100
1100
2100
4180
8180
8180
FF80
ENDCHAR
STARTCHAR 0395
ENCODING 9541
SWIDTH 1400 0
DWIDTH 14 0
BBX 8 10 3 0
BITMAP
3F
20
20
40
7E
40
40
80
80
FC
ENDCHAR
STARTCHAR 0396
ENCODING 9542
SWIDTH 1400 0
DWIDTH 14 0
BBX 10 10 2 0
BITMAP
1FC0
0080
0100
0200
0400
0800
1000
2000
4000
FF00
ENDCHAR
STARTCHAR 0397
ENCODING 9543
SWIDTH 1400 0
DWIDTH 14 0
BBX 10 10 2 0
BITMAP
1040
2040
2080
2080
3F80
4100
4100
8100
8100
8200
ENDCHAR
STARTCHAR 0398
ENCODING 9544
SWIDTH 1400 0
DWIDTH 14 0
BBX 8 10 3 0
BITMAP
1E
21
41
81
BD
81
81
82
82
7C
ENDCHAR
STARTCHAR 0399
ENCODING 9545
SWIDTH 1400 0
DWIDTH 14 0
BBX 4 10 5 0
BITMAP
10
20
20
20
20
40
40
40
80
80
ENDCHAR
STARTCHAR 039A
ENCODING 9546
SWIDTH 1400 0
DWIDTH 14 0
BBX 9 10 2 0
BITMAP
1080
1100
2600
2800
3000
5000
4800
4400
4200
8100
ENDCHAR
STARTCHAR 039B
ENCODING 9547
SWIDTH 1400 0
DWIDTH 14 0
BBX 9 10 3 0
BITMAP
0600
0600
0A00
1100
1100
2100
2100
4100
8080
8080
ENDCHAR
STARTCHAR 039C
ENCODING 9548
SWIDTH 1400 0
DWIDTH 14 0
BBX 13 10 1 0
BITMAP
3818
3828
3830
4850
4890
4890
8920
8B20
8E20
0C00
ENDCHAR
STARTCHAR 039D
ENCODING 9549
SWIDTH 1400 0
DWIDTH 14 0
BBX 10 10 2 0
BITMAP
3040
3040
2840
4880
4880
4480
4500
8500
8500
8200
ENDCHAR
STARTCHAR 039E
ENCODING 9550
SWIDTH 1400 0
DWIDTH 14 0
BBX 8 10 3 0
BITMAP
3F
00
00
00
3E
00
00
00
00
FC
ENDCHAR
STARTCHAR 039F
ENCODING 9551
SWIDTH 1400 0
DWIDTH 14 0
BBX 8 10 3 0
BITMAP
1E
21
41
81
81
81
81
82
82
7C
ENDCHAR
STARTCHAR 03A0
ENCODING 9552
SWIDTH 1400 0
DWIDTH 14 0
BBX 10 10 2 0
BITMAP
1FC0
2040
2080
2080
2080
4100
4100
4100
8100
8200
ENDCHAR
STARTCHAR 03A1
ENCODING 9553
SWIDTH 1400 0
DWIDTH 14 0
BBX 8 10 3 0
BITMAP
3E
21
21
41
41
7E
80
80
80
80
ENDCHAR
STARTCHAR 03A3
ENCODING 9554
SWIDTH 1400 0
DWIDTH 14 0
BBX 9 10 3 0
BITMAP
3F80
2000
1000
0800
0800
1000
2000
4000
8000
FC00
ENDCHAR
STARTCHAR 03A4
ENCODING 9555
SWIDTH 1400 0
DWIDTH 14 0
BBX 8 10 3 0
BITMAP
FF
10
10
10
20
20
20
20
40
40
ENDCHAR
STARTCHAR 03A5
ENCODING 9556
SWIDTH 1400 0
DWIDTH 14 0
BBX 8 10 3 0
BITMAP
81
82
44
48
48
30
20
20
40
40
ENDCHAR
STARTCHAR 03A6
ENCODING 9557
SWIDTH 1400 0
DWIDTH 14 0
BBX 10 10 2 0
BITMAP
0200
1F80
6480
4440
8440
8840
8880
8980
7E00
1000
ENDCHAR
STARTCHAR 03A7
ENCODING 9558
SWIDTH 1400 0
DWIDTH 14 0
BBX 10 10 2 0
BITMAP
2040
1080
1100
0A00
0C00
0C00
1400
2200
4200
8100
ENDCHAR
STARTCHAR 03A8
ENCODING 9559
SWIDTH 1400 0
DWIDTH 14 0
BBX 10 10 2 0
BITMAP
4440
8840
8880
8880
8880
9100
7E00
1000
2000
2000
ENDCHAR
STARTCHAR 03A9
ENCODING 9560
SWIDTH 1400 0
DWIDTH 14 0
BBX 10 10 2 0
BITMAP
0F80
10C0
2040
2040
2040
4080
2080
2100
1600
F700
ENDCHAR
STARTCHAR 03B1
ENCODING 9569
SWIDTH 1400 0
DWIDTH 14 0
BBX 7 7 3 0
BITMAP
18
26
42
42
84
84
7C
ENDCHAR
STARTCHAR 03B2
ENCODING 9570
SWIDTH 1400 0
DWIDTH 14 0
BBX 8 13 3 -3
BITMAP
0E
11
21
23
2C
22
42
42
42
6C
90
80
80
ENDCHAR
STARTCHAR 03B3
ENCODING 9571
SWIDTH 1400 0
DWIDTH 14 0
BBX 6 9 4 -2
BITMAP
84
88
90
90
A0
A0
40
C0
80
ENDCHAR
STARTCHAR 03B4
ENCODING 9572
SWIDTH 1400 0
DWIDTH 14 0
BBX 8 11 3 -1
BITMAP
1F
10
08
1C
64
42
82
84
84
58
20
ENDCHAR
STARTCHAR 03B5
ENCODING 9573
SWIDTH 1400 0
DWIDTH 14 0
BBX 6 7 4 0
BITMAP
3C
40
40
38
C0
80
F8
ENDCHAR
STARTCHAR 03B6
ENCODING 9574
SWIDTH 1400 0
DWIDTH 14 0
BBX 7 13 3 -3
BITMAP
1E
02
04
08
10
20
40
80
80
70
08
08
30
ENDCHAR
STARTCHAR 03B7
ENCODING 9575
SWIDTH 1400 0
DWIDTH 14 0
BBX 7 7 4 0
BITMAP
4C
72
44
84
84
84
08
ENDCHAR
STARTCHAR 03B8
ENCODING 9576
SWIDTH 1400 0
DWIDTH 14 0
BBX 7 10 3 0
BITMAP
1E
22
22
42
7E
42
42
84
44
78
ENDCHAR
STARTCHAR 03B9
ENCODING 9577
SWIDTH 1400 0
DWIDTH 14 0
BBX 2 7 6 0
BITMAP
40
40
40
80
80
80
80
ENDCHAR
STARTCHAR 03BA
ENCODING 9578
SWIDTH 1400 0
DWIDTH 14 0
BBX 7 7 3 0
BITMAP
22
24
38
50
50
48
84
ENDCHAR
STARTCHAR 03BB
ENCODING 9579
SWIDTH 1400 0
DWIDTH 14 0
BBX 6 10 4 0
BITMAP
08
08
08
08
18
18
24
44
44
84
ENDCHAR
STARTCHAR 03BC
ENCODING 9580
SWIDTH 1400 0
DWIDTH 14 0
BBX 8 10 3 -3
BITMAP
01
21
22
22
42
46
7A
80
80
80
ENDCHAR
STARTCHAR 03BD
ENCODING 9581
SWIDTH 1400 0
DWIDTH 14 0
BBX 6 7 4 0
BITMAP
84
88
88
90
A0
A0
40
ENDCHAR
STARTCHAR 03BE
ENCODING 9582
SWIDTH 1400 0
DWIDTH 14 0
BBX 8 13 3 -3
BITMAP
1F
08
10
10
0C
30
40
80
80
70
08
10
20
ENDCHAR
STARTCHAR 03BF
ENCODING 9583
SWIDTH 1400 0
DWIDTH 14 0
BBX 6 7 4 0
BITMAP
38
44
84
84
84
88
F0
ENDCHAR
STARTCHAR 03C0
ENCODING 9584
SWIDTH 1400 0
DWIDTH 14 0
BBX 6 7 4 0
BITMAP
7C
44
44
84
88
88
08
ENDCHAR
STARTCHAR 03C1
ENCODING 9585
SWIDTH 1400 0
DWIDTH 14 0
BBX 8 9 3 -3
BITMAP
1E
21
21
23
22
7E
48
40
80
ENDCHAR
STARTCHAR 03C3
ENCODING 9586
SWIDTH 1400 0
DWIDTH 14 0
BBX 8 8 3 -1
BITMAP
3F
24
42
82
84
84
58
20
ENDCHAR
STARTCHAR 03C4
ENCODING 9587
SWIDTH 1400 0
DWIDTH 14 0
BBX 6 7 4 0
BITMAP
FC
20
20
20
40
40
40
ENDCHAR
STARTCHAR 03C5
ENCODING 9588
SWIDTH 1400 0
DWIDTH 14 0
BBX 7 7 3 0
BITMAP
22
42
42
44
44
84
78
ENDCHAR
STARTCHAR 03C6
ENCODING 9589
SWIDTH 1400 0
DWIDTH 14 0
BBX 8 10 3 -3
BITMAP
2F
49
89
91
92
92
7C
20
20
20
ENDCHAR
STARTCHAR 03C7
ENCODING 9590
SWIDTH 1400 0
DWIDTH 14 0
BBX 6 7 4 0
BITMAP
44
28
30
10
30
48
88
ENDCHAR
STARTCHAR 03C8
ENCODING 9591
SWIDTH 1400 0
DWIDTH 14 0
BBX 9 10 2 -3
BITMAP
4480
4880
4880
8900
8900
9100
5600
3800
2000
2000
ENDCHAR
STARTCHAR 03C9
ENCODING 9592
SWIDTH 1400 0
DWIDTH 14 0
BBX 8 7 3 0
BITMAP
21
49
89
91
91
B2
6C
ENDCHAR
STARTCHAR 2500
ENCODING 9761
SWIDTH 1400 0
DWIDTH 14 0
BBX 14 1 0 4
BITMAP
FFFC
ENDCHAR
STARTCHAR 2502
ENCODING 9762
SWIDTH 1400 0
DWIDTH 14 0
BBX 1 14 7 -3
BITMAP
80
80
80
80
80
80
80
80
80
80
80
80
80
80
ENDCHAR
STARTCHAR 250C
ENCODING 9763
SWIDTH 1400 0
DWIDTH 14 0
BBX 8 8 3 -3
BITMAP
FF
80
80
80
80
80
80
80
ENDCHAR
STARTCHAR 2510
ENCODING 9764
SWIDTH 1400 0
DWIDTH 14 0
BBX 8 8 3 -3
BITMAP
FF
01
01
01
01
01
01
01
ENDCHAR
STARTCHAR 2518
ENCODING 9765
SWIDTH 1400 0
DWIDTH 14 0
BBX 8 7 3 4
BITMAP
01
01
01
01
01
01
FF
ENDCHAR
STARTCHAR 2514
ENCODING 9766
SWIDTH 1400 0
DWIDTH 14 0
BBX 8 7 3 4
BITMAP
80
80
80
80
80
80
FF
ENDCHAR
STARTCHAR 251C
ENCODING 9767
SWIDTH 1400 0
DWIDTH 14 0
BBX 8 14 3 -3
BITMAP
80
80
80
80
80
80
FF
80
80
80
80
80
80
80
ENDCHAR
STARTCHAR 252C
ENCODING 9768
SWIDTH 1400 0
DWIDTH 14 0
BBX 15 8 -1 -3
BITMAP
FFFE
0100
0100
0100
0100
0100
0100
0100
ENDCHAR
STARTCHAR 2524
ENCODING 9769
SWIDTH 1400 0
DWIDTH 14 0
BBX 8 14 3 -3
BITMAP
01
01
01
01
01
01
FF
01
01
01
01
01
01
01
ENDCHAR
STARTCHAR 2534
ENCODING 9770
SWIDTH 1400 0
DWIDTH 14 0
BBX 15 7 -1 4
BITMAP
0100
0100
0100
0100
0100
0100
FFFE
ENDCHAR
STARTCHAR 253C
ENCODING 9771
SWIDTH 1400 0
DWIDTH 14 0
BBX 15 14 -1 -3
BITMAP
0100
0100
0100
0100
0100
0100
FFFE
0100
0100
0100
0100
0100
0100
0100
ENDCHAR
STARTCHAR 2501
ENCODING 9772
SWIDTH 1400 0
DWIDTH 14 0
BBX 14 1 0 4
BITMAP
FFFC
ENDCHAR
STARTCHAR 2503
ENCODING 9773
SWIDTH 1400 0
DWIDTH 14 0
BBX 1 14 7 -3
BITMAP
80
80
80
80
80
80
80
80
80
80
80
80
80
80
ENDCHAR
STARTCHAR 250F
ENCODING 9774
SWIDTH 1400 0
DWIDTH 14 0
BBX 8 8 3 -3
BITMAP
FF
80
80
80
80
80
80
80
ENDCHAR
STARTCHAR 2513
ENCODING 9775
SWIDTH 1400 0
DWIDTH 14 0
BBX 8 8 3 -3
BITMAP
FF
01
01
01
01
01
01
01
ENDCHAR
STARTCHAR 251B
ENCODING 9776
SWIDTH 1400 0
DWIDTH 14 0
BBX 8 7 3 4
BITMAP
01
01
01
01
01
01
FF
ENDCHAR
STARTCHAR 2517
ENCODING 9777
SWIDTH 1400 0
DWIDTH 14 0
BBX 8 7 3 4
BITMAP
80
80
80
80
80
80
FF
ENDCHAR
STARTCHAR 2523
ENCODING 9778
SWIDTH 1400 0
DWIDTH 14 0
BBX 8 14 3 -3
BITMAP
80
80
80
80
80
80
FF
80
80
80
80
80
80
80
ENDCHAR
STARTCHAR 2533
ENCODING 9779
SWIDTH 1400 0
DWIDTH 14 0
BBX 15 8 0 -3
BITMAP
FFFE
0100
0100
0100
0100
0100
0100
0100
ENDCHAR
STARTCHAR 252B
ENCODING 9780
SWIDTH 1400 0
DWIDTH 14 0
BBX 8 14 3 -3
BITMAP
01
01
01
01
01
01
FF
01
01
01
01
01
01
01
ENDCHAR
STARTCHAR 253B
ENCODING 9781
SWIDTH 1400 0
DWIDTH 14 0
BBX 15 7 0 4
BITMAP
0100
0100
0100
0100
0100
0100
FFFE
ENDCHAR
STARTCHAR 254B
ENCODING 9782
SWIDTH 1400 0
DWIDTH 14 0
BBX 15 14 0 -3
BITMAP
0100
0100
0100
0100
0100
0100
FFFE
0100
0100
0100
0100
0100
0100
0100
ENDCHAR
STARTCHAR 2520
ENCODING 9783
SWIDTH 1400 0
DWIDTH 14 0
BBX 8 14 3 -3
BITMAP
80
80
80
80
80
80
FF
80
80
80
80
80
80
80
ENDCHAR
STARTCHAR 252F
ENCODING 9784
SWIDTH 1400 0
DWIDTH 14 0
BBX 15 8 -1 -3
BITMAP
FFFE
0100
0100
0100
0100
0100
0100
0100
ENDCHAR
STARTCHAR 2528
ENCODING 9785
SWIDTH 1400 0
DWIDTH 14 0
BBX 8 14 3 -3
BITMAP
01
01
01
01
01
01
FF
01
01
01
01
01
01
01
ENDCHAR
STARTCHAR 2537
ENCODING 9786
SWIDTH 1400 0
DWIDTH 14 0
BBX 15 7 -1 4
BITMAP
0100
0100
0100
0100
0100
0100
FFFE
ENDCHAR
STARTCHAR 253F
ENCODING 9787
SWIDTH 1400 0
DWIDTH 14 0
BBX 15 14 -1 -3
BITMAP
0100
0100
0100
0100
0100
0100
FFFE
0100
0100
0100
0100
0100
0100
0100
ENDCHAR
STARTCHAR 251D
ENCODING 9788
SWIDTH 1400 0
DWIDTH 14 0
BBX 8 14 3 -3
BITMAP
80
80
80
80
80
80
FF
80
80
80
80
80
80
80
ENDCHAR
STARTCHAR 2530
ENCODING 9789
SWIDTH 1400 0
DWIDTH 14 0
BBX 15 8 0 -3
BITMAP
FFFE
0100
0100
0100
0100
0100
0100
0100
ENDCHAR
STARTCHAR 2525
ENCODING 9790
SWIDTH 1400 0
DWIDTH 14 0
BBX 8 14 3 -3
BITMAP
01
01
01
01
01
01
FF
01
01
01
01
01
01
01
ENDCHAR
STARTCHAR 2538
ENCODING 9791
SWIDTH 1400 0
DWIDTH 14 0
BBX 15 7 0 4
BITMAP
0100
0100
0100
0100
0100
0100
FFFE
ENDCHAR
STARTCHAR 2542
ENCODING 9792
SWIDTH 1400 0
DWIDTH 14 0
BBX 15 14 0 -3
BITMAP
0100
0100
0100
0100
0100
0100
FFFE
0100
0100
0100
0100
0100
0100
0100
ENDCHAR
STARTCHAR 2512
ENCODING 9793
SWIDTH 1400 0
DWIDTH 14 0
BBX 8 8 3 -3
BITMAP
FF
01
01
01
01
01
01
01
ENDCHAR
STARTCHAR 2511
ENCODING 9794
SWIDTH 1400 0
DWIDTH 14 0
BBX 8 8 3 -3
BITMAP
FF
01
01
01
01
01
01
01
ENDCHAR
STARTCHAR 251A
ENCODING 9795
SWIDTH 1400 0
DWIDTH 14 0
BBX 8 7 3 4
BITMAP
01
01
01
01
01
01
FF
ENDCHAR
STARTCHAR 2519
ENCODING 9796
SWIDTH 1400 0
DWIDTH 14 0
BBX 8 7 3 4
BITMAP
01
01
01
01
01
01
FF
ENDCHAR
STARTCHAR 2516
ENCODING 9797
SWIDTH 1400 0
DWIDTH 14 0
BBX 8 7 3 4
BITMAP
80
80
80
80
80
80
FF
ENDCHAR
STARTCHAR 2515
ENCODING 9798
SWIDTH 1400 0
DWIDTH 14 0
BBX 8 7 3 4
BITMAP
80
80
80
80
80
80
FF
ENDCHAR
STARTCHAR 250E
ENCODING 9799
SWIDTH 1400 0
DWIDTH 14 0
BBX 8 8 3 -3
BITMAP
FF
80
80
80
80
80
80
80
ENDCHAR
STARTCHAR 250D
ENCODING 9800
SWIDTH 1400 0
DWIDTH 14 0
BBX 8 8 3 -3
BITMAP
FF
80
80
80
80
80
80
80
ENDCHAR
STARTCHAR 251E
ENCODING 9801
SWIDTH 1400 0
DWIDTH 14 0
BBX 8 14 3 -3
BITMAP
80
80
80
80
80
80
FF
80
80
80
80
80
80
80
ENDCHAR
STARTCHAR 251F
ENCODING 9802
SWIDTH 1400 0
DWIDTH 14 0
BBX 8 14 3 -3
BITMAP
80
80
80
80
80
80
FF
80
80
80
80
80
80
80
ENDCHAR
STARTCHAR 2521
ENCODING 9803
SWIDTH 1400 0
DWIDTH 14 0
BBX 8 14 3 -3
BITMAP
80
80
80
80
80
80
FF
80
80
80
80
80
80
80
ENDCHAR
STARTCHAR 2522
ENCODING 9804
SWIDTH 1400 0
DWIDTH 14 0
BBX 8 14 3 -3
BITMAP
80
80
80
80
80
80
FF
80
80
80
80
80
80
80
ENDCHAR
STARTCHAR 2526
ENCODING 9805
SWIDTH 1400 0
DWIDTH 14 0
BBX 8 14 3 -3
BITMAP
01
01
01
01
01
01
FF
01
01
01
01
01
01
01
ENDCHAR
STARTCHAR 2527
ENCODING 9806
SWIDTH 1400 0
DWIDTH 14 0
BBX 8 14 3 -3
BITMAP
01
01
01
01
01
01
FF
01
01
01
01
01
01
01
ENDCHAR
STARTCHAR 2529
ENCODING 9807
SWIDTH 1400 0
DWIDTH 14 0
BBX 8 14 3 -3
BITMAP
01
01
01
01
01
01
FF
01
01
01
01
01
01
01
ENDCHAR
STARTCHAR 252A
ENCODING 9808
SWIDTH 1400 0
DWIDTH 14 0
BBX 8 14 3 -3
BITMAP
01
01
01
01
01
01
FF
01
01
01
01
01
01
01
ENDCHAR
STARTCHAR 252D
ENCODING 9809
SWIDTH 1400 0
DWIDTH 14 0
BBX 15 8 -1 -3
BITMAP
FFFE
0100
0100
0100
0100
0100
0100
0100
ENDCHAR
STARTCHAR 252E
ENCODING 9810
SWIDTH 1400 0
DWIDTH 14 0
BBX 15 8 -1 -3
BITMAP
FFFE
0100
0100
0100
0100
0100
0100
0100
ENDCHAR
STARTCHAR 2531
ENCODING 9811
SWIDTH 1400 0
DWIDTH 14 0
BBX 15 8 0 -3
BITMAP
FFFE
0100
0100
0100
0100
0100
0100
0100
ENDCHAR
STARTCHAR 2532
ENCODING 9812
SWIDTH 1400 0
DWIDTH 14 0
BBX 15 8 0 -3
BITMAP
FFFE
0100
0100
0100
0100
0100
0100
0100
ENDCHAR
STARTCHAR 2535
ENCODING 9813
SWIDTH 1400 0
DWIDTH 14 0
BBX 15 7 -1 4
BITMAP
0100
0100
0100
0100
0100
0100
FFFE
ENDCHAR
STARTCHAR 2536
ENCODING 9814
SWIDTH 1400 0
DWIDTH 14 0
BBX 15 7 -1 4
BITMAP
0100
0100
0100
0100
0100
0100
FFFE
ENDCHAR
STARTCHAR 2539
ENCODING 9815
SWIDTH 1400 0
DWIDTH 14 0
BBX 15 7 0 4
BITMAP
0100
0100
0100
0100
0100
0100
FFFE
ENDCHAR
STARTCHAR 253A
ENCODING 9816
SWIDTH 1400 0
DWIDTH 14 0
BBX 15 7 0 4
BITMAP
0100
0100
0100
0100
0100
0100
FFFE
ENDCHAR
STARTCHAR 253D
ENCODING 9817
SWIDTH 1400 0
DWIDTH 14 0
BBX 15 14 -1 -3
BITMAP
0100
0100
0100
0100
0100
0100
FFFE
0100
0100
0100
0100
0100
0100
0100
ENDCHAR
STARTCHAR 253E
ENCODING 9818
SWIDTH 1400 0
DWIDTH 14 0
BBX 15 14 -1 -3
BITMAP
0100
0100
0100
0100
0100
0100
FFFE
0100
0100
0100
0100
0100
0100
0100
ENDCHAR
STARTCHAR 2540
ENCODING 9819
SWIDTH 1400 0
DWIDTH 14 0
BBX 15 14 0 -3
BITMAP
0100
0100
0100
0100
0100
0100
FFFE
0200
0200
0200
0200
0200
0200
0200
ENDCHAR
STARTCHAR 2541
ENCODING 9820
SWIDTH 1400 0
DWIDTH 14 0
BBX 15 14 0 -3
BITMAP
0200
0200
0200
0200
0200
0200
FFFE
0100
0100
0100
0100
0100
0100
0100
ENDCHAR
STARTCHAR 2543
ENCODING 9821
SWIDTH 1400 0
DWIDTH 14 0
BBX 15 14 -1 -3
BITMAP
0100
0100
0100
0100
0100
0100
FFFE
0100
0100
0100
0100
0100
0100
0100
ENDCHAR
STARTCHAR 2544
ENCODING 9822
SWIDTH 1400 0
DWIDTH 14 0
BBX 15 14 0 -3
BITMAP
0100
0100
0100
0100
0100
0100
FFFE
0200
0200
0200
0200
0200
0200
0200
ENDCHAR
STARTCHAR 2545
ENCODING 9823
SWIDTH 1400 0
DWIDTH 14 0
BBX 15 14 0 -3
BITMAP
0200
0200
0200
0200
0200
0200
FFFE
0100
0100
0100
0100
0100
0100
0100
ENDCHAR
STARTCHAR 2546
ENCODING 9824
SWIDTH 1400 0
DWIDTH 14 0
BBX 15 14 0 -3
BITMAP
0200
0200
0200
0200
0200
0200
FFFE
0100
0100
0100
0100
0100
0100
0100
ENDCHAR
STARTCHAR 2547
ENCODING 9825
SWIDTH 1400 0
DWIDTH 14 0
BBX 15 14 0 -3
BITMAP
0100
0100
0100
0100
0100
0100
FFFE
0100
0100
0100
0100
0100
0100
0100
ENDCHAR
STARTCHAR 2548
ENCODING 9826
SWIDTH 1400 0
DWIDTH 14 0
BBX 15 14 0 -3
BITMAP
0200
0200
0200
0200
0200
0200
FFFE
0100
0100
0100
0100
0100
0100
0100
ENDCHAR
STARTCHAR 2549
ENCODING 9827
SWIDTH 1400 0
DWIDTH 14 0
BBX 15 14 -1 -3
BITMAP
0100
0100
0100
0100
0100
0100
FFFE
0100
0100
0100
0100
0100
0100
0100
ENDCHAR
STARTCHAR 254A
ENCODING 9828
SWIDTH 1400 0
DWIDTH 14 0
BBX 15 14 0 -3
BITMAP
0100
0100
0100
0100
0100
0100
FFFE
0100
0100
0100
0100
0100
0100
0100
ENDCHAR
STARTCHAR 3395
ENCODING 10017
SWIDTH 1400 0
DWIDTH 14 0
BBX 14 13 0 -3
BITMAP
0038
0028
0048
1048
1148
2150
2250
2260
2244
6628
5810
8000
8000
ENDCHAR
STARTCHAR 3396
ENCODING 10018
SWIDTH 1400 0
DWIDTH 14 0
BBX 12 11 1 -1
BITMAP
0060
00A0
0120
FD20
A520
A520
A540
A480
A590
A4A0
0040
ENDCHAR
STARTCHAR 3397
ENCODING 10019
SWIDTH 1400 0
DWIDTH 14 0
BBX 12 11 1 -1
BITMAP
0460
0450
0490
7C90
84A0
84A0
84C0
84C0
8480
7C50
0020
ENDCHAR
STARTCHAR 2113
ENCODING 10020
SWIDTH 1400 0
DWIDTH 14 0
BBX 5 10 5 0
BITMAP
70
50
90
90
90
A0
A0
C0
88
70
ENDCHAR
STARTCHAR 3398
ENCODING 10021
SWIDTH 1400 0
DWIDTH 14 0
BBX 11 11 1 -1
BITMAP
80C0
80A0
8120
8920
9140
A140
E180
9180
8900
80A0
0040
ENDCHAR
STARTCHAR 33C4
ENCODING 10022
SWIDTH 1400 0
DWIDTH 14 0
BBX 13 8 0 -1
BITMAP
3870
4488
4100
8100
8100
4488
2C70
1000
ENDCHAR
STARTCHAR 33A3
ENCODING 10023
SWIDTH 1400 0
DWIDTH 14 0
BBX 13 11 0 -1
BITMAP
0008
0008
0008
01D0
FD28
A548
A548
A548
A548
8548
0108
ENDCHAR
STARTCHAR 33A4
ENCODING 10024
SWIDTH 1400 0
DWIDTH 14 0
BBX 14 10 0 0
BITMAP
0004
0004
0004
79D8
8568
8148
8148
8548
8548
7948
ENDCHAR
STARTCHAR 33A5
ENCODING 10025
SWIDTH 1400 0
DWIDTH 14 0
BBX 11 10 1 0
BITMAP
0060
0020
0060
BB80
C440
8440
8440
8440
8440
8440
ENDCHAR
STARTCHAR 33A6
ENCODING 10026
SWIDTH 1400 0
DWIDTH 14 0
BBX 13 11 0 -1
BITMAP
8018
8008
8008
8BB8
9248
A248
E248
9248
8A48
8248
0248
ENDCHAR
STARTCHAR 3399
ENCODING 10027
SWIDTH 1400 0
DWIDTH 14 0
BBX 10 11 2 -1
BITMAP
6000
4000
4000
E6C0
4940
4940
4940
4940
4940
4940
0140
ENDCHAR
STARTCHAR 339A
ENCODING 10028
SWIDTH 1400 0
DWIDTH 14 0
BBX 12 7 1 0
BITMAP
FBB0
8A50
8A50
8A50
8A50
8A50
8A50
ENDCHAR
STARTCHAR 339B
ENCODING 10029
SWIDTH 1400 0
DWIDTH 14 0
BBX 14 10 0 -3
BITMAP
10FC
12A4
22A4
24A4
24A4
44A4
4CA4
7000
8000
8000
ENDCHAR
STARTCHAR 339C
ENCODING 10030
SWIDTH 1400 0
DWIDTH 14 0
BBX 12 7 1 0
BITMAP
F9F0
A550
A550
A550
A550
A550
8550
ENDCHAR
STARTCHAR 339D
ENCODING 10031
SWIDTH 1400 0
DWIDTH 14 0
BBX 13 7 0 0
BITMAP
39D8
4528
4128
8128
8128
4528
3928
ENDCHAR
STARTCHAR 339E
ENCODING 10032
SWIDTH 1400 0
DWIDTH 14 0
BBX 12 10 1 0
BITMAP
8000
8000
8000
8BF0
9290
A290
E290
9290
8A90
8290
ENDCHAR
STARTCHAR 339F
ENCODING 10033
SWIDTH 1400 0
DWIDTH 14 0
BBX 13 11 0 0
BITMAP
0008
0008
0000
0008
F9F0
A548
A548
A548
A548
A548
8508
ENDCHAR
STARTCHAR 33A0
ENCODING 10034
SWIDTH 1400 0
DWIDTH 14 0
BBX 13 11 0 0
BITMAP
0008
0008
0000
0008
3850
45E8
8148
8148
8148
8548
7948
ENDCHAR
STARTCHAR 33A1
ENCODING 10035
SWIDTH 1400 0
DWIDTH 14 0
BBX 11 10 1 0
BITMAP
0020
0040
0000
BB80
C440
8440
8440
8440
8440
8440
ENDCHAR
STARTCHAR 33A2
ENCODING 10036
SWIDTH 1400 0
DWIDTH 14 0
BBX 13 11 0 0
BITMAP
0008
8008
8010
8000
8BB0
9250
A250
E250
9250
8A50
8250
ENDCHAR
STARTCHAR 33CA
ENCODING 10037
SWIDTH 1400 0
DWIDTH 14 0
BBX 12 10 1 0
BITMAP
8000
8000
8000
F9C0
8A20
8860
89A0
8A20
8A20
89D0
ENDCHAR
STARTCHAR 338D
ENCODING 10038
SWIDTH 1400 0
DWIDTH 14 0
BBX 14 11 0 -3
BITMAP
1000
127C
2488
2488
2490
44E0
2CC0
7538
4104
8088
0070
ENDCHAR
STARTCHAR 338E
ENCODING 10039
SWIDTH 1400 0
DWIDTH 14 0
BBX 14 10 0 -3
BITMAP
FE04
92F8
9288
9288
9270
9280
92F8
930C
010C
00F8
ENDCHAR
STARTCHAR 338F
ENCODING 10040
SWIDTH 1400 0
DWIDTH 14 0
BBX 12 13 1 -3
BITMAP
8000
8000
8000
89F0
9220
A220
E240
9380
8A00
87E0
0410
0220
01C0
ENDCHAR
STARTCHAR 33CF
ENCODING 10041
SWIDTH 1400 0
DWIDTH 14 0
BBX 9 10 2 0
BITMAP
8000
8100
8100
8B80
9100
A100
E100
9100
8900
8500
ENDCHAR
STARTCHAR 3388
ENCODING 10042
SWIDTH 1400 0
DWIDTH 14 0
BBX 14 11 0 -1
BITMAP
0004
0004
0004
10C4
6924
4424
80E4
8324
8624
4964
3090
ENDCHAR
STARTCHAR 3389
ENCODING 10043
SWIDTH 1400 0
DWIDTH 14 0
BBX 12 11 1 -1
BITMAP
8010
8010
8010
8CD0
B130
D030
F0F0
B130
9130
95F0
0800
ENDCHAR
STARTCHAR 33C8
ENCODING 10044
SWIDTH 1400 0
DWIDTH 14 0
BBX 14 11 0 -1
BITMAP
04F8
0508
0508
7D08
4510
84E8
8484
8484
448C
2CF8
1000
ENDCHAR
STARTCHAR 33A7
ENCODING 10045
SWIDTH 1400 0
DWIDTH 14 0
BBX 14 12 0 -2
BITMAP
FF00
9100
9108
9130
8140
0080
0178
0240
0420
0818
3044
0038
ENDCHAR
STARTCHAR 33A8
ENCODING 10046
SWIDTH 1400 0
DWIDTH 14 0
BBX 14 13 0 -2
BITMAP
3600
C900
9100
9108
9130
8144
0088
0178
0280
0440
0830
1010
0070
ENDCHAR
STARTCHAR 33B0
ENCODING 10047
SWIDTH 1400 0
DWIDTH 14 0
BBX 12 10 1 -2
BITMAP
3000
D9E0
8A10
8500
84E0
8810
8810
F1A0
8040
8000
ENDCHAR
STARTCHAR 33B1
ENCODING 10048
SWIDTH 1400 0
DWIDTH 14 0
BBX 12 7 1 0
BITMAP
B1E0
CA00
8900
88E0
8820
8A10
89E0
ENDCHAR
STARTCHAR 33B2
ENCODING 10049
SWIDTH 1400 0
DWIDTH 14 0
BBX 14 10 0 -3
BITMAP
1178
2184
2240
2230
420C
4204
4C68
7010
8000
8000
ENDCHAR
STARTCHAR 33B3
ENCODING 10050
SWIDTH 1400 0
DWIDTH 14 0
BBX 12 7 1 0
BITMAP
FDE0
A510
A500
A4E0
A410
A510
A4E0
ENDCHAR
STARTCHAR 33B4
ENCODING 10051
SWIDTH 1400 0
DWIDTH 14 0
BBX 12 12 1 -2
BITMAP
0010
0210
2220
FA20
8A20
8540
8540
8940
8980
D080
A000
8000
ENDCHAR
STARTCHAR 33B5
ENCODING 10052
SWIDTH 1400 0
DWIDTH 14 0
BBX 12 10 1 0
BITMAP
0410
0420
0220
F220
8A40
8A40
8940
8980
8980
8880
ENDCHAR
STARTCHAR 33B6
ENCODING 10053
SWIDTH 1400 0
DWIDTH 14 0
BBX 14 13 0 -3
BITMAP
0084
0088
0088
1148
1148
2150
2250
2230
4230
6620
5800
8000
8000
ENDCHAR
STARTCHAR 33B7
ENCODING 10054
SWIDTH 1400 0
DWIDTH 14 0
BBX 13 10 0 0
BITMAP
0100
0108
0108
FF10
9290
9290
92A0
9260
9260
9260
ENDCHAR
STARTCHAR 33B8
ENCODING 10055
SWIDTH 1400 0
DWIDTH 14 0
BBX 12 10 1 0
BITMAP
8010
8210
8220
8A20
9220
A140
E140
9140
8980
8080
ENDCHAR
STARTCHAR 33B9
ENCODING 10056
SWIDTH 1400 0
DWIDTH 14 0
BBX 13 10 0 0
BITMAP
8280
8288
C688
CA88
CA50
AA50
AA50
B250
B260
9220
ENDCHAR
STARTCHAR 3380
ENCODING 10057
SWIDTH 1400 0
DWIDTH 14 0
BBX 12 12 1 -2
BITMAP
0080
00C0
3140
D940
8540
8520
85E0
8620
8A20
F210
8000
8000
ENDCHAR
STARTCHAR 3381
ENCODING 10058
SWIDTH 1400 0
DWIDTH 14 0
BBX 12 10 1 0
BITMAP
0080
00C0
0140
F140
8940
8920
89E0
8A20
8A10
8A10
ENDCHAR
STARTCHAR 3382
ENCODING 10059
SWIDTH 1400 0
DWIDTH 14 0
BBX 12 13 1 -3
BITMAP
0040
00C0
00C0
0340
2520
2520
45E0
4520
4A10
4A10
B000
8000
8000
ENDCHAR
STARTCHAR 3383
ENCODING 10060
SWIDTH 1400 0
DWIDTH 14 0
BBX 13 10 0 0
BITMAP
0020
0060
0060
FE50
9250
9290
92F0
9288
9288
9208
ENDCHAR
STARTCHAR 3384
ENCODING 10061
SWIDTH 1400 0
DWIDTH 14 0
BBX 12 10 1 0
BITMAP
8080
80C0
8140
8940
9140
A120
E1E0
9220
8A20
8210
ENDCHAR
STARTCHAR 33BA
ENCODING 10062
SWIDTH 1400 0
DWIDTH 14 0
BBX 13 12 0 -2
BITMAP
0240
0248
0268
12A8
6DA8
85A8
85B0
85B0
4490
6C90
9000
8000
ENDCHAR
STARTCHAR 33BB
ENCODING 10063
SWIDTH 1400 0
DWIDTH 14 0
BBX 12 10 1 0
BITMAP
0490
0490
0590
B590
CD60
8D60
8B60
8B20
8A20
8820
ENDCHAR
STARTCHAR 33BC
ENCODING 10064
SWIDTH 1400 0
DWIDTH 14 0
BBX 14 13 0 -3
BITMAP
0024
0224
0128
0168
0168
2568
2598
4598
4890
4880
7000
8000
8000
ENDCHAR
STARTCHAR 33BD
ENCODING 10065
SWIDTH 1400 0
DWIDTH 14 0
BBX 13 11 0 -1
BITMAP
0200
0248
0268
ED68
95A8
95A8
95A8
9590
9490
9490
8000
ENDCHAR
STARTCHAR 33BE
ENCODING 10066
SWIDTH 1400 0
DWIDTH 14 0
BBX 13 10 0 0
BITMAP
8240
8248
8248
8AA8
92A8
A1B0
E1B0
91B0
8890
8010
ENDCHAR
STARTCHAR 33BF
ENCODING 10067
SWIDTH 1400 0
DWIDTH 14 0
BBX 13 10 0 0
BITMAP
8600
8648
CE68
CE68
D5A8
D5A8
D5A8
B4B0
B490
9490
ENDCHAR
STARTCHAR 3390
ENCODING 10068
SWIDTH 1400 0
DWIDTH 14 0
BBX 13 10 0 0
BITMAP
8200
8200
8200
82F8
FE10
8210
8220
8240
8280
82F8
ENDCHAR
STARTCHAR 3391
ENCODING 10069
SWIDTH 1400 0
DWIDTH 14 0
BBX 14 10 0 0
BITMAP
8480
8480
8480
94F8
A788
C490
E490
A4A0
A4C0
94FC
ENDCHAR
STARTCHAR 3392
ENCODING 10070
SWIDTH 1400 0
DWIDTH 14 0
BBX 14 10 0 0
BITMAP
8A40
8A40
8A40
DA78
DBC8
EA50
EA50
EA50
EA60
AA7C
ENDCHAR
STARTCHAR 3393
ENCODING 10071
SWIDTH 1400 0
DWIDTH 14 0
BBX 14 11 0 -1
BITMAP
3240
5240
8A40
8278
83C8
9A50
8A50
8A60
8A60
5A7C
2000
ENDCHAR
STARTCHAR 3394
ENCODING 10072
SWIDTH 1400 0
DWIDTH 14 0
BBX 14 10 0 0
BITMAP
FC80
2480
2480
24BC
2788
2490
2490
24A0
24A0
24FC
ENDCHAR
STARTCHAR 2126
ENCODING 10073
SWIDTH 1400 0
DWIDTH 14 0
BBX 8 10 3 0
BITMAP
3C
42
81
81
81
81
42
3C
18
FF
ENDCHAR
STARTCHAR 33C0
ENCODING 10074
SWIDTH 1400 0
DWIDTH 14 0
BBX 14 10 0 0
BITMAP
80F0
8098
8108
8908
9108
A108
E088
9050
8850
81DC
ENDCHAR
STARTCHAR 33C1
ENCODING 10075
SWIDTH 1400 0
DWIDTH 14 0
BBX 14 10 0 0
BITMAP
84F0
8498
C508
CD08
D508
D508
D488
B450
B450
95DC
ENDCHAR
STARTCHAR 338A
ENCODING 10076
SWIDTH 1400 0
DWIDTH 14 0
BBX 12 12 1 -2
BITMAP
01F0
0100
3100
E900
85F0
8500
8500
8500
8900
F100
8000
8000
ENDCHAR
STARTCHAR 338B
ENCODING 10077
SWIDTH 1400 0
DWIDTH 14 0
BBX 12 10 1 0
BITMAP
01F0
0100
0100
F900
89F0
8900
8900
8900
8900
8900
ENDCHAR
STARTCHAR 338C
ENCODING 10078
SWIDTH 1400 0
DWIDTH 14 0
BBX 14 13 0 -3
BITMAP
007C
0040
0040
1140
117C
2140
2240
2240
4240
6640
5800
8000
8000
ENDCHAR
STARTCHAR 33D6
ENCODING 10079
SWIDTH 1400 0
DWIDTH 14 0
BBX 12 10 1 0
BITMAP
0010
0010
0010
ED90
B650
A650
A650
A650
A650
A590
ENDCHAR
STARTCHAR 33C5
ENCODING 10080
SWIDTH 1400 0
DWIDTH 14 0
BBX 12 11 1 -1
BITMAP
0010
0010
0010
79F0
8210
8210
8210
8210
8610
4970
3080
ENDCHAR
STARTCHAR 33AD
ENCODING 10081
SWIDTH 1400 0
DWIDTH 14 0
BBX 12 11 1 -1
BITMAP
0010
0010
0010
EE70
8290
8290
8E90
9290
9290
8DB0
0040
ENDCHAR
STARTCHAR 33AE
ENCODING 10082
SWIDTH 1400 0
DWIDTH 14 0
BBX 12 12 1 -2
BITMAP
0100
3100
F700
9500
B500
BD20
02C0
0300
04F0
1840
2030
0050
ENDCHAR
STARTCHAR 33AF
ENCODING 10083
SWIDTH 1400 0
DWIDTH 14 0
BBX 13 12 0 -2
BITMAP
0080
3880
CB80
9A80
AA88
92B8
0148
01A0
0240
0C30
1008
0030
ENDCHAR
STARTCHAR 33DB
ENCODING 10084
SWIDTH 1400 0
DWIDTH 14 0
BBX 10 7 2 0
BITMAP
7940
8180
4100
3900
0500
8500
7900
ENDCHAR
STARTCHAR 33A9
ENCODING 10085
SWIDTH 1400 0
DWIDTH 14 0
BBX 12 9 1 0
BITMAP
F800
8400
85E0
8C20
F820
81E0
8220
8220
81D0
ENDCHAR
STARTCHAR 33AA
ENCODING 10086
SWIDTH 1400 0
DWIDTH 14 0
BBX 14 10 0 0
BITMAP
8C00
8B80
8880
98F0
A9C8
AF08
E878
A848
A848
987C
ENDCHAR
STARTCHAR 33AB
ENCODING 10087
SWIDTH 1400 0
DWIDTH 14 0
BBX 14 10 0 0
BITMAP
8B80
8A40
8A40
DA78
DA68
EB88
EA18
EA28
EA28
AA34
ENDCHAR
STARTCHAR 33AC
ENCODING 10088
SWIDTH 1400 0
DWIDTH 14 0
BBX 14 11 0 -1
BITMAP
7600
5580
8440
8478
84E8
9F88
8C38
8C28
8C28
5C34
2000
ENDCHAR
STARTCHAR 33DD
ENCODING 10089
SWIDTH 1400 0
DWIDTH 14 0
BBX 14 10 0 0
BITMAP
9080
9280
9A80
9AF8
6A84
6A84
6C84
2C84
2484
24D8
ENDCHAR
STARTCHAR 33D0
ENCODING 10090
SWIDTH 1400 0
DWIDTH 14 0
BBX 8 10 3 0
BITMAP
80
80
80
BB
A5
A5
A5
A5
A5
A5
ENDCHAR
STARTCHAR 33D3
ENCODING 10091
SWIDTH 1400 0
DWIDTH 14 0
BBX 8 10 3 0
BITMAP
80
80
80
A0
92
8C
88
8C
92
A1
ENDCHAR
STARTCHAR 33C3
ENCODING 10092
SWIDTH 1400 0
DWIDTH 14 0
BBX 12 12 1 -2
BITMAP
F000
8800
8800
89D0
F930
8A10
8A10
8610
8610
F970
0090
0010
ENDCHAR
STARTCHAR 33C9
ENCODING 10093
SWIDTH 1400 0
DWIDTH 14 0
BBX 12 13 1 -3
BITMAP
3800
C800
8400
8110
8110
8D20
84A0
84A0
84C0
4C40
3080
0080
0100
ENDCHAR
STARTCHAR 33DC
ENCODING 10094
SWIDTH 1400 0
DWIDTH 14 0
BBX 12 10 1 0
BITMAP
7800
8400
8000
8010
7110
0D20
0520
04A0
84C0
6840
ENDCHAR
STARTCHAR 33C6
ENCODING 10095
SWIDTH 1400 0
DWIDTH 14 0
BBX 14 14 0 -3
BITMAP
E000
8200
8400
8400
8800
AA00
4A00
121C
13A8
2328
22D0
4278
4048
4030
ENDCHAR
STARTCHAR 00C6
ENCODING 10273
SWIDTH 1400 0
DWIDTH 14 0
BBX 13 10 1 0
BITMAP
07F8
0600
0A00
1200
13F0
2200
3E00
4200
8200
83F8
ENDCHAR
STARTCHAR 00D0
ENCODING 10274
SWIDTH 1400 0
DWIDTH 14 0
BBX 10 9 2 0
BITMAP
3F80
2080
2040
2040
F840
2040
2040
2080
2100
ENDCHAR
STARTCHAR 00AA
ENCODING 10275
SWIDTH 1400 0
DWIDTH 14 0
BBX 6 9 4 0
BITMAP
78
88
08
78
88
88
94
60
FC
ENDCHAR
STARTCHAR 0126
ENCODING 10276
SWIDTH 1400 0
DWIDTH 14 0
BBX 12 10 1 0
BITMAP
2040
FFF0
2040
2040
3FC0
2040
2040
2040
2040
2040
ENDCHAR
STARTCHAR 0132
ENCODING 10278
SWIDTH 1400 0
DWIDTH 14 0
BBX 8 10 3 0
BITMAP
81
81
81
81
81
81
81
81
91
8E
ENDCHAR
STARTCHAR 013F
ENCODING 10280
SWIDTH 1400 0
DWIDTH 14 0
BBX 6 10 4 0
BITMAP
80
80
80
80
98
98
80
80
80
FC
ENDCHAR
STARTCHAR 0141
ENCODING 10281
SWIDTH 1400 0
DWIDTH 14 0
BBX 8 10 3 0
BITMAP
20
20
28
30
20
60
60
A0
20
3F
ENDCHAR
STARTCHAR 00D8
ENCODING 10282
SWIDTH 1400 0
DWIDTH 14 0
BBX 10 11 2 -1
BITMAP
1E40
2180
4180
4280
8440
8840
5080
6080
6080
7300
8C00
ENDCHAR
STARTCHAR 0152
ENCODING 10283
SWIDTH 1400 0
DWIDTH 14 0
BBX 14 10 0 0
BITMAP
3FFC
4100
4100
8100
81F8
8100
8100
4100
4100
37FC
ENDCHAR
STARTCHAR 00BA
ENCODING 10284
SWIDTH 1400 0
DWIDTH 14 0
BBX 6 9 4 0
BITMAP
78
48
84
84
84
84
48
78
FC
ENDCHAR
STARTCHAR 00DE
ENCODING 10285
SWIDTH 1400 0
DWIDTH 14 0
BBX 6 10 4 0
BITMAP
80
80
F8
84
84
84
84
F8
80
80
ENDCHAR
STARTCHAR 0166
ENCODING 10286
SWIDTH 1400 0
DWIDTH 14 0
BBX 7 10 3 0
BITMAP
FE
10
10
10
10
7C
10
10
10
10
ENDCHAR
STARTCHAR 014A
ENCODING 10287
SWIDTH 1400 0
DWIDTH 14 0
BBX 7 10 4 0
BITMAP
BC
C2
82
82
82
82
82
82
82
0C
ENDCHAR
STARTCHAR 3260
ENCODING 10289
SWIDTH 1400 0
DWIDTH 14 0
BBX 13 12 0 -2
BITMAP
1FC0
2020
4010
9FE8
8028
8028
8028
8028
8028
4010
2020
1840
ENDCHAR
STARTCHAR 3261
ENCODING 10290
SWIDTH 1400 0
DWIDTH 14 0
BBX 13 12 0 -2
BITMAP
1FC0
2020
4010
9008
9008
9008
9008
9008
9FE8
4010
2020
1840
ENDCHAR
STARTCHAR 3262
ENCODING 10291
SWIDTH 1400 0
DWIDTH 14 0
BBX 13 12 0 -2
BITMAP
1FC0
2020
4010
9FE8
9008
9008
9008
9008
9FE8
4010
2020
1840
ENDCHAR
STARTCHAR 3263
ENCODING 10292
SWIDTH 1400 0
DWIDTH 14 0
BBX 13 12 0 -2
BITMAP
1FC0
2020
4010
8FE8
8028
9FE8
9008
9008
9FE8
4010
2020
1840
ENDCHAR
STARTCHAR 3264
ENCODING 10293
SWIDTH 1400 0
DWIDTH 14 0
BBX 13 12 0 -2
BITMAP
1FC0
2020
4010
9FE8
9028
9028
9028
9028
9FE8
4010
2020
1840
ENDCHAR
STARTCHAR 3265
ENCODING 10294
SWIDTH 1400 0
DWIDTH 14 0
BBX 13 12 0 -2
BITMAP
1FC0
2020
4010
9028
9028
9FE8
9028
9028
9FE8
4010
2020
1840
ENDCHAR
STARTCHAR 3266
ENCODING 10295
SWIDTH 1400 0
DWIDTH 14 0
BBX 13 12 0 -2
BITMAP
1FC0
2020
4010
8208
8308
8508
8488
9868
8008
4010
2020
1840
ENDCHAR
STARTCHAR 3267
ENCODING 10296
SWIDTH 1400 0
DWIDTH 14 0
BBX 13 12 0 -2
BITMAP
1FC0
2020
4010
8FC8
9868
9028
9028
9868
8FC8
4010
2020
1840
ENDCHAR
STARTCHAR 3268
ENCODING 10297
SWIDTH 1400 0
DWIDTH 14 0
BBX 13 12 0 -2
BITMAP
1FC0
2020
4010
9FE8
8208
8308
8508
8488
9868
4010
2020
1840
ENDCHAR
STARTCHAR 3269
ENCODING 10298
SWIDTH 1400 0
DWIDTH 14 0
BBX 13 12 0 -2
BITMAP
1FC0
2020
4790
8008
9FE8
8208
8308
8488
9868
4010
2020
1840
ENDCHAR
STARTCHAR 326A
ENCODING 10299
SWIDTH 1400 0
DWIDTH 14 0
BBX 13 12 0 -2
BITMAP
1FC0
2020
4010
9FC8
8048
80C8
8F48
8048
8048
4010
2020
1840
ENDCHAR
STARTCHAR 326B
ENCODING 10300
SWIDTH 1400 0
DWIDTH 14 0
BBX 13 12 0 -2
BITMAP
1FC0
2020
4010
9FE8
9008
9FE8
9008
9008
9FE8
4010
2020
1840
ENDCHAR
STARTCHAR 326C
ENCODING 10301
SWIDTH 1400 0
DWIDTH 14 0
BBX 13 12 0 -2
BITMAP
1FC0
2020
4010
9FE8
8008
8008
8888
8888
9FE8
4010
2020
1840
ENDCHAR
STARTCHAR 326D
ENCODING 10302
SWIDTH 1400 0
DWIDTH 14 0
BBX 13 12 0 -2
BITMAP
1FC0
2020
4790
8008
9FE8
8788
8848
8848
8848
4790
2020
1840
ENDCHAR
STARTCHAR 326E
ENCODING 10303
SWIDTH 1400 0
DWIDTH 14 0
BBX 13 12 0 -2
BITMAP
1FC0
2060
4050
9E48
8248
8278
8448
8848
9048
4050
2020
1840
ENDCHAR
STARTCHAR 326F
ENCODING 10304
SWIDTH 1400 0
DWIDTH 14 0
BBX 13 12 0 -2
BITMAP
1FC0
2060
4050
9048
9048
9078
9048
9FC8
8048
4050
2020
1840
ENDCHAR
STARTCHAR 3270
ENCODING 10305
SWIDTH 1400 0
DWIDTH 14 0
BBX 13 12 0 -2
BITMAP
1FC0
2060
4050
9F48
9048
9078
9048
91C8
8E48
4050
2020
1840
ENDCHAR
STARTCHAR 3271
ENCODING 10306
SWIDTH 1400 0
DWIDTH 14 0
BBX 13 12 0 -2
BITMAP
1FC0
2060
4050
BE48
8248
9E68
9048
9FC8
8048
4050
2020
1840
ENDCHAR
STARTCHAR 3272
ENCODING 10307
SWIDTH 1400 0
DWIDTH 14 0
BBX 13 12 0 -2
BITMAP
1FC0
2060
4050
9F48
9148
9178
9148
9F48
8048
4050
2020
1840
ENDCHAR
STARTCHAR 3273
ENCODING 10308
SWIDTH 1400 0
DWIDTH 14 0
BBX 13 12 0 -2
BITMAP
1FC0
2060
5250
9248
9E48
9278
9248
9248
9E48
4050
2020
1840
ENDCHAR
STARTCHAR 3274
ENCODING 10309
SWIDTH 1400 0
DWIDTH 14 0
BBX 13 12 0 -2
BITMAP
1FC0
2060
4450
8448
8448
8C78
9248
9148
8048
4050
2020
1840
ENDCHAR
STARTCHAR 3275
ENCODING 10310
SWIDTH 1400 0
DWIDTH 14 0
BBX 14 12 0 -2
BITMAP
0FC0
3070
4E48
9148
9144
9174
9144
9144
4E48
4048
2010
1860
ENDCHAR
STARTCHAR 3276
ENCODING 10311
SWIDTH 1400 0
DWIDTH 14 0
BBX 13 12 0 -2
BITMAP
1FC0
2060
4050
9F48
8448
8478
8A48
8A48
9148
4050
2020
1840
ENDCHAR
STARTCHAR 3277
ENCODING 10312
SWIDTH 1400 0
DWIDTH 14 0
BBX 13 12 0 -2
BITMAP
1FC0
2060
4E50
8048
9F48
8478
8448
8A48
9148
4050
2020
1840
ENDCHAR
STARTCHAR 3278
ENCODING 10313
SWIDTH 1400 0
DWIDTH 14 0
BBX 13 12 0 -2
BITMAP
1FC0
2060
4050
9F48
8148
8678
8A48
8448
8848
4050
2020
1840
ENDCHAR
STARTCHAR 3279
ENCODING 10314
SWIDTH 1400 0
DWIDTH 14 0
BBX 13 12 0 -2
BITMAP
1FC0
2060
4050
9F48
9048
9E78
9048
9048
9F48
4050
2020
1840
ENDCHAR
STARTCHAR 327A
ENCODING 10315
SWIDTH 1400 0
DWIDTH 14 0
BBX 13 12 0 -2
BITMAP
1FC0
2060
4050
9F48
8948
8978
8A48
BFC8
8048
4050
2020
1840
ENDCHAR
STARTCHAR 327B
ENCODING 10316
SWIDTH 1400 0
DWIDTH 14 0
BBX 13 12 0 -2
BITMAP
1FC0
2060
4C50
8048
BF48
8E78
9148
9148
8E48
4050
2020
1840
ENDCHAR
STARTCHAR 24D0
ENCODING 10317
SWIDTH 1400 0
DWIDTH 14 0
BBX 13 12 0 -2
BITMAP
1FC0
2020
4710
8888
8088
8788
8888
8888
8748
4010
2020
1840
ENDCHAR
STARTCHAR 24D1
ENCODING 10318
SWIDTH 1400 0
DWIDTH 14 0
BBX 13 12 0 -2
BITMAP
1FC0
2420
4410
85C8
8668
8428
8428
8428
8648
4190
2020
1840
ENDCHAR
STARTCHAR 24D2
ENCODING 10319
SWIDTH 1400 0
DWIDTH 14 0
BBX 13 12 0 -2
BITMAP
1FC0
2020
4010
8788
8848
8808
8808
8408
8388
4010
2020
1840
ENDCHAR
STARTCHAR 24D3
ENCODING 10320
SWIDTH 1400 0
DWIDTH 14 0
BBX 13 12 0 -2
BITMAP
1FC0
20A0
4090
8088
9F88
9088
9088
9088
9988
4E90
2020
1840
ENDCHAR
STARTCHAR 24D4
ENCODING 10321
SWIDTH 1400 0
DWIDTH 14 0
BBX 13 12 0 -2
BITMAP
1FC0
2020
4010
8788
8888
8FC8
8808
8808
8788
4010
2020
1840
ENDCHAR
STARTCHAR 24D5
ENCODING 10322
SWIDTH 1400 0
DWIDTH 14 0
BBX 13 12 0 -2
BITMAP
1FC0
2120
4210
8208
8708
8208
8208
8208
8208
4210
2020
1840
ENDCHAR
STARTCHAR 24D6
ENCODING 10323
SWIDTH 1400 0
DWIDTH 14 0
BBX 13 12 0 -2
BITMAP
1FE0
2010
47D0
8848
8848
8848
8848
87C8
8848
4590
2220
1840
ENDCHAR
STARTCHAR 24D7
ENCODING 10324
SWIDTH 1400 0
DWIDTH 14 0
BBX 13 12 0 -2
BITMAP
1FC0
2420
4410
8408
87C8
8448
8448
8448
8448
4450
2020
1840
ENDCHAR
STARTCHAR 24D8
ENCODING 10325
SWIDTH 1400 0
DWIDTH 14 0
BBX 13 12 0 -2
BITMAP
1FC0
2220
4010
8008
8208
8208
8208
8208
8208
4210
2020
1840
ENDCHAR
STARTCHAR 24D9
ENCODING 10326
SWIDTH 1400 0
DWIDTH 14 0
BBX 13 12 0 -2
BITMAP
1FC0
2020
4010
8008
8208
8208
8208
8208
8208
4210
2220
1840
ENDCHAR
STARTCHAR 24DA
ENCODING 10327
SWIDTH 1400 0
DWIDTH 14 0
BBX 13 12 0 -2
BITMAP
1FC0
2420
4410
8408
8488
8508
8708
8488
8488
4450
2020
1840
ENDCHAR
STARTCHAR 24DB
ENCODING 10328
SWIDTH 1400 0
DWIDTH 14 0
BBX 13 12 0 -2
BITMAP
1FC0
2020
4210
8208
8208
8208
8208
8208
8208
4210
2020
1840
ENDCHAR
STARTCHAR 24DC
ENCODING 10329
SWIDTH 1400 0
DWIDTH 14 0
BBX 13 12 0 -2
BITMAP
1FC0
2020
4010
9FE8
9128
9228
9228
9228
9008
4010
2020
1840
ENDCHAR
STARTCHAR 24DD
ENCODING 10330
SWIDTH 1400 0
DWIDTH 14 0
BBX 13 12 0 -2
BITMAP
1FC0
2020
4010
8788
8888
8888
8888
8888
8008
4010
2020
1840
ENDCHAR
STARTCHAR 24DE
ENCODING 10331
SWIDTH 1400 0
DWIDTH 14 0
BBX 13 12 0 -2
BITMAP
1FC0
2020
4790
8CC8
8848
8848
8848
8CC8
8788
4010
2020
1840
ENDCHAR
STARTCHAR 24DF
ENCODING 10332
SWIDTH 1400 0
DWIDTH 14 0
BBX 13 12 0 -2
BITMAP
1FC0
2020
47D0
8468
8428
8428
8468
87C8
8408
4410
2020
1840
ENDCHAR
STARTCHAR 24E0
ENCODING 10333
SWIDTH 1400 0
DWIDTH 14 0
BBX 13 12 0 -2
BITMAP
1FE0
2010
4790
8888
8888
8888
8888
8788
8088
4090
2020
1840
ENDCHAR
STARTCHAR 24E1
ENCODING 10334
SWIDTH 1400 0
DWIDTH 14 0
BBX 13 12 0 -2
BITMAP
1FC0
2020
4010
8288
8308
8208
8208
8208
8208
4010
2020
1840
ENDCHAR
STARTCHAR 24E2
ENCODING 10335
SWIDTH 1400 0
DWIDTH 14 0
BBX 13 12 0 -2
BITMAP
1FC0
2020
4390
8448
8408
8308
80C8
8448
8388
4010
2020
1840
ENDCHAR
STARTCHAR 24E3
ENCODING 10336
SWIDTH 1400 0
DWIDTH 14 0
BBX 13 12 0 -2
BITMAP
1FC0
2220
4210
8708
8208
8208
8208
8208
8208
4010
2020
1840
ENDCHAR
STARTCHAR 24E4
ENCODING 10337
SWIDTH 1400 0
DWIDTH 14 0
BBX 13 12 0 -2
BITMAP
1FC0
2020
4010
8448
8448
8448
8448
8448
86C8
4110
2020
1840
ENDCHAR
STARTCHAR 24E5
ENCODING 10338
SWIDTH 1400 0
DWIDTH 14 0
BBX 13 12 0 -2
BITMAP
1FC0
2020
4010
8848
8888
8488
8508
8308
8308
4010
2020
1840
ENDCHAR
STARTCHAR 24E6
ENCODING 10339
SWIDTH 1400 0
DWIDTH 14 0
BBX 13 12 0 -2
BITMAP
1FC0
2020
4010
9108
9128
9328
8D48
8CC8
8448
4010
2020
1840
ENDCHAR
STARTCHAR 24E7
ENCODING 10340
SWIDTH 1400 0
DWIDTH 14 0
BBX 13 12 0 -2
BITMAP
1FC0
2020
4010
8488
8508
8308
8308
8488
8048
4010
2020
1840
ENDCHAR
STARTCHAR 24E8
ENCODING 10341
SWIDTH 1400 0
DWIDTH 14 0
BBX 13 12 0 -2
BITMAP
1FC0
2020
4450
8488
8488
8288
8308
8108
8208
4210
2020
1840
ENDCHAR
STARTCHAR 24E9
ENCODING 10342
SWIDTH 1400 0
DWIDTH 14 0
BBX 13 12 0 -2
BITMAP
1FC0
2020
4010
8788
8108
8108
8208
8408
8788
4010
2020
1840
ENDCHAR
STARTCHAR 2460
ENCODING 10343
SWIDTH 1400 0
DWIDTH 14 0
BBX 13 12 0 -2
BITMAP
1FC0
2120
4110
8708
8108
8108
8108
8108
8108
4110
2020
1840
ENDCHAR
STARTCHAR 2461
ENCODING 10344
SWIDTH 1400 0
DWIDTH 14 0
BBX 13 12 0 -2
BITMAP
1FE0
2790
4450
8048
8088
8088
8308
8408
8808
4FD0
2020
1840
ENDCHAR
STARTCHAR 2462
ENCODING 10345
SWIDTH 1400 0
DWIDTH 14 0
BBX 13 12 0 -2
BITMAP
1FE0
2310
4490
8888
8088
8308
8088
8048
8848
4490
2320
1840
ENDCHAR
STARTCHAR 2463
ENCODING 10346
SWIDTH 1400 0
DWIDTH 14 0
BBX 13 12 0 -2
BITMAP
1FC0
2120
4310
8508
8508
8908
9108
9F88
8108
4110
2020
1840
ENDCHAR
STARTCHAR 2464
ENCODING 10347
SWIDTH 1400 0
DWIDTH 14 0
BBX 13 13 0 -2
BITMAP
0FC0
1020
2790
4408
8408
8B08
8488
8048
8048
8088
4790
2020
1840
ENDCHAR
STARTCHAR 2465
ENCODING 10348
SWIDTH 1400 0
DWIDTH 14 0
BBX 13 12 0 -2
BITMAP
1FE0
2110
46D0
8448
8808
8F88
8848
8848
8848
4690
2120
1840
ENDCHAR
STARTCHAR 2466
ENCODING 10349
SWIDTH 1400 0
DWIDTH 14 0
BBX 13 12 0 -2
BITMAP
1FC0
2020
47D0
8088
8088
8108
8108
8208
8208
4210
2020
1840
ENDCHAR
STARTCHAR 2467
ENCODING 10350
SWIDTH 1400 0
DWIDTH 14 0
BBX 13 12 0 -2
BITMAP
1FE0
2110
46D0
8448
8448
8388
8C48
8848
8848
44D0
2320
1840
ENDCHAR
STARTCHAR 2468
ENCODING 10351
SWIDTH 1400 0
DWIDTH 14 0
BBX 13 12 0 -2
BITMAP
1FC0
2320
4490
8848
8848
8448
83C8
8048
8088
4790
2020
1840
ENDCHAR
STARTCHAR 2469
ENCODING 10352
SWIDTH 1400 0
DWIDTH 14 0
BBX 14 12 0 -2
BITMAP
0FE0
3010
4868
4994
9914
8914
8914
8914
48B8
4048
2010
1860
ENDCHAR
STARTCHAR 246A
ENCODING 10353
SWIDTH 1400 0
DWIDTH 14 0
BBX 13 12 0 -2
BITMAP
1FC0
2020
4850
B9C8
8848
8848
8848
8848
8848
4010
2020
1840
ENDCHAR
STARTCHAR 246B
ENCODING 10354
SWIDTH 1400 0
DWIDTH 14 0
BBX 13 12 0 -2
BITMAP
1FC0
2020
49F0
8828
9828
8848
8988
8908
89E8
4010
2020
1840
ENDCHAR
STARTCHAR 246C
ENCODING 10355
SWIDTH 1400 0
DWIDTH 14 0
BBX 14 12 0 -2
BITMAP
0FE0
3010
48C8
4924
9824
8864
8814
8914
4918
40E8
2010
1860
ENDCHAR
STARTCHAR 246D
ENCODING 10356
SWIDTH 1400 0
DWIDTH 14 0
BBX 13 12 0 -2
BITMAP
1FC0
2020
4830
8868
98A8
88A8
8928
89F8
8828
4030
2020
1840
ENDCHAR
STARTCHAR 246E
ENCODING 10357
SWIDTH 1400 0
DWIDTH 14 0
BBX 13 12 0 -2
BITMAP
1FC0
2020
49D0
9908
8A08
89C8
8828
8828
8848
4190
2020
18C0
ENDCHAR
STARTCHAR 00BD
ENCODING 10358
SWIDTH 1400 0
DWIDTH 14 0
BBX 10 10 2 -1
BITMAP
4200
C400
4400
4800
4BC0
5040
1080
2100
4200
43C0
ENDCHAR
STARTCHAR 2153
ENCODING 10359
SWIDTH 1400 0
DWIDTH 14 0
BBX 10 10 2 -1
BITMAP
4000
C200
4400
4400
4B80
5080
1180
2040
2440
0380
ENDCHAR
STARTCHAR 2154
ENCODING 10360
SWIDTH 1400 0
DWIDTH 14 0
BBX 12 10 1 -1
BITMAP
7080
1080
1100
6200
82E0
7410
0460
0810
0910
10E0
ENDCHAR
STARTCHAR 00BC
ENCODING 10361
SWIDTH 1400 0
DWIDTH 14 0
BBX 8 10 3 -1
BITMAP
42
C4
44
48
49
53
15
29
47
41
ENDCHAR
STARTCHAR 00BE
ENCODING 10362
SWIDTH 1400 0
DWIDTH 14 0
BBX 10 11 2 -1
BITMAP
6000
9080
1100
2200
1280
9580
6680
0C80
0FC0
1080
1000
ENDCHAR
STARTCHAR 215B
ENCODING 10363
SWIDTH 1400 0
DWIDTH 14 0
BBX 10 10 2 -1
BITMAP
4000
C200
4400
4400
4980
5240
1180
2240
2240
0380
ENDCHAR
STARTCHAR 215C
ENCODING 10364
SWIDTH 1400 0
DWIDTH 14 0
BBX 12 10 1 -1
BITMAP
7080
1100
1100
1200
8AE0
5520
28E0
0920
1110
10E0
ENDCHAR
STARTCHAR 215D
ENCODING 10365
SWIDTH 1400 0
DWIDTH 14 0
BBX 11 10 1 -1
BITMAP
7080
8100
A100
5200
12E0
1520
68E0
0920
1120
10E0
ENDCHAR
STARTCHAR 215E
ENCODING 10366
SWIDTH 1400 0
DWIDTH 14 0
BBX 10 10 2 -1
BITMAP
F200
2200
2400
4800
4B80
5240
1180
2240
2440
4380
ENDCHAR
STARTCHAR 00E6
ENCODING 10529
SWIDTH 1400 0
DWIDTH 14 0
BBX 11 7 1 0
BITMAP
39C0
4620
4420
7FE0
8400
8420
7BC0
ENDCHAR
STARTCHAR 0111
ENCODING 10530
SWIDTH 1400 0
DWIDTH 14 0
BBX 8 11 3 -1
BITMAP
02
1F
02
3A
46
82
82
82
46
6E
10
ENDCHAR
STARTCHAR 00F0
ENCODING 10531
SWIDTH 1400 0
DWIDTH 14 0
BBX 6 11 4 -1
BITMAP
48
30
50
08
34
CC
84
84
84
58
20
ENDCHAR
STARTCHAR 0127
ENCODING 10532
SWIDTH 1400 0
DWIDTH 14 0
BBX 7 10 4 0
BITMAP
40
F8
40
5C
62
42
42
42
42
42
ENDCHAR
STARTCHAR 0131
ENCODING 10533
SWIDTH 1400 0
DWIDTH 14 0
BBX 1 7 7 0
BITMAP
80
80
80
80
80
80
80
ENDCHAR
STARTCHAR 0133
ENCODING 10534
SWIDTH 1400 0
DWIDTH 14 0
BBX 4 13 5 -3
BITMAP
80
00
00
80
90
90
90
90
90
90
10
10
30
ENDCHAR
STARTCHAR 0138
ENCODING 10535
SWIDTH 1400 0
DWIDTH 14 0
BBX 5 7 4 0
BITMAP
88
90
A0
E0
90
88
80
ENDCHAR
STARTCHAR 0140
ENCODING 10536
SWIDTH 1400 0
DWIDTH 14 0
BBX 4 10 5 0
BITMAP
80
80
80
80
B0
B0
80
80
80
80
ENDCHAR
STARTCHAR 0142
ENCODING 10537
SWIDTH 1400 0
DWIDTH 14 0
BBX 5 10 5 0
BITMAP
20
20
28
30
20
20
60
A0
20
20
ENDCHAR
STARTCHAR 00F8
ENCODING 10538
SWIDTH 1400 0
DWIDTH 14 0
BBX 8 7 3 0
BITMAP
19
66
4A
52
62
42
BE
ENDCHAR
STARTCHAR 0153
ENCODING 10539
SWIDTH 1400 0
DWIDTH 14 0
BBX 12 7 1 0
BITMAP
79C0
C620
8210
83F0
8400
8600
49E0
ENDCHAR
STARTCHAR 00DF
ENCODING 10540
SWIDTH 1400 0
DWIDTH 14 0
BBX 6 11 4 -1
BITMAP
70
88
88
88
B0
88
84
84
84
88
10
ENDCHAR
STARTCHAR 00FE
ENCODING 10541
SWIDTH 1400 0
DWIDTH 14 0
BBX 7 10 3 -1
BITMAP
80
80
BC
44
82
82
82
82
C4
B8
ENDCHAR
STARTCHAR 0167
ENCODING 10542
SWIDTH 1400 0
DWIDTH 14 0
BBX 3 10 5 -1
BITMAP
40
40
E0
40
E0
40
40
40
40
60
ENDCHAR
STARTCHAR 014B
ENCODING 10543
SWIDTH 1400 0
DWIDTH 14 0
BBX 6 10 4 -3
BITMAP
38
C4
84
84
84
84
84
04
04
18
ENDCHAR
STARTCHAR 0149
ENCODING 10544
SWIDTH 1400 0
DWIDTH 14 0
BBX 8 9 3 0
BITMAP
40
80
9E
11
11
11
11
11
11
ENDCHAR
STARTCHAR 3200
ENCODING 10545
SWIDTH 1400 0
DWIDTH 14 0
BBX 14 11 0 -1
BITMAP
0010
4010
4008
BFC4
8044
8044
8044
8048
8048
4010
2000
ENDCHAR
STARTCHAR 3201
ENCODING 10546
SWIDTH 1400 0
DWIDTH 14 0
BBX 14 11 0 -1
BITMAP
0010
4010
4008
9004
9004
9004
9004
9008
9FE8
4010
2000
ENDCHAR
STARTCHAR 3202
ENCODING 10547
SWIDTH 1400 0
DWIDTH 14 0
BBX 14 11 0 -1
BITMAP
0010
4010
4008
9FE4
9004
9004
9004
9008
9FE8
4010
2000
ENDCHAR
STARTCHAR 3203
ENCODING 10548
SWIDTH 1400 0
DWIDTH 14 0
BBX 14 11 0 -1
BITMAP
0010
4010
4008
8FE4
8024
9FE4
9004
9008
9FE8
4010
2000
ENDCHAR
STARTCHAR 3204
ENCODING 10549
SWIDTH 1400 0
DWIDTH 14 0
BBX 14 11 0 -1
BITMAP
0010
4010
4008
9FE4
9024
9024
9024
9028
9FE8
4010
2000
ENDCHAR
STARTCHAR 3205
ENCODING 10550
SWIDTH 1400 0
DWIDTH 14 0
BBX 14 11 0 -1
BITMAP
0010
4010
4008
9024
9024
9FE4
9024
9028
9FE8
4010
2000
ENDCHAR
STARTCHAR 3206
ENCODING 10551
SWIDTH 1400 0
DWIDTH 14 0
BBX 14 11 0 -1
BITMAP
0010
4010
4008
8204
8204
8304
8484
8848
9028
4010
2000
ENDCHAR
STARTCHAR 3207
ENCODING 10552
SWIDTH 1400 0
DWIDTH 14 0
BBX 14 11 0 -1
BITMAP
2010
4010
4008
8FC4
9864
9024
9024
9868
8FC8
4010
2000
ENDCHAR
STARTCHAR 3208
ENCODING 10553
SWIDTH 1400 0
DWIDTH 14 0
BBX 14 10 0 -1
BITMAP
4010
4008
9FE8
8204
8304
8504
8484
9868
4010
2000
ENDCHAR
STARTCHAR 3209
ENCODING 10554
SWIDTH 1400 0
DWIDTH 14 0
BBX 14 11 0 -1
BITMAP
0010
4010
4788
8004
9FE4
8204
8304
8488
9868
4010
2000
ENDCHAR
STARTCHAR 320A
ENCODING 10555
SWIDTH 1400 0
DWIDTH 14 0
BBX 14 11 0 -1
BITMAP
0010
4010
4008
9FC4
8044
83C4
8C44
8048
8048
4050
2000
ENDCHAR
STARTCHAR 320B
ENCODING 10556
SWIDTH 1400 0
DWIDTH 14 0
BBX 14 11 0 -1
BITMAP
0010
4010
4008
9FE4
9004
9FE4
9004
9008
9FE8
4010
2000
ENDCHAR
STARTCHAR 320C
ENCODING 10557
SWIDTH 1400 0
DWIDTH 14 0
BBX 14 11 0 -1
BITMAP
0010
4010
4008
9FE4
8004
8004
8884
8888
9FE8
4010
2000
ENDCHAR
STARTCHAR 320D
ENCODING 10558
SWIDTH 1400 0
DWIDTH 14 0
BBX 14 11 0 -1
BITMAP
0010
4010
4788
8004
9FE4
8004
8784
8848
8848
4790
2000
ENDCHAR
STARTCHAR 320E
ENCODING 10559
SWIDTH 1400 0
DWIDTH 14 0
BBX 14 11 0 -1
BITMAP
0010
4050
4048
9E44
8244
8244
8474
8448
8848
4050
2040
ENDCHAR
STARTCHAR 320F
ENCODING 10560
SWIDTH 1400 0
DWIDTH 14 0
BBX 14 11 0 -1
BITMAP
0050
4048
4048
9044
9044
9074
9044
9FC8
8048
4050
2000
ENDCHAR
STARTCHAR 3210
ENCODING 10561
SWIDTH 1400 0
DWIDTH 14 0
BBX 14 10 0 -1
BITMAP
4050
4048
9F48
9044
9074
9044
9044
9F48
4050
2040
ENDCHAR
STARTCHAR 3211
ENCODING 10562
SWIDTH 1400 0
DWIDTH 14 0
BBX 14 11 0 -1
BITMAP
0050
4050
4048
BE44
8244
9E64
9044
9FC8
8048
4050
2000
ENDCHAR
STARTCHAR 3212
ENCODING 10563
SWIDTH 1400 0
DWIDTH 14 0
BBX 14 11 0 -1
BITMAP
0050
4048
4048
9E44
9244
9274
9244
9E48
8048
4050
2000
ENDCHAR
STARTCHAR 3213
ENCODING 10564
SWIDTH 1400 0
DWIDTH 14 0
BBX 14 11 0 -1
BITMAP
0050
4050
5248
9244
9E44
9274
9244
9248
9E48
4050
2000
ENDCHAR
STARTCHAR 3214
ENCODING 10565
SWIDTH 1400 0
DWIDTH 14 0
BBX 14 11 0 -1
BITMAP
0010
4050
4448
8444
8444
8C44
9274
9248
8148
4050
2040
ENDCHAR
STARTCHAR 3215
ENCODING 10566
SWIDTH 1400 0
DWIDTH 14 0
BBX 14 11 0 -1
BITMAP
0010
4050
5C48
A244
A244
A274
A244
A248
9C48
4050
2040
ENDCHAR
STARTCHAR 3216
ENCODING 10567
SWIDTH 1400 0
DWIDTH 14 0
BBX 14 11 0 -1
BITMAP
0040
4050
4050
9F48
8444
8474
8C44
8A44
9148
4048
2010
ENDCHAR
STARTCHAR 3217
ENCODING 10568
SWIDTH 1400 0
DWIDTH 14 0
BBX 14 11 0 -1
BITMAP
0050
4050
4E48
8044
9F44
8474
8C44
8A48
9148
4050
2000
ENDCHAR
STARTCHAR 3218
ENCODING 10569
SWIDTH 1400 0
DWIDTH 14 0
BBX 14 11 0 -1
BITMAP
0050
4050
4048
9E44
8244
8274
8E44
8448
8848
4050
2000
ENDCHAR
STARTCHAR 3219
ENCODING 10570
SWIDTH 1400 0
DWIDTH 14 0
BBX 14 11 0 -1
BITMAP
2010
4050
4048
9F44
9044
9E74
9044
9048
9F48
4050
2040
ENDCHAR
STARTCHAR 321A
ENCODING 10571
SWIDTH 1400 0
DWIDTH 14 0
BBX 14 11 0 -1
BITMAP
0050
4050
5F48
8044
8944
8974
8A44
BFC8
8048
4050
2000
ENDCHAR
STARTCHAR 321B
ENCODING 10572
SWIDTH 1400 0
DWIDTH 14 0
BBX 14 11 0 -1
BITMAP
0050
4050
4E48
8044
BF44
8E74
9144
9148
8E48
4050
2000
ENDCHAR
STARTCHAR 249C
ENCODING 10573
SWIDTH 1400 0
DWIDTH 14 0
BBX 14 11 0 -1
BITMAP
0010
4010
4708
8084
8084
8784
8884
8888
8748
4010
2000
ENDCHAR
STARTCHAR 249D
ENCODING 10574
SWIDTH 1400 0
DWIDTH 14 0
BBX 14 11 0 -1
BITMAP
0010
4810
4808
8804
8F84
8844
8844
8848
8848
4F90
2000
ENDCHAR
STARTCHAR 249E
ENCODING 10575
SWIDTH 1400 0
DWIDTH 14 0
BBX 14 11 0 -1
BITMAP
0010
4010
4008
8784
8844
8804
8804
8808
8788
4010
2000
ENDCHAR
STARTCHAR 249F
ENCODING 10576
SWIDTH 1400 0
DWIDTH 14 0
BBX 14 11 0 -1
BITMAP
0010
4090
4088
8084
8784
8884
8884
8888
8888
4790
2000
ENDCHAR
STARTCHAR 24A0
ENCODING 10577
SWIDTH 1400 0
DWIDTH 14 0
BBX 14 11 0 -1
BITMAP
0010
4010
4008
8F84
8884
8FC4
8804
8808
8788
4010
2000
ENDCHAR
STARTCHAR 24A1
ENCODING 10578
SWIDTH 1400 0
DWIDTH 14 0
BBX 14 11 0 -1
BITMAP
0010
4010
4208
8204
8704
8204
8204
8208
8208
4210
2000
ENDCHAR
STARTCHAR 24A2
ENCODING 10579
SWIDTH 1400 0
DWIDTH 14 0
BBX 14 11 0 -1
BITMAP
0010
4010
47C8
8844
8844
8844
8844
87C8
8848
4590
2200
ENDCHAR
STARTCHAR 24A3
ENCODING 10580
SWIDTH 1400 0
DWIDTH 14 0
BBX 14 11 0 -1
BITMAP
0010
4410
4408
8404
8784
8444
8444
8448
8448
4450
2000
ENDCHAR
STARTCHAR 24A4
ENCODING 10581
SWIDTH 1400 0
DWIDTH 14 0
BBX 14 11 0 -1
BITMAP
0010
4210
4008
8004
8204
8204
8204
8208
8208
4210
2000
ENDCHAR
STARTCHAR 24A5
ENCODING 10582
SWIDTH 1400 0
DWIDTH 14 0
BBX 14 11 0 -1
BITMAP
0010
4010
4008
8004
8204
8204
8204
8208
8208
4210
2000
ENDCHAR
STARTCHAR 24A6
ENCODING 10583
SWIDTH 1400 0
DWIDTH 14 0
BBX 14 11 0 -1
BITMAP
0010
4410
4408
8404
8484
8504
8704
8488
8488
4450
2000
ENDCHAR
STARTCHAR 24A7
ENCODING 10584
SWIDTH 1400 0
DWIDTH 14 0
BBX 14 11 0 -1
BITMAP
0010
4210
4208
8204
8204
8204
8204
8208
8208
4210
2000
ENDCHAR
STARTCHAR 24A8
ENCODING 10585
SWIDTH 1400 0
DWIDTH 14 0
BBX 14 11 0 -1
BITMAP
0010
4010
4088
9F64
A224
A224
A224
A228
8228
4010
2000
ENDCHAR
STARTCHAR 24A9
ENCODING 10586
SWIDTH 1400 0
DWIDTH 14 0
BBX 14 11 0 -1
BITMAP
0010
4010
4008
8F84
8884
8884
8884
8888
8888
4010
2000
ENDCHAR
STARTCHAR 24AA
ENCODING 10587
SWIDTH 1400 0
DWIDTH 14 0
BBX 14 11 0 -1
BITMAP
0010
4010
4788
8CC4
8844
8844
8844
8CC8
8788
4010
2000
ENDCHAR
STARTCHAR 24AB
ENCODING 10588
SWIDTH 1400 0
DWIDTH 14 0
BBX 14 11 0 -1
BITMAP
0010
4010
4F88
8C44
8C44
8C44
8C44
8F88
8808
4810
2000
ENDCHAR
STARTCHAR 24AC
ENCODING 10589
SWIDTH 1400 0
DWIDTH 14 0
BBX 14 11 0 -1
BITMAP
0010
4010
4E88
9184
9084
9084
9084
8988
8688
4090
2000
ENDCHAR
STARTCHAR 24AD
ENCODING 10590
SWIDTH 1400 0
DWIDTH 14 0
BBX 14 11 0 -1
BITMAP
0010
4010
4008
8304
8204
8204
8204
8208
8208
4010
2000
ENDCHAR
STARTCHAR 24AE
ENCODING 10591
SWIDTH 1400 0
DWIDTH 14 0
BBX 14 11 0 -1
BITMAP
0010
4010
4308
8484
8404
8304
8084
8488
8308
4010
2000
ENDCHAR
STARTCHAR 24AF
ENCODING 10592
SWIDTH 1400 0
DWIDTH 14 0
BBX 14 11 0 -1
BITMAP
0010
4210
4208
8704
8204
8204
8204
8208
8208
4010
2000
ENDCHAR
STARTCHAR 24B0
ENCODING 10593
SWIDTH 1400 0
DWIDTH 14 0
BBX 14 11 0 -1
BITMAP
0010
4010
4008
8444
8444
8444
8444
8448
86C8
4110
2000
ENDCHAR
STARTCHAR 24B1
ENCODING 10594
SWIDTH 1400 0
DWIDTH 14 0
BBX 14 11 0 -1
BITMAP
0010
4010
4008
8844
8884
8484
8504
8308
8308
4010
2000
ENDCHAR
STARTCHAR 24B2
ENCODING 10595
SWIDTH 1400 0
DWIDTH 14 0
BBX 14 11 0 -1
BITMAP
0010
4010
4008
9124
9324
9344
8D44
8CC8
84C8
4010
2000
ENDCHAR
STARTCHAR 24B3
ENCODING 10596
SWIDTH 1400 0
DWIDTH 14 0
BBX 14 11 0 -1
BITMAP
0010
4010
4008
8484
8304
8104
8304
8488
8048
4010
2000
ENDCHAR
STARTCHAR 24B4
ENCODING 10597
SWIDTH 1400 0
DWIDTH 14 0
BBX 14 11 0 -1
BITMAP
0010
4010
4048
8484
8484
8484
8304
8108
8208
4210
2400
ENDCHAR
STARTCHAR 24B5
ENCODING 10598
SWIDTH 1400 0
DWIDTH 14 0
BBX 14 11 0 -1
BITMAP
0010
4010
4008
8784
8104
8104
8204
8408
8F88
4010
2000
ENDCHAR
STARTCHAR 2474
ENCODING 10599
SWIDTH 1400 0
DWIDTH 14 0
BBX 14 11 0 -1
BITMAP
0010
4110
4108
8704
8104
8104
8104
8108
8108
4110
2000
ENDCHAR
STARTCHAR 2475
ENCODING 10600
SWIDTH 1400 0
DWIDTH 14 0
BBX 14 11 0 -1
BITMAP
0010
4790
4448
8044
8084
8184
8204
8408
8808
4FD0
2000
ENDCHAR
STARTCHAR 2476
ENCODING 10601
SWIDTH 1400 0
DWIDTH 14 0
BBX 14 11 0 -1
BITMAP
0010
4310
4488
8884
8084
8304
8084
8048
8848
4490
2300
ENDCHAR
STARTCHAR 2477
ENCODING 10602
SWIDTH 1400 0
DWIDTH 14 0
BBX 14 11 0 -1
BITMAP
0010
4110
4308
8504
8504
8904
9104
9F88
8108
4110
2000
ENDCHAR
STARTCHAR 2478
ENCODING 10603
SWIDTH 1400 0
DWIDTH 14 0
BBX 14 11 0 -1
BITMAP
0010
4790
4408
8404
8B04
8484
8044
8048
8048
4790
2000
ENDCHAR
STARTCHAR 2479
ENCODING 10604
SWIDTH 1400 0
DWIDTH 14 0
BBX 14 11 0 -1
BITMAP
0010
4110
4688
8844
8804
8F84
8844
8848
8848
4490
2300
ENDCHAR
STARTCHAR 247A
ENCODING 10605
SWIDTH 1400 0
DWIDTH 14 0
BBX 14 11 0 -1
BITMAP
0010
4010
47C8
8084
8084
8104
8104
8208
8208
4210
2000
ENDCHAR
STARTCHAR 247B
ENCODING 10606
SWIDTH 1400 0
DWIDTH 14 0
BBX 14 11 0 -1
BITMAP
0010
4390
44C8
8844
8484
8784
8844
8848
8848
4790
2000
ENDCHAR
STARTCHAR 247C
ENCODING 10607
SWIDTH 1400 0
DWIDTH 14 0
BBX 14 11 0 -1
BITMAP
0010
4310
4488
8844
8844
8844
87C4
8048
8848
4490
2300
ENDCHAR
STARTCHAR 247D
ENCODING 10608
SWIDTH 1400 0
DWIDTH 14 0
BBX 14 11 0 -1
BITMAP
0010
48D0
4928
8924
8924
8924
8924
8928
8928
4950
2080
ENDCHAR
STARTCHAR 247E
ENCODING 10609
SWIDTH 1400 0
DWIDTH 14 0
BBX 14 11 0 -1
BITMAP
0010
4850
58C8
8844
8844
8844
8844
8848
8848
4850
2000
ENDCHAR
STARTCHAR 247F
ENCODING 10610
SWIDTH 1400 0
DWIDTH 14 0
BBX 14 11 0 -1
BITMAP
0010
48D0
5928
8924
8824
8844
8884
8908
8908
4910
21E0
ENDCHAR
STARTCHAR 2480
ENCODING 10611
SWIDTH 1400 0
DWIDTH 14 0
BBX 14 11 0 -1
BITMAP
0010
48D0
5928
8824
8844
88C4
8824
8828
8928
4930
20C0
ENDCHAR
STARTCHAR 2481
ENCODING 10612
SWIDTH 1400 0
DWIDTH 14 0
BBX 14 11 0 -1
BITMAP
0010
4850
58C8
8944
8944
8944
8A44
8BE8
8848
4850
2000
ENDCHAR
STARTCHAR 2482
ENCODING 10613
SWIDTH 1400 0
DWIDTH 14 0
BBX 14 11 0 -1
BITMAP
0010
49D0
4908
8904
8944
89A4
8924
8828
8828
4950
2080
ENDCHAR
STARTCHAR 00B9
ENCODING 10614
SWIDTH 1400 0
DWIDTH 14 0
BBX 2 6 6 5
BITMAP
40
C0
40
40
40
40
ENDCHAR
STARTCHAR 00B2
ENCODING 10615
SWIDTH 1400 0
DWIDTH 14 0
BBX 4 6 5 5
BITMAP
F0
90
10
60
80
F0
ENDCHAR
STARTCHAR 00B3
ENCODING 10616
SWIDTH 1400 0
DWIDTH 14 0
BBX 5 7 4 4
BITMAP
70
10
10
30
08
88
70
ENDCHAR
STARTCHAR 2074
ENCODING 10617
SWIDTH 1400 0
DWIDTH 14 0
BBX 5 6 4 5
BITMAP
10
30
50
90
F8
10
ENDCHAR
STARTCHAR 207F
ENCODING 10618
SWIDTH 1400 0
DWIDTH 14 0
BBX 4 5 5 5
BITMAP
F0
90
90
90
90
ENDCHAR
STARTCHAR 2081
ENCODING 10619
SWIDTH 1400 0
DWIDTH 14 0
BBX 2 6 6 -2
BITMAP
40
C0
40
40
40
40
ENDCHAR
STARTCHAR 2082
ENCODING 10620
SWIDTH 1400 0
DWIDTH 14 0
BBX 4 6 5 -2
BITMAP
F0
90
10
60
80
F0
ENDCHAR
STARTCHAR 2083
ENCODING 10621
SWIDTH 1400 0
DWIDTH 14 0
BBX 5 6 4 -2
BITMAP
70
10
10
10
88
70
ENDCHAR
STARTCHAR 2084
ENCODING 10622
SWIDTH 1400 0
DWIDTH 14 0
BBX 5 6 4 -2
BITMAP
10
30
50
90
F8
10
ENDCHAR
STARTCHAR 3041
ENCODING 10785
SWIDTH 1400 0
DWIDTH 14 0
BBX 8 7 3 -1
BITMAP
10
78
20
3E
71
92
64
ENDCHAR
STARTCHAR 3042
ENCODING 10786
SWIDTH 1400 0
DWIDTH 14 0
BBX 10 11 2 -1
BITMAP
0800
1000
7C00
1200
1700
3AC0
5440
9840
9840
A880
4300
ENDCHAR
STARTCHAR 3043
ENCODING 10787
SWIDTH 1400 0
DWIDTH 14 0
BBX 8 5 3 -1
BITMAP
80
82
82
81
60
ENDCHAR
STARTCHAR 3044
ENCODING 10788
SWIDTH 1400 0
DWIDTH 14 0
BBX 10 8 2 0
BITMAP
8000
8100
8080
8040
8040
8000
8000
7000
ENDCHAR
STARTCHAR 3045
ENCODING 10789
SWIDTH 1400 0
DWIDTH 14 0
BBX 4 8 5 -1
BITMAP
60
00
70
90
10
10
10
20
ENDCHAR
STARTCHAR 3046
ENCODING 10790
SWIDTH 1400 0
DWIDTH 14 0
BBX 6 12 4 -2
BITMAP
20
18
00
00
7C
84
04
04
04
04
08
10
ENDCHAR
STARTCHAR 3047
ENCODING 10791
SWIDTH 1400 0
DWIDTH 14 0
BBX 6 8 4 -2
BITMAP
30
00
30
60
20
50
90
0C
ENDCHAR
STARTCHAR 3048
ENCODING 10792
SWIDTH 1400 0
DWIDTH 14 0
BBX 10 11 2 -1
BITMAP
0800
0600
0000
0600
7C00
0800
0800
1C00
2400
4200
83C0
ENDCHAR
STARTCHAR 3049
ENCODING 10793
SWIDTH 1400 0
DWIDTH 14 0
BBX 7 8 3 -2
BITMAP
20
32
20
2C
72
A2
A2
40
ENDCHAR
STARTCHAR 304A
ENCODING 10794
SWIDTH 1400 0
DWIDTH 14 0
BBX 11 11 1 -1
BITMAP
1000
1000
1040
7C20
1000
1000
1FC0
3040
D040
9040
7180
ENDCHAR
STARTCHAR 304B
ENCODING 10795
SWIDTH 1400 0
DWIDTH 14 0
BBX 12 10 1 -1
BITMAP
0800
1000
1040
FE20
2210
2200
2200
4200
4200
0C00
ENDCHAR
STARTCHAR 304C
ENCODING 10796
SWIDTH 1400 0
DWIDTH 14 0
BBX 12 10 1 -1
BITMAP
0020
1000
1E40
7220
2210
2200
4200
4200
8200
0C00
ENDCHAR
STARTCHAR 304D
ENCODING 10797
SWIDTH 1400 0
DWIDTH 14 0
BBX 8 11 3 -1
BITMAP
10
12
7C
09
0E
74
02
7F
80
80
7C
ENDCHAR
STARTCHAR 304E
ENCODING 10798
SWIDTH 1400 0
DWIDTH 14 0
BBX 10 11 2 -1
BITMAP
1000
1240
7C00
0900
0E00
7400
0200
7F00
8000
8000
7C00
ENDCHAR
STARTCHAR 304F
ENCODING 10799
SWIDTH 1400 0
DWIDTH 14 0
BBX 4 11 5 -1
BITMAP
10
20
20
40
80
80
40
40
20
10
10
ENDCHAR
STARTCHAR 3050
ENCODING 10800
SWIDTH 1400 0
DWIDTH 14 0
BBX 8 11 3 -1
BITMAP
10
10
21
42
80
80
40
20
10
10
08
ENDCHAR
STARTCHAR 3051
ENCODING 10801
SWIDTH 1400 0
DWIDTH 14 0
BBX 10 11 2 -1
BITMAP
4100
8100
81C0
8F00
8100
8100
8100
8100
C100
0200
0400
ENDCHAR
STARTCHAR 3052
ENCODING 10802
SWIDTH 1400 0
DWIDTH 14 0
BBX 10 11 1 -1
BITMAP
0140
4100
8140
8F80
8100
8100
8100
8100
C100
4200
0200
ENDCHAR
STARTCHAR 3053
ENCODING 10803
SWIDTH 1400 0
DWIDTH 14 0
BBX 9 9 2 0
BITMAP
3F00
0000
0000
0000
0000
4000
8000
4000
3F80
ENDCHAR
STARTCHAR 3054
ENCODING 10804
SWIDTH 1400 0
DWIDTH 14 0
BBX 11 9 1 0
BITMAP
3F00
0020
0040
0000
0000
0000
8000
4000
3F80
ENDCHAR
STARTCHAR 3055
ENCODING 10805
SWIDTH 1400 0
DWIDTH 14 0
BBX 8 10 3 -1
BITMAP
08
0F
74
04
02
7D
83
80
80
7C
ENDCHAR
STARTCHAR 3056
ENCODING 10806
SWIDTH 1400 0
DWIDTH 14 0
BBX 11 11 1 -1
BITMAP
0020
0840
0700
7C00
0200
0200
3F00
4000
8000
4000
3C00
ENDCHAR
STARTCHAR 3057
ENCODING 10807
SWIDTH 1400 0
DWIDTH 14 0
BBX 8 11 3 -1
BITMAP
80
80
80
80
80
80
80
81
82
44
38
ENDCHAR
STARTCHAR 3058
ENCODING 10808
SWIDTH 1400 0
DWIDTH 14 0
BBX 8 12 3 -2
BITMAP
80
82
84
80
80
80
80
80
81
82
6C
10
ENDCHAR
STARTCHAR 3059
ENCODING 10809
SWIDTH 1400 0
DWIDTH 14 0
BBX 10 12 2 -2
BITMAP
0400
0400
3FC0
C400
1400
2C00
2400
2400
1C00
0800
0800
1000
ENDCHAR
STARTCHAR 305A
ENCODING 10810
SWIDTH 1400 0
DWIDTH 14 0
BBX 10 13 2 -2
BITMAP
0040
0480
0400
FFC0
0400
1400
2C00
2400
2400
1C00
0800
0800
1000
ENDCHAR
STARTCHAR 305B
ENCODING 10811
SWIDTH 1400 0
DWIDTH 14 0
BBX 12 11 1 -1
BITMAP
0080
1080
1080
17F0
F880
1080
1100
1300
1000
1000
0FC0
ENDCHAR
STARTCHAR 305C
ENCODING 10812
SWIDTH 1400 0
DWIDTH 14 0
BBX 12 11 1 -1
BITMAP
0010
00A0
1080
1080
1FF0
F080
1080
1000
1100
1000
0FC0
ENDCHAR
STARTCHAR 305D
ENCODING 10813
SWIDTH 1400 0
DWIDTH 14 0
BBX 10 11 2 -1
BITMAP
0100
2200
0400
0440
1F80
E600
0800
0800
0800
0400
0300
ENDCHAR
STARTCHAR 305E
ENCODING 10814
SWIDTH 1400 0
DWIDTH 14 0
BBX 12 11 1 -1
BITMAP
0100
2250
1220
0440
3F80
C400
0800
0800
0800
0400
0300
ENDCHAR
STARTCHAR 305F
ENCODING 10815
SWIDTH 1400 0
DWIDTH 14 0
BBX 10 11 2 -1
BITMAP
1000
1000
2000
F000
23C0
2000
4000
4000
4000
4400
83C0
ENDCHAR
STARTCHAR 3060
ENCODING 10816
SWIDTH 1400 0
DWIDTH 14 0
BBX 12 11 1 -1
BITMAP
1000
1010
1020
F800
23C0
2000
2000
2000
4400
4400
43C0
ENDCHAR
STARTCHAR 3061
ENCODING 10817
SWIDTH 1400 0
DWIDTH 14 0
BBX 10 10 2 -1
BITMAP
2000
1C00
E000
2000
2780
38C0
2040
0040
0080
0F00
ENDCHAR
STARTCHAR 3062
ENCODING 10818
SWIDTH 1400 0
DWIDTH 14 0
BBX 10 11 2 -1
BITMAP
2000
2040
3880
C000
4000
4F00
5980
6080
0080
0100
0E00
ENDCHAR
STARTCHAR 3063
ENCODING 10819
SWIDTH 1400 0
DWIDTH 14 0
BBX 7 5 4 -1
BITMAP
FC
02
02
04
18
ENDCHAR
STARTCHAR 3064
ENCODING 10820
SWIDTH 1400 0
DWIDTH 14 0
BBX 10 8 2 0
BITMAP
0F80
F040
0040
0040
0040
0040
0180
0600
ENDCHAR
STARTCHAR 3065
ENCODING 10821
SWIDTH 1400 0
DWIDTH 14 0
BBX 12 10 1 0
BITMAP
0010
0020
0F80
F040
0020
0020
0040
0040
0080
0700
ENDCHAR
STARTCHAR 3066
ENCODING 10822
SWIDTH 1400 0
DWIDTH 14 0
BBX 10 10 2 -1
BITMAP
03C0
FE00
0400
0800
0800
0800
0800
0800
0600
0180
ENDCHAR
STARTCHAR 3067
ENCODING 10823
SWIDTH 1400 0
DWIDTH 14 0
BBX 10 10 1 -1
BITMAP
03C0
FE00
0400
0400
0800
0800
0800
0400
0600
0180
ENDCHAR
STARTCHAR 3068
ENCODING 10824
SWIDTH 1400 0
DWIDTH 14 0
BBX 8 10 3 -1
BITMAP
20
20
22
1C
30
40
80
80
80
7F
ENDCHAR
STARTCHAR 3069
ENCODING 10825
SWIDTH 1400 0
DWIDTH 14 0
BBX 10 11 2 -1
BITMAP
0040
0000
2200
2400
1800
2000
C000
8000
8000
8000
7E00
ENDCHAR
STARTCHAR 306A
ENCODING 10826
SWIDTH 1400 0
DWIDTH 14 0
BBX 10 12 2 -2
BITMAP
1000
2000
F880
2040
4200
4200
8200
8200
1E00
1380
1200
0C00
ENDCHAR
STARTCHAR 306B
ENCODING 10827
SWIDTH 1400 0
DWIDTH 14 0
BBX 10 10 2 -1
BITMAP
4000
8F80
8000
8000
8000
8000
8800
8800
C7C0
4000
ENDCHAR
STARTCHAR 306C
ENCODING 10828
SWIDTH 1400 0
DWIDTH 14 0
BBX 11 10 1 -1
BITMAP
0400
4780
5C40
2420
6820
9820
9820
93E0
6280
0100
ENDCHAR
STARTCHAR 306D
ENCODING 10829
SWIDTH 1400 0
DWIDTH 14 0
BBX 12 11 1 -1
BITMAP
2000
2000
3180
F640
2820
3020
6020
A020
A3E0
2250
2180
ENDCHAR
STARTCHAR 306E
ENCODING 10830
SWIDTH 1400 0
DWIDTH 14 0
BBX 12 9 1 0
BITMAP
0F80
3240
6420
4420
8410
8820
8820
5040
2080
ENDCHAR
STARTCHAR 306F
ENCODING 10831
SWIDTH 1400 0
DWIDTH 14 0
BBX 10 10 2 -1
BITMAP
0100
8100
81C0
8700
8100
8100
8100
8F00
91C0
8F00
ENDCHAR
STARTCHAR 3070
ENCODING 10832
SWIDTH 1400 0
DWIDTH 14 0
BBX 11 11 1 -1
BITMAP
0040
4120
8100
8F80
8100
8100
8100
8100
8F80
4940
4E00
ENDCHAR
STARTCHAR 3071
ENCODING 10833
SWIDTH 1400 0
DWIDTH 14 0
BBX 12 12 1 -1
BITMAP
0020
0050
4170
4100
8FC0
8100
8100
8100
8100
8F80
4940
4F00
ENDCHAR
STARTCHAR 3072
ENCODING 10834
SWIDTH 1400 0
DWIDTH 14 0
BBX 10 10 2 -1
BITMAP
2100
E100
4180
4140
8100
8100
8100
8200
8200
7C00
ENDCHAR
STARTCHAR 3073
ENCODING 10835
SWIDTH 1400 0
DWIDTH 14 0
BBX 12 10 1 -1
BITMAP
3150
E1A0
2140
4160
4100
8100
8100
8100
4200
3C00
ENDCHAR
STARTCHAR 3074
ENCODING 10836
SWIDTH 1400 0
DWIDTH 14 0
BBX 12 12 1 -1
BITMAP
0020
0050
1130
E080
2140
4160
4100
8100
8100
4100
4200
3C00
ENDCHAR
STARTCHAR 3075
ENCODING 10837
SWIDTH 1400 0
DWIDTH 14 0
BBX 12 10 1 -1
BITMAP
0400
0200
0000
0800
0800
0400
0220
8110
6500
0200
ENDCHAR
STARTCHAR 3076
ENCODING 10838
SWIDTH 1400 0
DWIDTH 14 0
BBX 12 10 1 -1
BITMAP
0400
0220
0040
0800
0800
0400
0220
8110
6500
0200
ENDCHAR
STARTCHAR 3077
ENCODING 10839
SWIDTH 1400 0
DWIDTH 14 0
BBX 12 10 1 -1
BITMAP
0400
0260
0050
0820
0800
0400
0220
8110
6500
0200
ENDCHAR
STARTCHAR 3078
ENCODING 10840
SWIDTH 1400 0
DWIDTH 14 0
BBX 12 5 1 1
BITMAP
1C00
2200
C180
0060
0010
ENDCHAR
STARTCHAR 3079
ENCODING 10841
SWIDTH 1400 0
DWIDTH 14 0
BBX 12 5 1 1
BITMAP
1C00
2200
C180
0060
0010
ENDCHAR
STARTCHAR 307A
ENCODING 10842
SWIDTH 1400 0
DWIDTH 14 0
BBX 12 7 1 1
BITMAP
00E0
00A0
1C40
2200
C180
0060
0010
ENDCHAR
STARTCHAR 307B
ENCODING 10843
SWIDTH 1400 0
DWIDTH 14 0
BBX 10 10 2 -1
BITMAP
81C0
8700
8100
81C0
8F00
8100
8100
8F00
91C0
9F00
ENDCHAR
STARTCHAR 307C
ENCODING 10844
SWIDTH 1400 0
DWIDTH 14 0
BBX 11 10 1 -1
BITMAP
4FA0
4140
8100
9F80
8100
8100
8100
8F00
D1C0
0E00
ENDCHAR
STARTCHAR 307D
ENCODING 10845
SWIDTH 1400 0
DWIDTH 14 0
BBX 12 11 1 -1
BITMAP
0040
4FE0
8150
8130
9FC0
8100
8100
8100
CF00
91C0
0F00
ENDCHAR
STARTCHAR 307E
ENCODING 10846
SWIDTH 1400 0
DWIDTH 14 0
BBX 8 11 3 -1
BITMAP
08
08
7E
08
0A
3C
08
08
FC
8B
70
ENDCHAR
STARTCHAR 307F
ENCODING 10847
SWIDTH 1400 0
DWIDTH 14 0
BBX 11 10 1 -1
BITMAP
1E00
0400
0400
0880
0880
7780
90E0
A100
E100
0600
ENDCHAR
STARTCHAR 3080
ENCODING 10848
SWIDTH 1400 0
DWIDTH 14 0
BBX 10 11 2 -1
BITMAP
1000
1000
F880
1040
1000
F000
9000
9000
6040
2040
1F80
ENDCHAR
STARTCHAR 3081
ENCODING 10849
SWIDTH 1400 0
DWIDTH 14 0
BBX 11 11 1 -1
BITMAP
0100
2100
2300
3EC0
3220
5420
5420
8820
8C20
7040
0180
ENDCHAR
STARTCHAR 3082
ENCODING 10850
SWIDTH 1400 0
DWIDTH 14 0
BBX 7 11 4 -1
BITMAP
40
40
40
E0
80
84
E2
82
82
82
7C
ENDCHAR
STARTCHAR 3083
ENCODING 10851
SWIDTH 1400 0
DWIDTH 14 0
BBX 8 6 3 0
BITMAP
10
4F
31
E1
26
10
ENDCHAR
STARTCHAR 3084
ENCODING 10852
SWIDTH 1400 0
DWIDTH 14 0
BBX 10 10 2 0
BITMAP
0800
4400
47C0
3840
6040
9040
1180
0800
0800
0800
ENDCHAR
STARTCHAR 3085
ENCODING 10853
SWIDTH 1400 0
DWIDTH 14 0
BBX 8 7 3 -1
BITMAP
04
46
99
A9
49
5B
4C
ENDCHAR
STARTCHAR 3086
ENCODING 10854
SWIDTH 1400 0
DWIDTH 14 0
BBX 10 10 2 -1
BITMAP
0200
8200
8F80
B240
C240
C240
8240
8F80
8400
0800
ENDCHAR
STARTCHAR 3087
ENCODING 10855
SWIDTH 1400 0
DWIDTH 14 0
BBX 5 8 4 -2
BITMAP
10
10
18
10
10
F8
90
60
ENDCHAR
STARTCHAR 3088
ENCODING 10856
SWIDTH 1400 0
DWIDTH 14 0
BBX 9 11 3 -1
BITMAP
0800
0800
0800
0E00
0800
0800
0800
0800
FE00
8980
7000
ENDCHAR
STARTCHAR 3089
ENCODING 10857
SWIDTH 1400 0
DWIDTH 14 0
BBX 8 11 3 -1
BITMAP
20
10
00
80
80
9E
E2
81
02
02
1C
ENDCHAR
STARTCHAR 308A
ENCODING 10858
SWIDTH 1400 0
DWIDTH 14 0
BBX 6 11 4 -1
BITMAP
84
84
84
84
84
C4
84
84
08
08
10
ENDCHAR
STARTCHAR 308B
ENCODING 10859
SWIDTH 1400 0
DWIDTH 14 0
BBX 9 10 3 -1
BITMAP
7C00
0800
1000
2E00
7100
8080
0080
3900
4600
3C00
ENDCHAR
STARTCHAR 308C
ENCODING 10860
SWIDTH 1400 0
DWIDTH 14 0
BBX 11 11 2 -1
BITMAP
2000
2000
2300
FC80
3080
2080
6100
A100
A100
2160
2080
ENDCHAR
STARTCHAR 308D
ENCODING 10861
SWIDTH 1400 0
DWIDTH 14 0
BBX 10 10 2 -1
BITMAP
3E00
0400
0800
1000
3F80
6080
C040
0080
0080
0700
ENDCHAR
STARTCHAR 308E
ENCODING 10862
SWIDTH 1400 0
DWIDTH 14 0
BBX 8 7 3 -1
BITMAP
20
20
6F
31
61
A1
22
ENDCHAR
STARTCHAR 308F
ENCODING 10863
SWIDTH 1400 0
DWIDTH 14 0
BBX 10 11 2 -1
BITMAP
2000
2000
2000
E380
2C40
3040
6040
A040
2040
2180
2000
ENDCHAR
STARTCHAR 3090
ENCODING 10864
SWIDTH 1400 0
DWIDTH 14 0
BBX 10 10 2 -1
BITMAP
3C00
0400
0800
0F00
38C0
5040
9040
A640
A980
4700
ENDCHAR
STARTCHAR 3091
ENCODING 10865
SWIDTH 1400 0
DWIDTH 14 0
BBX 10 11 2 -1
BITMAP
0200
3E00
0400
0E00
1180
7C80
1480
1F00
2380
5C40
8840
ENDCHAR
STARTCHAR 3092
ENCODING 10866
SWIDTH 1400 0
DWIDTH 14 0
BBX 9 12 3 -2
BITMAP
1000
2000
F000
4000
4000
F980
8E00
1800
6000
4000
3000
0C00
ENDCHAR
STARTCHAR 3093
ENCODING 10867
SWIDTH 1400 0
DWIDTH 14 0
BBX 10 11 2 -1
BITMAP
0800
0800
1800
1000
1000
2000
3C00
4400
4440
8240
8380
ENDCHAR
STARTCHAR 30A1
ENCODING 11041
SWIDTH 1400 0
DWIDTH 14 0
BBX 6 6 4 -1
BITMAP
FC
24
28
20
40
80
ENDCHAR
STARTCHAR 30A2
ENCODING 11042
SWIDTH 1400 0
DWIDTH 14 0
BBX 10 9 2 0
BITMAP
FFC0
00C0
0980
0A00
0800
1000
1000
2000
4000
ENDCHAR
STARTCHAR 30A3
ENCODING 11043
SWIDTH 1400 0
DWIDTH 14 0
BBX 6 7 4 -1
BITMAP
04
0C
30
D0
10
10
10
ENDCHAR
STARTCHAR 30A4
ENCODING 11044
SWIDTH 1400 0
DWIDTH 14 0
BBX 8 11 3 -1
BITMAP
01
02
04
08
38
C8
08
08
08
08
08
ENDCHAR
STARTCHAR 30A5
ENCODING 11045
SWIDTH 1400 0
DWIDTH 14 0
BBX 6 6 4 -1
BITMAP
FC
84
84
08
10
20
ENDCHAR
STARTCHAR 30A6
ENCODING 11046
SWIDTH 1400 0
DWIDTH 14 0
BBX 9 11 2 -1
BITMAP
0800
0800
FF80
8080
8080
8080
0100
0100
0200
0400
1800
ENDCHAR
STARTCHAR 30A7
ENCODING 11047
SWIDTH 1400 0
DWIDTH 14 0
BBX 7 5 3 -2
BITMAP
FE
10
10
10
FE
ENDCHAR
STARTCHAR 30A8
ENCODING 11048
SWIDTH 1400 0
DWIDTH 14 0
BBX 11 7 1 1
BITMAP
7FC0
0400
0400
0400
0400
0400
FFE0
ENDCHAR
STARTCHAR 30A9
ENCODING 11049
SWIDTH 1400 0
DWIDTH 14 0
BBX 7 6 3 -1
BITMAP
08
FE
18
28
48
18
ENDCHAR
STARTCHAR 30AA
ENCODING 11050
SWIDTH 1400 0
DWIDTH 14 0
BBX 10 10 2 -1
BITMAP
0200
0200
FFC0
0600
0A00
1200
2200
4200
0200
0E00
ENDCHAR
STARTCHAR 30AB
ENCODING 11051
SWIDTH 1400 0
DWIDTH 14 0
BBX 9 10 2 -1
BITMAP
0800
0800
FF80
0880
0880
1080
1080
2080
C080
0300
ENDCHAR
STARTCHAR 30AC
ENCODING 11052
SWIDTH 1400 0
DWIDTH 14 0
BBX 11 11 1 -1
BITMAP
0020
0840
0800
FF80
0880
0880
1080
1080
2080
C080
0300
ENDCHAR
STARTCHAR 30AD
ENCODING 11053
SWIDTH 1400 0
DWIDTH 14 0
BBX 10 11 2 -1
BITMAP
0800
0800
0F80
7800
0800
09C0
FE00
0400
0400
0400
0400
ENDCHAR
STARTCHAR 30AE
ENCODING 11054
SWIDTH 1400 0
DWIDTH 14 0
BBX 10 11 2 0
BITMAP
0040
0080
1000
1100
FE00
0800
0800
FF00
0800
0800
0800
ENDCHAR
STARTCHAR 30AF
ENCODING 11055
SWIDTH 1400 0
DWIDTH 14 0
BBX 8 11 3 -1
BITMAP
08
10
1F
21
42
02
04
08
10
20
C0
ENDCHAR
STARTCHAR 30B0
ENCODING 11056
SWIDTH 1400 0
DWIDTH 14 0
BBX 10 11 2 -1
BITMAP
0840
1080
3F00
6100
8200
0200
0400
0800
1000
6000
8000
ENDCHAR
STARTCHAR 30B1
ENCODING 11057
SWIDTH 1400 0
DWIDTH 14 0
BBX 10 11 2 -1
BITMAP
1000
1000
2000
3FC0
4200
8200
0200
0400
0400
0800
1000
ENDCHAR
STARTCHAR 30B2
ENCODING 11058
SWIDTH 1400 0
DWIDTH 14 0
BBX 12 11 1 -1
BITMAP
0010
1020
1000
3FE0
2200
4200
8200
0200
0400
0800
1000
ENDCHAR
STARTCHAR 30B3
ENCODING 11059
SWIDTH 1400 0
DWIDTH 14 0
BBX 8 8 3 0
BITMAP
FF
01
01
01
01
01
FF
01
ENDCHAR
STARTCHAR 30B4
ENCODING 11060
SWIDTH 1400 0
DWIDTH 14 0
BBX 10 11 2 0
BITMAP
0040
0080
0000
FF00
0100
0100
0100
0100
0100
FF00
0100
ENDCHAR
STARTCHAR 30B5
ENCODING 11061
SWIDTH 1400 0
DWIDTH 14 0
BBX 12 11 1 -1
BITMAP
1080
1080
1080
FFF0
1080
1080
1080
0100
0100
0200
0C00
ENDCHAR
STARTCHAR 30B6
ENCODING 11062
SWIDTH 1400 0
DWIDTH 14 0
BBX 11 11 1 -1
BITMAP
1120
1120
1100
FFE0
1100
1100
1100
0200
0200
0400
0800
ENDCHAR
STARTCHAR 30B7
ENCODING 11063
SWIDTH 1400 0
DWIDTH 14 0
BBX 10 10 2 -1
BITMAP
2000
1000
0000
C040
2080
0100
0200
0C00
3000
4000
ENDCHAR
STARTCHAR 30B8
ENCODING 11064
SWIDTH 1400 0
DWIDTH 14 0
BBX 10 11 2 -1
BITMAP
0080
2000
1100
0000
C040
0080
0100
0200
0C00
3000
4000
ENDCHAR
STARTCHAR 30B9
ENCODING 11065
SWIDTH 1400 0
DWIDTH 14 0
BBX 9 8 2 0
BITMAP
7F00
0100
0200
0200
0600
0900
3080
C000
ENDCHAR
STARTCHAR 30BA
ENCODING 11066
SWIDTH 1400 0
DWIDTH 14 0
BBX 11 11 1 0
BITMAP
0020
0040
0020
7F00
0100
0200
0200
0600
0900
3080
C040
ENDCHAR
STARTCHAR 30BB
ENCODING 11067
SWIDTH 1400 0
DWIDTH 14 0
BBX 10 10 2 -1
BITMAP
1000
1000
10C0
1F40
F080
1100
1000
1000
1000
0FC0
ENDCHAR
STARTCHAR 30BC
ENCODING 11068
SWIDTH 1400 0
DWIDTH 14 0
BBX 11 10 1 -1
BITMAP
1020
1000
13C0
FC40
1080
1100
1000
1000
19C0
0600
ENDCHAR
STARTCHAR 30BD
ENCODING 11069
SWIDTH 1400 0
DWIDTH 14 0
BBX 8 10 3 -1
BITMAP
01
81
41
02
02
04
04
08
30
60
ENDCHAR
STARTCHAR 30BE
ENCODING 11070
SWIDTH 1400 0
DWIDTH 14 0
BBX 10 12 2 -1
BITMAP
0040
0080
0100
8100
8100
4200
0200
0400
0400
0800
3000
6000
ENDCHAR
STARTCHAR 30BF
ENCODING 11071
SWIDTH 1400 0
DWIDTH 14 0
BBX 8 11 3 -1
BITMAP
08
10
3F
21
41
9A
04
08
10
20
C0
ENDCHAR
STARTCHAR 30C0
ENCODING 11072
SWIDTH 1400 0
DWIDTH 14 0
BBX 10 11 2 -1
BITMAP
00C0
1040
3F00
2100
4200
9200
0C00
0800
1000
2000
C000
ENDCHAR
STARTCHAR 30C1
ENCODING 11073
SWIDTH 1400 0
DWIDTH 14 0
BBX 10 10 2 -1
BITMAP
0300
3C00
0400
FFC0
0400
0400
0800
0800
1000
6000
ENDCHAR
STARTCHAR 30C2
ENCODING 11074
SWIDTH 1400 0
DWIDTH 14 0
BBX 12 10 1 -1
BITMAP
0390
3C20
0400
FFE0
0400
0400
0800
0800
1000
2000
ENDCHAR
STARTCHAR 30C3
ENCODING 11075
SWIDTH 1400 0
DWIDTH 14 0
BBX 6 6 4 -1
BITMAP
20
A4
08
08
10
20
ENDCHAR
STARTCHAR 30C4
ENCODING 11076
SWIDTH 1400 0
DWIDTH 14 0
BBX 10 9 2 -1
BITMAP
8840
8840
4080
0080
0100
0200
0200
0C00
1000
ENDCHAR
STARTCHAR 30C5
ENCODING 11077
SWIDTH 1400 0
DWIDTH 14 0
BBX 11 11 1 -1
BITMAP
0020
0000
8840
4840
4080
0080
0100
0100
0200
0C00
1000
ENDCHAR
STARTCHAR 30C6
ENCODING 11078
SWIDTH 1400 0
DWIDTH 14 0
BBX 10 10 2 -1
BITMAP
7F00
0000
0000
FFC0
0400
0400
0800
0800
1000
2000
ENDCHAR
STARTCHAR 30C7
ENCODING 11079
SWIDTH 1400 0
DWIDTH 14 0
BBX 11 10 1 -1
BITMAP
3F80
0020
0000
FFC0
0400
0400
0400
0800
1000
2000
ENDCHAR
STARTCHAR 30C8
ENCODING 11080
SWIDTH 1400 0
DWIDTH 14 0
BBX 4 11 5 -1
BITMAP
80
80
80
80
C0
A0
90
80
80
80
80
ENDCHAR
STARTCHAR 30C9
ENCODING 11081
SWIDTH 1400 0
DWIDTH 14 0
BBX 6 11 4 -1
BITMAP
04
90
88
80
C0
A0
90
80
80
80
80
ENDCHAR
STARTCHAR 30CA
ENCODING 11082
SWIDTH 1400 0
DWIDTH 14 0
BBX 10 11 2 -1
BITMAP
0400
0400
0400
FFC0
0400
0400
0800
0800
1000
1000
6000
ENDCHAR
STARTCHAR 30CB
ENCODING 11083
SWIDTH 1400 0
DWIDTH 14 0
BBX 10 7 2 1
BITMAP
7F00
0000
0000
0000
0000
0000
FFC0
ENDCHAR
STARTCHAR 30CC
ENCODING 11084
SWIDTH 1400 0
DWIDTH 14 0
BBX 8 10 3 -1
BITMAP
7F
01
01
22
1A
06
0B
10
60
80
ENDCHAR
STARTCHAR 30CD
ENCODING 11085
SWIDTH 1400 0
DWIDTH 14 0
BBX 9 11 3 -1
BITMAP
0800
0800
FF00
0200
0400
0800
1900
E880
0800
0800
0800
ENDCHAR
STARTCHAR 30CE
ENCODING 11086
SWIDTH 1400 0
DWIDTH 14 0
BBX 8 10 3 -1
BITMAP
01
01
02
02
04
08
08
10
60
80
ENDCHAR
STARTCHAR 30CF
ENCODING 11087
SWIDTH 1400 0
DWIDTH 14 0
BBX 12 7 1 1
BITMAP
0080
1080
1040
1020
2020
4010
8000
ENDCHAR
STARTCHAR 30D0
ENCODING 11088
SWIDTH 1400 0
DWIDTH 14 0
BBX 12 9 1 1
BITMAP
0010
0000
1020
1080
1080
2040
2040
4020
8020
ENDCHAR
STARTCHAR 30D1
ENCODING 11089
SWIDTH 1400 0
DWIDTH 14 0
BBX 12 8 1 1
BITMAP
0070
0060
1100
1080
2080
2040
4040
8020
ENDCHAR
STARTCHAR 30D2
ENCODING 11090
SWIDTH 1400 0
DWIDTH 14 0
BBX 8 9 3 0
BITMAP
80
80
84
B8
C0
80
80
81
7E
ENDCHAR
STARTCHAR 30D3
ENCODING 11091
SWIDTH 1400 0
DWIDTH 14 0
BBX 9 10 2 0
BITMAP
8100
8080
8200
9C00
E000
8000
8000
8000
8100
7E00
ENDCHAR
STARTCHAR 30D4
ENCODING 11092
SWIDTH 1400 0
DWIDTH 14 0
BBX 10 10 2 0
BITMAP
81C0
8140
8280
8C00
F000
8000
8000
8000
8100
7E00
ENDCHAR
STARTCHAR 30D5
ENCODING 11093
SWIDTH 1400 0
DWIDTH 14 0
BBX 10 9 2 -1
BITMAP
FFC0
0080
0080
0100
0100
0200
0400
0800
3000
ENDCHAR
STARTCHAR 30D6
ENCODING 11094
SWIDTH 1400 0
DWIDTH 14 0
BBX 11 12 1 -1
BITMAP
0020
0040
0000
FFC0
0080
0080
0080
0100
0200
0400
0800
3000
ENDCHAR
STARTCHAR 30D7
ENCODING 11095
SWIDTH 1400 0
DWIDTH 14 0
BBX 12 12 1 -1
BITMAP
0060
0050
0020
FFC0
0080
0080
0080
0100
0200
0400
0800
3000
ENDCHAR
STARTCHAR 30D8
ENCODING 11096
SWIDTH 1400 0
DWIDTH 14 0
BBX 12 6 1 2
BITMAP
0800
1400
2200
C180
0040
0030
ENDCHAR
STARTCHAR 30D9
ENCODING 11097
SWIDTH 1400 0
DWIDTH 14 0
BBX 12 7 1 2
BITMAP
0040
0880
1400
2200
C180
0040
0030
ENDCHAR
STARTCHAR 30DA
ENCODING 11098
SWIDTH 1400 0
DWIDTH 14 0
BBX 12 7 1 2
BITMAP
0180
0940
14C0
2200
C180
0040
0030
ENDCHAR
STARTCHAR 30DB
ENCODING 11099
SWIDTH 1400 0
DWIDTH 14 0
BBX 11 10 2 -1
BITMAP
0400
0400
7FE0
0400
0400
4480
4440
8440
0400
1800
ENDCHAR
STARTCHAR 30DC
ENCODING 11100
SWIDTH 1400 0
DWIDTH 14 0
BBX 11 11 2 -1
BITMAP
0040
0480
0400
7FE0
0400
0400
4480
4440
8440
0400
1800
ENDCHAR
STARTCHAR 30DD
ENCODING 11101
SWIDTH 1400 0
DWIDTH 14 0
BBX 11 11 2 -1
BITMAP
00E0
04A0
0440
7FE0
0400
0400
4480
4440
8440
0400
1800
ENDCHAR
STARTCHAR 30DE
ENCODING 11102
SWIDTH 1400 0
DWIDTH 14 0
BBX 10 8 2 0
BITMAP
FFC0
0040
0080
0100
1200
0C00
0400
0400
ENDCHAR
STARTCHAR 30DF
ENCODING 11103
SWIDTH 1400 0
DWIDTH 14 0
BBX 6 10 4 -1
BITMAP
60
18
00
C0
38
00
00
80
70
0C
ENDCHAR
STARTCHAR 30E0
ENCODING 11104
SWIDTH 1400 0
DWIDTH 14 0
BBX 10 9 2 0
BITMAP
0C00
0800
0800
1000
1000
2100
2080
C340
3C40
ENDCHAR
STARTCHAR 30E1
ENCODING 11105
SWIDTH 1400 0
DWIDTH 14 0
BBX 8 10 3 -1
BITMAP
01
01
02
12
0C
04
0A
10
60
80
ENDCHAR
STARTCHAR 30E2
ENCODING 11106
SWIDTH 1400 0
DWIDTH 14 0
BBX 10 9 2 0
BITMAP
7F80
0800
0800
0800
FFC0
0800
0800
0800
0FC0
ENDCHAR
STARTCHAR 30E3
ENCODING 11107
SWIDTH 1400 0
DWIDTH 14 0
BBX 7 6 3 0
BITMAP
20
26
FA
14
10
10
ENDCHAR
STARTCHAR 30E4
ENCODING 11108
SWIDTH 1400 0
DWIDTH 14 0
BBX 10 8 2 0
BITMAP
1000
13C0
FC40
1080
1100
0800
0800
0800
ENDCHAR
STARTCHAR 30E5
ENCODING 11109
SWIDTH 1400 0
DWIDTH 14 0
BBX 8 5 3 -1
BITMAP
3C
04
04
04
FF
ENDCHAR
STARTCHAR 30E6
ENCODING 11110
SWIDTH 1400 0
DWIDTH 14 0
BBX 12 7 1 1
BITMAP
3F00
0100
0100
0100
0100
0100
FFF0
ENDCHAR
STARTCHAR 30E7
ENCODING 11111
SWIDTH 1400 0
DWIDTH 14 0
BBX 6 6 4 -1
BITMAP
FC
04
04
FC
04
FC
ENDCHAR
STARTCHAR 30E8
ENCODING 11112
SWIDTH 1400 0
DWIDTH 14 0
BBX 8 8 3 0
BITMAP
FF
01
01
FF
01
01
01
FF
ENDCHAR
STARTCHAR 30E9
ENCODING 11113
SWIDTH 1400 0
DWIDTH 14 0
BBX 8 10 3 -1
BITMAP
7E
00
00
FF
01
02
02
04
18
20
ENDCHAR
STARTCHAR 30EA
ENCODING 11114
SWIDTH 1400 0
DWIDTH 14 0
BBX 6 11 4 -1
BITMAP
84
84
84
84
84
84
08
08
08
10
20
ENDCHAR
STARTCHAR 30EB
ENCODING 11115
SWIDTH 1400 0
DWIDTH 14 0
BBX 12 9 1 0
BITMAP
0200
1200
1200
1200
2210
2220
2240
4380
8200
ENDCHAR
STARTCHAR 30EC
ENCODING 11116
SWIDTH 1400 0
DWIDTH 14 0
BBX 9 9 3 0
BITMAP
8000
8000
8000
8080
8180
8200
8400
9800
E000
ENDCHAR
STARTCHAR 30ED
ENCODING 11117
SWIDTH 1400 0
DWIDTH 14 0
BBX 8 8 3 0
BITMAP
FF
81
81
81
81
81
FF
81
ENDCHAR
STARTCHAR 30EE
ENCODING 11118
SWIDTH 1400 0
DWIDTH 14 0
BBX 7 6 4 -1
BITMAP
FE
82
84
04
08
10
ENDCHAR
STARTCHAR 30EF
ENCODING 11119
SWIDTH 1400 0
DWIDTH 14 0
BBX 9 10 2 -1
BITMAP
FF80
8080
8080
8080
0080
0100
0100
0200
0400
0800
ENDCHAR
STARTCHAR 30F0
ENCODING 11120
SWIDTH 1400 0
DWIDTH 14 0
BBX 11 11 2 -1
BITMAP
0200
0200
0200
FFC0
2200
2200
2200
FFE0
0200
0200
0200
ENDCHAR
STARTCHAR 30F1
ENCODING 11121
SWIDTH 1400 0
DWIDTH 14 0
BBX 11 8 1 1
BITMAP
3FC0
0060
0480
0500
0400
0400
0400
FFE0
ENDCHAR
STARTCHAR 30F2
ENCODING 11122
SWIDTH 1400 0
DWIDTH 14 0
BBX 8 10 3 -1
BITMAP
FF
01
01
FE
02
02
04
08
30
40
ENDCHAR
STARTCHAR 30F3
ENCODING 11123
SWIDTH 1400 0
DWIDTH 14 0
BBX 10 9 2 0
BITMAP
C000
2000
0000
0040
0080
0300
0400
1800
E000
ENDCHAR
STARTCHAR 30F4
ENCODING 11124
SWIDTH 1400 0
DWIDTH 14 0
BBX 11 12 1 -1
BITMAP
0020
0020
0840
0800
FF80
8080
8080
8100
0100
0200
0400
1800
ENDCHAR
STARTCHAR 30F5
ENCODING 11125
SWIDTH 1400 0
DWIDTH 14 0
BBX 6 6 4 -2
BITMAP
FC
24
24
44
84
0C
ENDCHAR
STARTCHAR 30F6
ENCODING 11126
SWIDTH 1400 0
DWIDTH 14 0
BBX 8 7 3 -2
BITMAP
20
3F
44
88
08
08
30
ENDCHAR
STARTCHAR 0410
ENCODING 11297
SWIDTH 1400 0
DWIDTH 14 0
BBX 8 10 3 0
BITMAP
18
18
18
24
24
42
7E
42
81
81
ENDCHAR
STARTCHAR 0411
ENCODING 11298
SWIDTH 1400 0
DWIDTH 14 0
BBX 7 10 3 0
BITMAP
FC
80
80
80
F8
84
82
82
82
FC
ENDCHAR
STARTCHAR 0412
ENCODING 11299
SWIDTH 1400 0
DWIDTH 14 0
BBX 8 10 3 0
BITMAP
FC
82
82
82
FC
82
81
81
83
FE
ENDCHAR
STARTCHAR 0413
ENCODING 11300
SWIDTH 1400 0
DWIDTH 14 0
BBX 6 10 4 0
BITMAP
FC
80
80
80
80
80
80
80
80
80
ENDCHAR
STARTCHAR 0414
ENCODING 11301
SWIDTH 1400 0
DWIDTH 14 0
BBX 10 13 2 -3
BITMAP
3F80
2080
2080
2080
2080
2080
2080
2080
2080
FFC0
8040
8040
8040
ENDCHAR
STARTCHAR 0415
ENCODING 11302
SWIDTH 1400 0
DWIDTH 14 0
BBX 7 10 4 0
BITMAP
FE
80
80
80
FC
80
80
80
80
FE
ENDCHAR
STARTCHAR 0401
ENCODING 11303
SWIDTH 1400 0
DWIDTH 14 0
BBX 7 11 4 0
BITMAP
48
00
FE
80
80
80
FC
80
80
80
FE
ENDCHAR
STARTCHAR 0416
ENCODING 11304
SWIDTH 1400 0
DWIDTH 14 0
BBX 11 10 1 0
BITMAP
C460
2480
2480
2480
1F00
64C0
4440
8440
8420
8420
ENDCHAR
STARTCHAR 0417
ENCODING 11305
SWIDTH 1400 0
DWIDTH 14 0
BBX 8 10 3 0
BITMAP
3C
42
81
02
04
02
01
81
41
3E
ENDCHAR
STARTCHAR 0418
ENCODING 11306
SWIDTH 1400 0
DWIDTH 14 0
BBX 8 10 3 0
BITMAP
81
83
85
89
89
91
A1
A1
C1
81
ENDCHAR
STARTCHAR 0419
ENCODING 11307
SWIDTH 1400 0
DWIDTH 14 0
BBX 8 11 3 0
BITMAP
24
18
81
83
85
89
89
91
A1
C1
81
ENDCHAR
STARTCHAR 041A
ENCODING 11308
SWIDTH 1400 0
DWIDTH 14 0
BBX 6 10 4 0
BITMAP
8C
88
88
90
F8
84
84
84
84
84
ENDCHAR
STARTCHAR 041B
ENCODING 11309
SWIDTH 1400 0
DWIDTH 14 0
BBX 9 10 2 0
BITMAP
3F80
2080
2080
2080
2080
2080
2080
2080
2080
C080
ENDCHAR
STARTCHAR 041C
ENCODING 11310
SWIDTH 1400 0
DWIDTH 14 0
BBX 10 10 2 0
BITMAP
C0C0
C0C0
C140
A140
A140
9240
9240
9440
8C40
8C40
ENDCHAR
STARTCHAR 041D
ENCODING 11311
SWIDTH 1400 0
DWIDTH 14 0
BBX 8 10 3 0
BITMAP
81
81
81
81
FF
81
81
81
81
81
ENDCHAR
STARTCHAR 041E
ENCODING 11312
SWIDTH 1400 0
DWIDTH 14 0
BBX 10 10 2 0
BITMAP
3F00
6180
C0C0
8040
8040
8040
8040
C0C0
6180
3F00
ENDCHAR
STARTCHAR 041F
ENCODING 11313
SWIDTH 1400 0
DWIDTH 14 0
BBX 8 10 3 0
BITMAP
FF
81
81
81
81
81
81
81
81
81
ENDCHAR
STARTCHAR 0420
ENCODING 11314
SWIDTH 1400 0
DWIDTH 14 0
BBX 7 10 3 0
BITMAP
FC
86
82
82
86
F8
80
80
80
80
ENDCHAR
STARTCHAR 0421
ENCODING 11315
SWIDTH 1400 0
DWIDTH 14 0
BBX 8 10 3 0
BITMAP
3E
42
81
80
80
80
80
81
41
3E
ENDCHAR
STARTCHAR 0422
ENCODING 11316
SWIDTH 1400 0
DWIDTH 14 0
BBX 7 10 4 0
BITMAP
FE
10
10
10
10
10
10
10
10
10
ENDCHAR
STARTCHAR 0423
ENCODING 11317
SWIDTH 1400 0
DWIDTH 14 0
BBX 8 10 3 0
BITMAP
81
42
42
24
24
28
18
10
10
20
ENDCHAR
STARTCHAR 0424
ENCODING 11318
SWIDTH 1400 0
DWIDTH 14 0
BBX 10 10 2 0
BITMAP
0800
3F00
4980
88C0
8840
8840
8840
4880
3F00
0800
ENDCHAR
STARTCHAR 0425
ENCODING 11319
SWIDTH 1400 0
DWIDTH 14 0
BBX 8 10 3 0
BITMAP
42
42
24
18
18
18
24
24
42
81
ENDCHAR
STARTCHAR 0426
ENCODING 11320
SWIDTH 1400 0
DWIDTH 14 0
BBX 8 13 3 -3
BITMAP
82
82
82
82
82
82
82
82
82
FF
01
01
01
ENDCHAR
STARTCHAR 0427
ENCODING 11321
SWIDTH 1400 0
DWIDTH 14 0
BBX 7 10 3 0
BITMAP
02
82
82
82
42
46
3A
02
02
02
ENDCHAR
STARTCHAR 0428
ENCODING 11322
SWIDTH 1400 0
DWIDTH 14 0
BBX 10 10 2 0
BITMAP
8840
8840
8840
8840
8840
8840
8840
8840
8840
FFC0
ENDCHAR
STARTCHAR 0429
ENCODING 11323
SWIDTH 1400 0
DWIDTH 14 0
BBX 10 13 2 -3
BITMAP
8880
8880
8880
8880
8880
8880
8880
8880
8880
FFC0
0040
0040
0040
ENDCHAR
STARTCHAR 042A
ENCODING 11324
SWIDTH 1400 0
DWIDTH 14 0
BBX 9 10 3 0
BITMAP
E000
2000
2000
2000
3E00
2180
2080
2080
2080
3F00
ENDCHAR
STARTCHAR 042B
ENCODING 11325
SWIDTH 1400 0
DWIDTH 14 0
BBX 8 10 3 0
BITMAP
81
81
81
81
F9
8D
85
85
8D
F9
ENDCHAR
STARTCHAR 042C
ENCODING 11326
SWIDTH 1400 0
DWIDTH 14 0
BBX 7 10 4 0
BITMAP
80
80
80
80
FC
86
82
82
86
FC
ENDCHAR
STARTCHAR 042D
ENCODING 11327
SWIDTH 1400 0
DWIDTH 14 0
BBX 9 10 2 0
BITMAP
1E00
2100
4080
8080
0080
0F80
0080
0080
4100
3E00
ENDCHAR
STARTCHAR 042E
ENCODING 11328
SWIDTH 1400 0
DWIDTH 14 0
BBX 12 10 1 0
BITMAP
87C0
8820
9030
9010
F010
9010
9010
9020
8820
87C0
ENDCHAR
STARTCHAR 042F
ENCODING 11329
SWIDTH 1400 0
DWIDTH 14 0
BBX 7 10 4 0
BITMAP
7E
82
82
82
C2
7E
82
82
82
82
ENDCHAR
STARTCHAR 0430
ENCODING 11345
SWIDTH 1400 0
DWIDTH 14 0
BBX 6 8 4 -1
BITMAP
78
88
04
3C
C4
84
DC
20
ENDCHAR
STARTCHAR 0431
ENCODING 11346
SWIDTH 1400 0
DWIDTH 14 0
BBX 7 10 3 0
BITMAP
3E
40
80
98
E4
82
82
82
44
28
ENDCHAR
STARTCHAR 0432
ENCODING 11347
SWIDTH 1400 0
DWIDTH 14 0
BBX 5 7 4 0
BITMAP
F0
88
88
F8
88
88
88
ENDCHAR
STARTCHAR 0433
ENCODING 11348
SWIDTH 1400 0
DWIDTH 14 0
BBX 4 7 5 0
BITMAP
F0
80
80
80
80
80
80
ENDCHAR
STARTCHAR 0434
ENCODING 11349
SWIDTH 1400 0
DWIDTH 14 0
BBX 8 10 3 -3
BITMAP
7E
42
42
42
42
42
FF
81
81
81
ENDCHAR
STARTCHAR 0435
ENCODING 11350
SWIDTH 1400 0
DWIDTH 14 0
BBX 7 7 3 0
BITMAP
3C
44
82
7E
80
42
3C
ENDCHAR
STARTCHAR 0451
ENCODING 11351
SWIDTH 1400 0
DWIDTH 14 0
BBX 7 9 3 0
BITMAP
24
00
3C
44
42
7E
80
42
3C
ENDCHAR
STARTCHAR 0436
ENCODING 11352
SWIDTH 1400 0
DWIDTH 14 0
BBX 9 7 2 0
BITMAP
C980
4A00
2A00
3E00
4900
4900
0900
ENDCHAR
STARTCHAR 0437
ENCODING 11353
SWIDTH 1400 0
DWIDTH 14 0
BBX 6 8 4 0
BITMAP
78
88
04
08
04
84
84
78
ENDCHAR
STARTCHAR 0438
ENCODING 11354
SWIDTH 1400 0
DWIDTH 14 0
BBX 6 7 4 0
BITMAP
84
8C
94
A4
A4
C4
84
ENDCHAR
STARTCHAR 0439
ENCODING 11355
SWIDTH 1400 0
DWIDTH 14 0
BBX 6 9 4 0
BITMAP
48
30
84
8C
94
A4
A4
C4
84
ENDCHAR
STARTCHAR 043A
ENCODING 11356
SWIDTH 1400 0
DWIDTH 14 0
BBX 5 7 4 0
BITMAP
88
90
A0
F0
88
88
88
ENDCHAR
STARTCHAR 043B
ENCODING 11357
SWIDTH 1400 0
DWIDTH 14 0
BBX 6 7 4 0
BITMAP
7C
44
44
44
44
44
84
ENDCHAR
STARTCHAR 043C
ENCODING 11358
SWIDTH 1400 0
DWIDTH 14 0
BBX 8 7 3 0
BITMAP
C3
C3
A5
A5
A9
99
99
ENDCHAR
STARTCHAR 043D
ENCODING 11359
SWIDTH 1400 0
DWIDTH 14 0
BBX 6 7 4 0
BITMAP
84
84
84
FC
84
84
84
ENDCHAR
STARTCHAR 043E
ENCODING 11360
SWIDTH 1400 0
DWIDTH 14 0
BBX 6 7 4 0
BITMAP
78
84
84
84
84
48
30
ENDCHAR
STARTCHAR 043F
ENCODING 11361
SWIDTH 1400 0
DWIDTH 14 0
BBX 6 7 4 0
BITMAP
FC
84
84
84
84
84
84
ENDCHAR
STARTCHAR 0440
ENCODING 11362
SWIDTH 1400 0
DWIDTH 14 0
BBX 7 11 3 -3
BITMAP
B8
C4
82
82
82
82
C6
BC
80
80
80
ENDCHAR
STARTCHAR 0441
ENCODING 11363
SWIDTH 1400 0
DWIDTH 14 0
BBX 6 8 4 -1
BITMAP
38
44
80
80
80
80
44
38
ENDCHAR
STARTCHAR 0442
ENCODING 11364
SWIDTH 1400 0
DWIDTH 14 0
BBX 6 7 4 0
BITMAP
FC
20
20
20
20
20
20
ENDCHAR
STARTCHAR 0443
ENCODING 11365
SWIDTH 1400 0
DWIDTH 14 0
BBX 6 10 4 -3
BITMAP
84
84
48
48
48
30
30
20
20
40
ENDCHAR
STARTCHAR 0444
ENCODING 11366
SWIDTH 1400 0
DWIDTH 14 0
BBX 11 13 1 -3
BITMAP
0400
0400
0400
7FC0
4440
4420
C420
C420
4420
7FC0
0400
0400
0400
ENDCHAR
STARTCHAR 0445
ENCODING 11367
SWIDTH 1400 0
DWIDTH 14 0
BBX 6 7 4 0
BITMAP
84
48
30
20
30
48
84
ENDCHAR
STARTCHAR 0446
ENCODING 11368
SWIDTH 1400 0
DWIDTH 14 0
BBX 6 11 4 -3
BITMAP
08
88
88
88
88
88
88
FC
04
04
04
ENDCHAR
STARTCHAR 0447
ENCODING 11369
SWIDTH 1400 0
DWIDTH 14 0
BBX 5 7 4 0
BITMAP
88
88
88
98
68
08
08
ENDCHAR
STARTCHAR 0448
ENCODING 11370
SWIDTH 1400 0
DWIDTH 14 0
BBX 8 8 3 0
BITMAP
09
89
89
89
89
89
89
FF
ENDCHAR
STARTCHAR 0449
ENCODING 11371
SWIDTH 1400 0
DWIDTH 14 0
BBX 8 10 3 -3
BITMAP
92
92
92
92
92
92
FF
01
01
01
ENDCHAR
STARTCHAR 044A
ENCODING 11372
SWIDTH 1400 0
DWIDTH 14 0
BBX 7 7 3 0
BITMAP
E0
20
20
3E
22
22
3E
ENDCHAR
STARTCHAR 044B
ENCODING 11373
SWIDTH 1400 0
DWIDTH 14 0
BBX 6 7 4 0
BITMAP
84
84
84
F4
8C
8C
F4
ENDCHAR
STARTCHAR 044C
ENCODING 11374
SWIDTH 1400 0
DWIDTH 14 0
BBX 6 7 4 0
BITMAP
80
80
F8
84
84
84
F8
ENDCHAR
STARTCHAR 044D
ENCODING 11375
SWIDTH 1400 0
DWIDTH 14 0
BBX 6 7 4 0
BITMAP
70
88
04
3C
04
88
70
ENDCHAR
STARTCHAR 044E
ENCODING 11376
SWIDTH 1400 0
DWIDTH 14 0
BBX 8 8 3 -1
BITMAP
9E
A1
C1
C1
C1
A3
96
08
ENDCHAR
STARTCHAR 044F
ENCODING 11377
SWIDTH 1400 0
DWIDTH 14 0
BBX 5 7 5 0
BITMAP
78
88
88
88
F8
88
88
ENDCHAR
STARTCHAR AC00
ENCODING 12321
SWIDTH 1400 0
DWIDTH 14 0
BBX 12 13 1 -2
BITMAP
0040
0040
FC40
0440
0440
0440
0870
0840
1040
2040
4040
8040
0040
ENDCHAR
STARTCHAR AC01
ENCODING 12322
SWIDTH 1400 0
DWIDTH 14 0
BBX 12 13 1 -2
BITMAP
0040
FC40
0440
0440
0840
1070
2040
C040
0040
3FC0
0040
0040
0040
ENDCHAR
STARTCHAR AC04
ENCODING 12323
SWIDTH 1400 0
DWIDTH 14 0
BBX 12 13 1 -2
BITMAP
0040
FC40
0440
0440
0840
0870
3040
C040
0040
4040
4000
4000
7FC0
ENDCHAR
STARTCHAR AC07
ENCODING 12324
SWIDTH 1400 0
DWIDTH 14 0
BBX 12 13 1 -2
BITMAP
0040
FC40
0440
0440
0870
1040
6040
8040
0000
7FC0
4000
4000
7FC0
ENDCHAR
STARTCHAR AC08
ENCODING 12325
SWIDTH 1400 0
DWIDTH 14 0
BBX 12 13 1 -2
BITMAP
0040
FC40
0440
0840
0870
1040
6040
0040
7FC0
0040
7FC0
4000
7FC0
ENDCHAR
STARTCHAR AC09
ENCODING 12326
SWIDTH 1400 0
DWIDTH 14 0
BBX 12 13 1 -2
BITMAP
0040
FC40
0440
0440
0870
1040
E040
0000
7BC0
0840
7840
4040
7C40
ENDCHAR
STARTCHAR AC0A
ENCODING 12327
SWIDTH 1400 0
DWIDTH 14 0
BBX 12 14 1 -3
BITMAP
0040
FC40
0440
0840
0870
1040
6040
8000
7BC0
0A40
7A40
4240
4FC0
3040
ENDCHAR
STARTCHAR AC10
ENCODING 12328
SWIDTH 1400 0
DWIDTH 14 0
BBX 12 14 1 -3
BITMAP
0040
FC40
0440
0440
0870
1040
6040
8040
0000
7FC0
4040
4040
7FC0
4000
ENDCHAR
STARTCHAR AC11
ENCODING 12329
SWIDTH 1400 0
DWIDTH 14 0
BBX 12 13 1 -2
BITMAP
0040
FC40
0440
0440
0840
1070
6040
8040
4040
4040
7FC0
4040
7FC0
ENDCHAR
STARTCHAR AC12
ENCODING 12330
SWIDTH 1400 0
DWIDTH 14 0
BBX 12 12 1 -2
BITMAP
FC40
0440
0440
0870
1040
6040
4400
4400
7C40
44C0
4520
7F30
ENDCHAR
STARTCHAR AC13
ENCODING 12331
SWIDTH 1400 0
DWIDTH 14 0
BBX 12 13 1 -2
BITMAP
0040
FC40
0440
0440
0840
0870
1040
6040
0240
0240
0500
18C0
2020
ENDCHAR
STARTCHAR AC14
ENCODING 12332
SWIDTH 1400 0
DWIDTH 14 0
BBX 12 13 1 -2
BITMAP
0040
FC40
0440
0440
0870
0840
3040
C000
0040
1840
18C0
24A0
C110
ENDCHAR
STARTCHAR AC15
ENCODING 12333
SWIDTH 1400 0
DWIDTH 14 0
BBX 12 13 1 -2
BITMAP
0040
FC40
0440
0440
0840
0870
3040
C040
0F40
70A0
4020
6060
3FC0
ENDCHAR
STARTCHAR AC16
ENCODING 12334
SWIDTH 1400 0
DWIDTH 14 0
BBX 12 13 1 -2
BITMAP
0040
FC40
0440
0440
0840
1070
6040
0040
7FC0
0400
0A00
1100
E0E0
ENDCHAR
STARTCHAR AC17
ENCODING 12335
SWIDTH 1400 0
DWIDTH 14 0
BBX 12 14 1 -3
BITMAP
0040
FC40
0440
0840
0870
3040
C040
0F00
3FC0
0400
0600
0900
1080
6060
ENDCHAR
STARTCHAR AC19
ENCODING 12336
SWIDTH 1400 0
DWIDTH 14 0
BBX 12 13 1 -2
BITMAP
0040
FC40
0440
0440
0870
1040
6040
0000
7FC0
4000
7FC0
4000
7FC0
ENDCHAR
STARTCHAR AC1A
ENCODING 12337
SWIDTH 1400 0
DWIDTH 14 0
BBX 12 13 1 -2
BITMAP
0040
FC40
0440
0440
0840
1070
6040
0040
7FC0
1100
1100
1100
FFE0
ENDCHAR
STARTCHAR AC1B
ENCODING 12338
SWIDTH 1400 0
DWIDTH 14 0
BBX 12 13 1 -2
BITMAP
0040
FC40
0440
0440
0870
1040
6040
8F00
7FE0
0000
3FE0
2020
1FC0
ENDCHAR
STARTCHAR AC1C
ENCODING 12339
SWIDTH 1400 0
DWIDTH 14 0
BBX 11 13 2 -2
BITMAP
0120
0120
F920
0920
0920
1120
11E0
1120
2120
4120
8120
0120
0120
ENDCHAR
STARTCHAR AC1D
ENCODING 12340
SWIDTH 1400 0
DWIDTH 14 0
BBX 12 12 1 -2
BITMAP
7C90
0490
0890
0890
10F0
2090
C090
0010
3FF0
0010
0010
0010
ENDCHAR
STARTCHAR AC20
ENCODING 12341
SWIDTH 1400 0
DWIDTH 14 0
BBX 11 13 2 -2
BITMAP
0020
F920
0920
0920
1120
1120
21E0
C120
0120
4120
4020
4000
7FE0
ENDCHAR
STARTCHAR AC24
ENCODING 12342
SWIDTH 1400 0
DWIDTH 14 0
BBX 11 13 2 -2
BITMAP
0120
F920
0920
0920
11E0
2120
4120
8000
7FE0
0020
7FE0
4000
7FE0
ENDCHAR
STARTCHAR AC2C
ENCODING 12343
SWIDTH 1400 0
DWIDTH 14 0
BBX 11 14 2 -3
BITMAP
0020
F920
0920
1120
1120
21E0
4120
8120
0120
7FE0
4020
4020
7FE0
4000
ENDCHAR
STARTCHAR AC2D
ENCODING 12344
SWIDTH 1400 0
DWIDTH 14 0
BBX 11 14 2 -3
BITMAP
0120
F920
0920
1120
11E0
2120
4120
8120
4020
4020
7FE0
4020
7FE0
4000
ENDCHAR
STARTCHAR AC2F
ENCODING 12345
SWIDTH 1400 0
DWIDTH 14 0
BBX 12 13 1 -2
BITMAP
0020
7920
0920
0920
0920
11E0
1120
2120
C220
0300
0580
0840
3030
ENDCHAR
STARTCHAR AC30
ENCODING 12346
SWIDTH 1400 0
DWIDTH 14 0
BBX 11 13 2 -2
BITMAP
0040
FA40
0A40
0A40
1240
13C0
2240
C240
0880
0880
1980
2940
4620
ENDCHAR
STARTCHAR AC31
ENCODING 12347
SWIDTH 1400 0
DWIDTH 14 0
BBX 11 13 2 -2
BITMAP
0020
F920
1120
1120
1120
21E0
4120
8120
0120
3FC0
4020
4020
3FC0
ENDCHAR
STARTCHAR AC38
ENCODING 12348
SWIDTH 1400 0
DWIDTH 14 0
BBX 12 14 1 -3
BITMAP
0040
0040
FC40
0440
0440
0470
0440
0840
1070
2040
4040
8040
0040
0040
ENDCHAR
STARTCHAR AC39
ENCODING 12349
SWIDTH 1400 0
DWIDTH 14 0
BBX 12 14 1 -3
BITMAP
0040
FC40
0440
0470
0840
1040
6070
8040
0040
7FC0
0040
0040
0040
0040
ENDCHAR
STARTCHAR AC3C
ENCODING 12350
SWIDTH 1400 0
DWIDTH 14 0
BBX 12 13 1 -2
BITMAP
0040
FC40
0440
0470
0840
0840
3040
C070
0040
4040
4040
4000
7FC0
ENDCHAR
STARTCHAR AC40
ENCODING 12351
SWIDTH 1400 0
DWIDTH 14 0
BBX 12 13 1 -2
BITMAP
0040
FC40
0440
0470
0840
1040
E070
0040
7FC0
0040
7FC0
4000
7FC0
ENDCHAR
STARTCHAR AC4B
ENCODING 12352
SWIDTH 1400 0
DWIDTH 14 0
BBX 12 13 1 -2
BITMAP
0040
FC40
0440
0470
0840
1040
2070
C040
0240
0300
0500
08C0
3020
ENDCHAR
STARTCHAR AC4D
ENCODING 12353
SWIDTH 1400 0
DWIDTH 14 0
BBX 12 13 1 -2
BITMAP
0040
FC40
0440
0470
0840
1040
2070
C040
1FC0
6060
4020
6060
3F80
ENDCHAR
STARTCHAR AC54
ENCODING 12354
SWIDTH 1400 0
DWIDTH 14 0
BBX 11 12 2 -2
BITMAP
0120
F920
0920
0920
11E0
1120
1120
21E0
4120
8120
0120
0120
ENDCHAR
STARTCHAR AC58
ENCODING 12355
SWIDTH 1400 0
DWIDTH 14 0
BBX 11 13 2 -2
BITMAP
0020
F920
0920
0920
11E0
1120
21E0
4120
8120
4120
4000
4000
7FE0
ENDCHAR
STARTCHAR AC5C
ENCODING 12356
SWIDTH 1400 0
DWIDTH 14 0
BBX 11 13 2 -2
BITMAP
0020
F920
0920
11E0
1120
21E0
4120
8000
7FE0
0020
7FE0
4000
7FE0
ENDCHAR
STARTCHAR AC70
ENCODING 12357
SWIDTH 1400 0
DWIDTH 14 0
BBX 12 13 1 -2
BITMAP
0010
0010
7E10
0210
0210
0210
04F0
0410
0810
1010
2010
C010
0010
ENDCHAR
STARTCHAR AC71
ENCODING 12358
SWIDTH 1400 0
DWIDTH 14 0
BBX 11 14 2 -3
BITMAP
0020
FC20
0420
0420
09E0
1020
6020
8020
0000
7FE0
0020
0020
0020
0020
ENDCHAR
STARTCHAR AC74
ENCODING 12359
SWIDTH 1400 0
DWIDTH 14 0
BBX 11 13 2 -2
BITMAP
0020
FC20
0420
0420
0820
11E0
2020
C020
0020
4020
4020
4000
7FE0
ENDCHAR
STARTCHAR AC77
ENCODING 12360
SWIDTH 1400 0
DWIDTH 14 0
BBX 11 13 2 -2
BITMAP
0020
FC20
0820
0820
09E0
1020
6020
8020
0000
7FC0
4000
4000
7FE0
ENDCHAR
STARTCHAR AC78
ENCODING 12361
SWIDTH 1400 0
DWIDTH 14 0
BBX 11 13 2 -2
BITMAP
0020
FC20
0420
0820
09E0
1020
E020
0020
7FC0
0040
7FC0
4000
7FE0
ENDCHAR
STARTCHAR AC7A
ENCODING 12362
SWIDTH 1400 0
DWIDTH 14 0
BBX 11 12 2 -2
BITMAP
FC20
0420
0820
09E0
1020
6020
8020
7BE0
0A20
7A20
4220
7FE0
ENDCHAR
STARTCHAR AC80
ENCODING 12363
SWIDTH 1400 0
DWIDTH 14 0
BBX 12 13 1 -2
BITMAP
0010
7E10
0210
0410
04F0
0810
1010
E010
0000
3FE0
2020
2020
3FE0
ENDCHAR
STARTCHAR AC81
ENCODING 12364
SWIDTH 1400 0
DWIDTH 14 0
BBX 11 12 2 -2
BITMAP
FC20
0420
0420
09E0
1020
2020
C020
4040
4040
7FC0
4040
7FC0
ENDCHAR
STARTCHAR AC83
ENCODING 12365
SWIDTH 1400 0
DWIDTH 14 0
BBX 11 13 2 -2
BITMAP
0040
FC40
0840
0840
0BC0
1040
2040
C040
0440
0600
0900
1080
6060
ENDCHAR
STARTCHAR AC84
ENCODING 12366
SWIDTH 1400 0
DWIDTH 14 0
BBX 12 13 1 -2
BITMAP
0020
FC20
0420
0420
09E0
0820
1020
6020
0040
1840
18C0
24A0
4110
ENDCHAR
STARTCHAR AC85
ENCODING 12367
SWIDTH 1400 0
DWIDTH 14 0
BBX 12 13 1 -2
BITMAP
0010
7E10
0210
0410
04F0
0810
1010
E010
0FC0
3030
2010
3030
0FE0
ENDCHAR
STARTCHAR AC86
ENCODING 12368
SWIDTH 1400 0
DWIDTH 14 0
BBX 10 14 2 -3
BITMAP
0040
FC40
0440
0840
0BC0
1040
6040
8040
7FC0
0400
0400
0A00
3180
C040
ENDCHAR
STARTCHAR AC89
ENCODING 12369
SWIDTH 1400 0
DWIDTH 14 0
BBX 11 13 2 -2
BITMAP
0020
FC20
0420
09E0
0820
1020
6020
8000
7FE0
4000
7FC0
4000
7FE0
ENDCHAR
STARTCHAR AC8A
ENCODING 12370
SWIDTH 1400 0
DWIDTH 14 0
BBX 11 13 2 -2
BITMAP
0040
FC40
0440
0840
0BC0
3040
C040
0040
7FC0
1100
1100
1100
FFE0
ENDCHAR
STARTCHAR AC8B
ENCODING 12371
SWIDTH 1400 0
DWIDTH 14 0
BBX 12 13 1 -2
BITMAP
0020
7E20
0420
0420
05E0
0820
3020
C7A0
0000
3FF0
2020
2020
1FC0
ENDCHAR
STARTCHAR AC8C
ENCODING 12372
SWIDTH 1400 0
DWIDTH 14 0
BBX 12 13 1 -2
BITMAP
0010
7890
0890
0890
0890
0F90
0890
1090
2090
4090
8090
0090
0010
ENDCHAR
STARTCHAR AC90
ENCODING 12373
SWIDTH 1400 0
DWIDTH 14 0
BBX 11 13 2 -2
BITMAP
0120
F920
0920
0920
1120
1F20
2120
C120
0120
4120
4000
4000
7FE0
ENDCHAR
STARTCHAR AC94
ENCODING 12374
SWIDTH 1400 0
DWIDTH 14 0
BBX 12 13 1 -2
BITMAP
0090
7C90
0490
0890
0B90
1090
3090
C000
3FF0
0010
3FF0
2000
3FF0
ENDCHAR
STARTCHAR AC9C
ENCODING 12375
SWIDTH 1400 0
DWIDTH 14 0
BBX 12 13 1 -2
BITMAP
0090
7C90
0490
0890
0B90
1090
2090
C090
0000
3FF0
2010
2010
3FF0
ENDCHAR
STARTCHAR AC9D
ENCODING 12376
SWIDTH 1400 0
DWIDTH 14 0
BBX 11 14 2 -3
BITMAP
0020
F920
0920
0920
1720
2120
6120
8100
4020
4020
7FE0
4020
7FE0
0020
ENDCHAR
STARTCHAR AC9F
ENCODING 12377
SWIDTH 1400 0
DWIDTH 14 0
BBX 12 13 1 -2
BITMAP
0020
7D20
0920
0920
0920
0F20
1120
2120
C120
0300
0300
0CC0
3030
ENDCHAR
STARTCHAR ACA0
ENCODING 12378
SWIDTH 1400 0
DWIDTH 14 0
BBX 11 13 2 -2
BITMAP
0020
F920
0920
0920
1720
1120
2120
C120
1080
1080
1180
2940
4220
ENDCHAR
STARTCHAR ACA1
ENCODING 12379
SWIDTH 1400 0
DWIDTH 14 0
BBX 11 13 2 -2
BITMAP
0120
F920
0920
0920
1720
1120
2120
C120
0000
3F80
4060
4020
3FC0
ENDCHAR
STARTCHAR ACA8
ENCODING 12380
SWIDTH 1400 0
DWIDTH 14 0
BBX 11 14 2 -3
BITMAP
0020
0020
FC20
0420
05E0
0420
0820
0820
11E0
3020
6020
8020
0020
0020
ENDCHAR
STARTCHAR ACA9
ENCODING 12381
SWIDTH 1400 0
DWIDTH 14 0
BBX 11 13 2 -2
BITMAP
0020
FC20
0420
09E0
0820
1020
61E0
8020
0020
7FE0
0020
0020
0020
ENDCHAR
STARTCHAR ACAA
ENCODING 12382
SWIDTH 1400 0
DWIDTH 14 0
BBX 11 13 2 -2
BITMAP
0020
FC20
0420
09E0
0820
11E0
6020
8020
7FC0
0840
0840
0840
0840
ENDCHAR
STARTCHAR ACAC
ENCODING 12383
SWIDTH 1400 0
DWIDTH 14 0
BBX 11 13 2 -2
BITMAP
0020
FC20
0420
05E0
0820
1020
21E0
C020
0020
4020
4000
4000
7FE0
ENDCHAR
STARTCHAR ACAF
ENCODING 12384
SWIDTH 1400 0
DWIDTH 14 0
BBX 11 12 2 -2
BITMAP
FC20
0420
09E0
0820
1020
21E0
C020
0020
7FC0
4000
4000
7FE0
ENDCHAR
STARTCHAR ACB0
ENCODING 12385
SWIDTH 1400 0
DWIDTH 14 0
BBX 11 13 2 -2
BITMAP
0020
FC20
0420
09E0
0820
11E0
6020
8020
7FC0
0040
7FC0
4000
7FE0
ENDCHAR
STARTCHAR ACB8
ENCODING 12386
SWIDTH 1400 0
DWIDTH 14 0
BBX 11 14 2 -3
BITMAP
0060
FC40
0440
07C0
0840
1040
23C0
C040
0040
7FE0
4020
4020
7FE0
4000
ENDCHAR
STARTCHAR ACB9
ENCODING 12387
SWIDTH 1400 0
DWIDTH 14 0
BBX 11 13 2 -3
BITMAP
FC20
0420
05E0
0820
1020
61E0
8020
4020
4020
7FE0
4020
7FE0
4020
ENDCHAR
STARTCHAR ACBB
ENCODING 12388
SWIDTH 1400 0
DWIDTH 14 0
BBX 10 13 2 -2
BITMAP
0040
FC40
0840
0BC0
0840
1040
23C0
C040
0440
0640
0A00
1180
6040
ENDCHAR
STARTCHAR ACBC
ENCODING 12389
SWIDTH 1400 0
DWIDTH 14 0
BBX 12 13 1 -2
BITMAP
0020
FC20
0420
05E0
0820
0820
10E0
6000
8840
1840
18C0
2520
4310
ENDCHAR
STARTCHAR ACBD
ENCODING 12390
SWIDTH 1400 0
DWIDTH 14 0
BBX 11 14 2 -3
BITMAP
0040
FC40
0440
07C0
0840
1040
33C0
C040
0040
3FC0
4020
4020
30C0
0F00
ENDCHAR
STARTCHAR ACC1
ENCODING 12391
SWIDTH 1400 0
DWIDTH 14 0
BBX 11 13 2 -2
BITMAP
0040
FC40
0440
0BC0
0840
13C0
6040
8000
7FC0
4000
7FC0
4000
7FE0
ENDCHAR
STARTCHAR ACC4
ENCODING 12392
SWIDTH 1400 0
DWIDTH 14 0
BBX 11 13 2 -2
BITMAP
0020
0120
F920
0920
0F20
0920
1120
1120
2720
2120
C120
8120
0120
ENDCHAR
STARTCHAR ACC8
ENCODING 12393
SWIDTH 1400 0
DWIDTH 14 0
BBX 11 13 2 -2
BITMAP
0120
F920
0920
0F20
1120
1120
2720
C120
0120
4120
4000
4000
7FE0
ENDCHAR
STARTCHAR ACCC
ENCODING 12394
SWIDTH 1400 0
DWIDTH 14 0
BBX 11 13 2 -2
BITMAP
0020
F920
0920
0F20
1120
1720
2120
C000
7FE0
0020
7FE0
4000
7FE0
ENDCHAR
STARTCHAR ACD5
ENCODING 12395
SWIDTH 1400 0
DWIDTH 14 0
BBX 11 13 2 -2
BITMAP
0020
F920
0920
0F20
1120
1720
2120
4100
C000
4020
7FE0
4020
7FE0
ENDCHAR
STARTCHAR ACD7
ENCODING 12396
SWIDTH 1400 0
DWIDTH 14 0
BBX 11 13 2 -2
BITMAP
0120
F920
0920
0F20
1120
1120
2720
4120
8120
0600
0600
1980
6060
ENDCHAR
STARTCHAR ACE0
ENCODING 12397
SWIDTH 1400 0
DWIDTH 14 0
BBX 13 10 1 -1
BITMAP
7FE0
0020
0020
0020
0420
0440
0440
0400
0400
FFF8
ENDCHAR
STARTCHAR ACE1
ENCODING 12398
SWIDTH 1400 0
DWIDTH 14 0
BBX 12 13 1 -3
BITMAP
7FE0
0020
0040
0440
0400
FFF0
0000
0000
7FE0
0020
0020
0020
0020
ENDCHAR
STARTCHAR ACE4
ENCODING 12399
SWIDTH 1400 0
DWIDTH 14 0
BBX 12 12 1 -2
BITMAP
7FE0
0020
0420
0440
0400
FFF0
0000
0000
4000
4000
4000
7FE0
ENDCHAR
STARTCHAR ACE7
ENCODING 12400
SWIDTH 1400 0
DWIDTH 14 0
BBX 12 12 1 -2
BITMAP
7FE0
0020
0040
0440
0400
FFF0
0000
7FC0
4000
4000
4000
7FC0
ENDCHAR
STARTCHAR ACE8
ENCODING 12401
SWIDTH 1400 0
DWIDTH 14 0
BBX 12 12 1 -2
BITMAP
7FE0
0020
0040
0440
0400
FFF0
0000
3FE0
0020
7FE0
4000
7FE0
ENDCHAR
STARTCHAR ACEA
ENCODING 12402
SWIDTH 1400 0
DWIDTH 14 0
BBX 12 13 1 -3
BITMAP
7FE0
0020
0040
0440
0400
FFF0
0000
3FE0
0620
7E20
4220
7FE0
0020
ENDCHAR
STARTCHAR ACEC
ENCODING 12403
SWIDTH 1400 0
DWIDTH 14 0
BBX 13 13 0 -3
BITMAP
3FF0
0010
0010
0200
0200
FFF8
0000
3C40
0440
3CC0
20A0
2D10
1000
ENDCHAR
STARTCHAR ACEF
ENCODING 12404
SWIDTH 1400 0
DWIDTH 14 0
BBX 13 13 0 -3
BITMAP
1FF0
0010
0010
0210
0200
FFF8
3CE0
0400
05F0
3DE0
2110
21E0
1800
ENDCHAR
STARTCHAR ACF0
ENCODING 12405
SWIDTH 1400 0
DWIDTH 14 0
BBX 13 12 0 -2
BITMAP
3FF0
0010
0020
0220
0200
FFF8
0000
3FF0
2010
2010
2010
3FF0
ENDCHAR
STARTCHAR ACF1
ENCODING 12406
SWIDTH 1400 0
DWIDTH 14 0
BBX 12 13 1 -3
BITMAP
7FE0
0020
0440
0440
0400
FFF0
4020
4020
7FE0
4020
4020
7FE0
4000
ENDCHAR
STARTCHAR ACF3
ENCODING 12407
SWIDTH 1400 0
DWIDTH 14 0
BBX 12 12 1 -2
BITMAP
7FE0
0020
0440
0440
0440
FFF0
0000
0400
0600
0A00
1180
6060
ENDCHAR
STARTCHAR ACF5
ENCODING 12408
SWIDTH 1400 0
DWIDTH 14 0
BBX 12 12 1 -2
BITMAP
7FE0
0020
0440
0400
0400
FFF0
0000
1FC0
6060
4020
6060
1F80
ENDCHAR
STARTCHAR ACF6
ENCODING 12409
SWIDTH 1400 0
DWIDTH 14 0
BBX 12 12 1 -2
BITMAP
7FE0
0020
0440
0440
FFF0
0000
0000
7FE0
0400
0600
1900
60E0
ENDCHAR
STARTCHAR ACFC
ENCODING 12410
SWIDTH 1400 0
DWIDTH 14 0
BBX 11 13 2 -2
BITMAP
0080
0080
FC80
0480
0480
2480
24E0
2080
2080
3F80
C080
0080
0080
ENDCHAR
STARTCHAR ACFD
ENCODING 12411
SWIDTH 1400 0
DWIDTH 14 0
BBX 12 13 1 -2
BITMAP
0040
7E40
0240
0240
1240
1270
10C0
EF40
0040
7FC0
0040
0040
0040
ENDCHAR
STARTCHAR AD00
ENCODING 12412
SWIDTH 1400 0
DWIDTH 14 0
BBX 12 13 1 -2
BITMAP
0040
7E40
0240
0240
1240
1240
1070
FF40
0040
4040
4040
4000
7FC0
ENDCHAR
STARTCHAR AD04
ENCODING 12413
SWIDTH 1400 0
DWIDTH 14 0
BBX 13 13 0 -2
BITMAP
0020
3F20
0120
0120
1138
1020
FF20
0000
3FE0
0020
3FE0
2000
3FE0
ENDCHAR
STARTCHAR AD06
ENCODING 12414
SWIDTH 1400 0
DWIDTH 14 0
BBX 12 13 1 -3
BITMAP
7E40
0240
1240
1270
1040
FFC0
0000
7BC0
0A40
7A40
4240
5FC0
2000
ENDCHAR
STARTCHAR AD0C
ENCODING 12577
SWIDTH 1400 0
DWIDTH 14 0
BBX 11 13 2 -2
BITMAP
0080
FC80
0480
0480
2480
24E0
3F80
C080
0080
FF80
8080
8080
FF80
ENDCHAR
STARTCHAR AD0D
ENCODING 12578
SWIDTH 1400 0
DWIDTH 14 0
BBX 11 14 2 -3
BITMAP
0080
FC80
0480
0480
24E0
2080
3F80
C080
8080
8080
FF80
8080
FF80
8000
ENDCHAR
STARTCHAR AD0F
ENCODING 12579
SWIDTH 1400 0
DWIDTH 14 0
BBX 12 13 1 -2
BITMAP
0040
7E40
0240
0240
1240
1270
1040
FF40
0240
0240
0500
0880
7060
ENDCHAR
STARTCHAR AD11
ENCODING 12580
SWIDTH 1400 0
DWIDTH 14 0
BBX 12 12 1 -2
BITMAP
7E40
0240
0240
1240
1270
10C0
EF40
0040
3F80
4040
60C0
3F80
ENDCHAR
STARTCHAR AD18
ENCODING 12581
SWIDTH 1400 0
DWIDTH 14 0
BBX 11 13 1 -2
BITMAP
0080
00A0
7CA0
04A0
04A0
14A0
14E0
14A0
10A0
FEA0
00A0
00A0
00A0
ENDCHAR
STARTCHAR AD1C
ENCODING 12582
SWIDTH 1400 0
DWIDTH 14 0
BBX 11 13 2 -2
BITMAP
0020
F920
0920
0920
2920
2920
21E0
3F20
4120
4120
4120
4000
7FE0
ENDCHAR
STARTCHAR AD20
ENCODING 12583
SWIDTH 1400 0
DWIDTH 14 0
BBX 11 13 2 -2
BITMAP
0020
F920
0920
0920
2920
21E0
3F20
4120
7FE0
0020
7FE0
4000
7FE0
ENDCHAR
STARTCHAR AD29
ENCODING 12584
SWIDTH 1400 0
DWIDTH 14 0
BBX 11 14 2 -3
BITMAP
0020
F920
0920
0920
2920
21E0
3F20
4120
0000
4020
7FE0
4020
7FE0
4020
ENDCHAR
STARTCHAR AD2C
ENCODING 12585
SWIDTH 1400 0
DWIDTH 14 0
BBX 12 13 1 -2
BITMAP
0020
7D20
0520
0520
2520
21E0
FF20
0120
0820
0840
18C0
24A0
4130
ENDCHAR
STARTCHAR AD2D
ENCODING 12586
SWIDTH 1400 0
DWIDTH 14 0
BBX 11 14 2 -3
BITMAP
0020
F920
0920
0920
2920
21E0
3F20
4120
0020
3FC0
4020
4020
30C0
0F00
ENDCHAR
STARTCHAR AD34
ENCODING 12587
SWIDTH 1400 0
DWIDTH 14 0
BBX 10 13 2 -2
BITMAP
0040
0040
FE40
0240
0240
1240
1240
1240
1040
FF40
0040
0040
0040
ENDCHAR
STARTCHAR AD35
ENCODING 12588
SWIDTH 1400 0
DWIDTH 14 0
BBX 10 13 2 -2
BITMAP
0040
FE40
0240
0240
1240
1040
17C0
6840
0000
7FC0
0040
0040
0040
ENDCHAR
STARTCHAR AD38
ENCODING 12589
SWIDTH 1400 0
DWIDTH 14 0
BBX 10 13 2 -2
BITMAP
0040
FE40
0240
0240
0240
2240
2040
FF40
0040
4040
4000
4000
7FC0
ENDCHAR
STARTCHAR AD3C
ENCODING 12590
SWIDTH 1400 0
DWIDTH 14 0
BBX 10 13 2 -2
BITMAP
0040
FE40
0240
1240
1240
1040
FFC0
0000
7FC0
0040
7FC0
4000
7FC0
ENDCHAR
STARTCHAR AD44
ENCODING 12591
SWIDTH 1400 0
DWIDTH 14 0
BBX 11 13 1 -2
BITMAP
0020
7F20
0120
0120
1120
1020
1020
FF20
0000
3FE0
2020
2020
3FE0
ENDCHAR
STARTCHAR AD45
ENCODING 12592
SWIDTH 1400 0
DWIDTH 14 0
BBX 11 14 1 -3
BITMAP
0020
7F20
0120
0120
1120
1020
1020
FF00
2020
2020
3FE0
2020
3FE0
2000
ENDCHAR
STARTCHAR AD47
ENCODING 12593
SWIDTH 1400 0
DWIDTH 14 0
BBX 11 13 1 -2
BITMAP
0020
7F20
0120
0120
1120
1020
1020
FF20
0220
0200
0500
0880
3060
ENDCHAR
STARTCHAR AD49
ENCODING 12594
SWIDTH 1400 0
DWIDTH 14 0
BBX 10 14 2 -3
BITMAP
0040
FE40
0240
0240
1240
1040
1040
FF40
0000
3F80
4040
4040
3B80
0400
ENDCHAR
STARTCHAR AD50
ENCODING 12595
SWIDTH 1400 0
DWIDTH 14 0
BBX 14 10 0 -1
BITMAP
3FF0
0010
0010
0890
0890
0890
08A0
08A0
0880
FFFC
ENDCHAR
STARTCHAR AD54
ENCODING 12596
SWIDTH 1400 0
DWIDTH 14 0
BBX 14 12 0 -2
BITMAP
3FF0
0010
0010
08A0
0880
0880
FFFC
0000
2000
2000
2000
3FF0
ENDCHAR
STARTCHAR AD58
ENCODING 12597
SWIDTH 1400 0
DWIDTH 14 0
BBX 14 12 0 -2
BITMAP
3FF0
0010
0020
08A0
0880
FFFC
0000
1FF0
0010
3FF0
2000
3FF0
ENDCHAR
STARTCHAR AD61
ENCODING 12598
SWIDTH 1400 0
DWIDTH 14 0
BBX 14 13 0 -3
BITMAP
3FF0
0010
08A0
0880
0880
FFFC
2010
2010
3FF0
2010
2010
3FF0
0010
ENDCHAR
STARTCHAR AD63
ENCODING 12599
SWIDTH 1400 0
DWIDTH 14 0
BBX 14 12 0 -2
BITMAP
3FF0
0010
0020
08A0
08A0
0880
FFFC
0000
0300
0500
08C0
3030
ENDCHAR
STARTCHAR AD6C
ENCODING 12600
SWIDTH 1400 0
DWIDTH 14 0
BBX 13 12 1 -2
BITMAP
3FE0
0020
0020
0020
0040
FFF8
0200
0200
0200
0200
0200
0200
ENDCHAR
STARTCHAR AD6D
ENCODING 12601
SWIDTH 1400 0
DWIDTH 14 0
BBX 14 13 0 -3
BITMAP
1FF0
0010
0010
0010
0020
FFFC
0200
3FF0
0010
0010
0010
0010
0010
ENDCHAR
STARTCHAR AD70
ENCODING 12602
SWIDTH 1400 0
DWIDTH 14 0
BBX 13 12 1 -2
BITMAP
3FE0
0020
0020
0020
0020
FFF8
0200
4200
4200
4200
4000
7FE0
ENDCHAR
STARTCHAR AD73
ENCODING 12603
SWIDTH 1400 0
DWIDTH 14 0
BBX 13 12 0 -2
BITMAP
3FE0
0020
0020
0020
FFF8
0200
0200
0200
3FE0
2000
2000
3FF0
ENDCHAR
STARTCHAR AD74
ENCODING 12604
SWIDTH 1400 0
DWIDTH 14 0
BBX 14 12 0 -2
BITMAP
3FF0
0010
0010
0020
FFFC
0200
0200
3FF0
0010
3FF0
2000
3FF0
ENDCHAR
STARTCHAR AD75
ENCODING 12605
SWIDTH 1400 0
DWIDTH 14 0
BBX 13 13 0 -3
BITMAP
3FE0
0020
0020
0020
FFF8
0200
0200
1EF0
0210
3E10
2010
2210
1C00
ENDCHAR
STARTCHAR AD76
ENCODING 12606
SWIDTH 1400 0
DWIDTH 14 0
BBX 13 13 1 -3
BITMAP
3FE0
0020
0020
0020
FFF8
0200
0200
3FE0
0620
7E20
4220
4FE0
3200
ENDCHAR
STARTCHAR AD7B
ENCODING 12607
SWIDTH 1400 0
DWIDTH 14 0
BBX 13 13 0 -3
BITMAP
3FE0
0020
0020
0020
FFF8
0200
0200
3CC0
07E0
3DE0
2110
25E0
1800
ENDCHAR
STARTCHAR AD7C
ENCODING 12608
SWIDTH 1400 0
DWIDTH 14 0
BBX 13 12 1 -2
BITMAP
7FE0
0020
0020
0060
FFF8
0200
0200
7FE0
4020
4020
4020
7FE0
ENDCHAR
STARTCHAR AD7D
ENCODING 12609
SWIDTH 1400 0
DWIDTH 14 0
BBX 13 12 1 -2
BITMAP
3FE0
0020
0020
0020
FFF8
0200
0200
4020
4020
7FE0
4020
7FE0
ENDCHAR
STARTCHAR AD7F
ENCODING 12610
SWIDTH 1400 0
DWIDTH 14 0
BBX 13 12 0 -2
BITMAP
3FE0
0020
0020
0020
FFF8
0200
0200
0000
0300
0700
08C0
3030
ENDCHAR
STARTCHAR AD81
ENCODING 12611
SWIDTH 1400 0
DWIDTH 14 0
BBX 13 13 0 -3
BITMAP
3FE0
0020
0020
0020
FFF8
0200
0200
0780
1860
2020
2020
1840
0780
ENDCHAR
STARTCHAR AD82
ENCODING 12612
SWIDTH 1400 0
DWIDTH 14 0
BBX 13 12 0 -2
BITMAP
3FE0
0020
0020
FFF8
0200
0200
0000
3FF0
0300
0300
0480
3870
ENDCHAR
STARTCHAR AD88
ENCODING 12613
SWIDTH 1400 0
DWIDTH 14 0
BBX 11 13 1 -2
BITMAP
0020
0020
7F20
0120
0120
0220
0220
FF20
0820
09E0
0820
0820
0820
ENDCHAR
STARTCHAR AD89
ENCODING 12614
SWIDTH 1400 0
DWIDTH 14 0
BBX 11 13 1 -2
BITMAP
0020
7F20
0120
0220
0220
FFA0
09E0
0820
0800
7FE0
0020
0020
0020
ENDCHAR
STARTCHAR AD8C
ENCODING 12615
SWIDTH 1400 0
DWIDTH 14 0
BBX 12 12 1 -2
BITMAP
7F20
0120
0120
0120
0220
FFA0
0820
09E0
2820
2020
2000
3FF0
ENDCHAR
STARTCHAR AD90
ENCODING 12616
SWIDTH 1400 0
DWIDTH 14 0
BBX 12 13 1 -2
BITMAP
0020
7F20
0120
0120
0220
FFA0
09E0
0820
3FE0
0020
3FE0
2000
3FF0
ENDCHAR
STARTCHAR AD9C
ENCODING 12617
SWIDTH 1400 0
DWIDTH 14 0
BBX 12 14 1 -3
BITMAP
0020
7F20
0120
0220
0220
FFA0
09E0
0820
0840
0840
0840
18A0
2510
4000
ENDCHAR
STARTCHAR AD9D
ENCODING 12618
SWIDTH 1400 0
DWIDTH 14 0
BBX 12 13 1 -2
BITMAP
0020
7F20
0220
0220
02A0
FD20
09E0
0820
1FE0
3030
2010
3030
1FE0
ENDCHAR
STARTCHAR ADA4
ENCODING 12619
SWIDTH 1400 0
DWIDTH 14 0
BBX 12 14 1 -3
BITMAP
0010
0090
7C90
0490
0490
0490
0490
FC90
1390
1090
1090
1090
1090
0010
ENDCHAR
STARTCHAR ADB7
ENCODING 12620
SWIDTH 1400 0
DWIDTH 14 0
BBX 11 13 1 -2
BITMAP
0020
7CA0
04A0
04A0
04A0
FEA0
10A0
13A0
10A0
0200
0500
08C0
3020
ENDCHAR
STARTCHAR ADC0
ENCODING 12621
SWIDTH 1400 0
DWIDTH 14 0
BBX 11 13 1 -2
BITMAP
0020
0020
3F20
0120
0120
0120
0220
FFE0
0820
0820
0820
0820
0820
ENDCHAR
STARTCHAR ADC1
ENCODING 12622
SWIDTH 1400 0
DWIDTH 14 0
BBX 11 13 1 -2
BITMAP
0020
7F20
0120
0220
0220
FF20
0820
0820
0000
3FE0
0020
0020
0020
ENDCHAR
STARTCHAR ADC4
ENCODING 12623
SWIDTH 1400 0
DWIDTH 14 0
BBX 11 13 1 -2
BITMAP
0020
7F20
0120
0220
0220
0220
FFA0
0820
0820
2820
2000
2000
3FE0
ENDCHAR
STARTCHAR ADC8
ENCODING 12624
SWIDTH 1400 0
DWIDTH 14 0
BBX 11 12 1 -2
BITMAP
7F20
0120
0220
0220
FD20
0820
0820
3FE0
0020
3FE0
2000
3FE0
ENDCHAR
STARTCHAR ADD0
ENCODING 12625
SWIDTH 1400 0
DWIDTH 14 0
BBX 11 13 1 -3
BITMAP
7F20
0120
0220
0220
FF20
0820
0820
0020
3FE0
2020
2020
3FE0
2000
ENDCHAR
STARTCHAR ADD1
ENCODING 12626
SWIDTH 1400 0
DWIDTH 14 0
BBX 11 14 1 -3
BITMAP
0020
7F20
0120
0220
0220
FFA0
0820
0800
2020
2020
3FE0
2020
3FE0
2000
ENDCHAR
STARTCHAR ADD3
ENCODING 12627
SWIDTH 1400 0
DWIDTH 14 0
BBX 11 13 2 -2
BITMAP
0040
FE40
0240
0240
0440
FF40
1040
1040
1240
0600
0600
1980
6060
ENDCHAR
STARTCHAR ADDC
ENCODING 12628
SWIDTH 1400 0
DWIDTH 14 0
BBX 14 12 0 -2
BITMAP
3FF0
0010
0020
0020
0020
FFFC
0840
0840
0840
0840
0840
0840
ENDCHAR
STARTCHAR ADE0
ENCODING 12629
SWIDTH 1400 0
DWIDTH 14 0
BBX 13 12 1 -2
BITMAP
7FE0
0020
0020
0020
0020
FFF8
0880
4880
4880
4880
4000
7FE0
ENDCHAR
STARTCHAR ADE4
ENCODING 12630
SWIDTH 1400 0
DWIDTH 14 0
BBX 14 12 0 -2
BITMAP
1FF0
0010
0010
0020
FFFC
0840
0840
3FF0
0010
3FF0
2000
3FF0
ENDCHAR
STARTCHAR ADF8
ENCODING 12631
SWIDTH 1400 0
DWIDTH 14 0
BBX 12 10 1 -1
BITMAP
7FE0
0020
0020
0020
0040
0040
0040
0040
0040
FFF0
ENDCHAR
STARTCHAR ADF9
ENCODING 12632
SWIDTH 1400 0
DWIDTH 14 0
BBX 12 12 1 -2
BITMAP
7FE0
0040
0040
0040
FFF0
0000
0000
7FE0
0020
0020
0020
0020
ENDCHAR
STARTCHAR ADFC
ENCODING 12633
SWIDTH 1400 0
DWIDTH 14 0
BBX 12 12 1 -2
BITMAP
7FE0
0020
0040
0040
0040
FFF0
0000
0000
4000
4000
4000
7FE0
ENDCHAR
STARTCHAR ADFF
ENCODING 12634
SWIDTH 1400 0
DWIDTH 14 0
BBX 12 12 1 -2
BITMAP
7FE0
0040
0040
0040
0040
FFF0
0000
7FC0
4000
4000
4000
7FE0
ENDCHAR
STARTCHAR AE00
ENCODING 12635
SWIDTH 1400 0
DWIDTH 14 0
BBX 12 12 1 -2
BITMAP
7FE0
0040
0040
0040
FFF0
0000
7FE0
0020
0020
7FE0
4000
7FE0
ENDCHAR
STARTCHAR AE01
ENCODING 12636
SWIDTH 1400 0
DWIDTH 14 0
BBX 13 13 1 -3
BITMAP
3FE0
0020
0020
0020
FFF8
0000
01E0
7C20
0420
7C20
4020
4020
3800
ENDCHAR
STARTCHAR AE08
ENCODING 12637
SWIDTH 1400 0
DWIDTH 14 0
BBX 12 13 1 -3
BITMAP
7FE0
0020
0040
0040
0040
FFF0
0000
7FE0
4020
4020
4020
7FE0
0020
ENDCHAR
STARTCHAR AE09
ENCODING 12638
SWIDTH 1400 0
DWIDTH 14 0
BBX 12 12 1 -2
BITMAP
7FE0
0040
0040
0040
FFF0
0000
4020
4020
7FE0
4020
4020
7FE0
ENDCHAR
STARTCHAR AE0B
ENCODING 12639
SWIDTH 1400 0
DWIDTH 14 0
BBX 12 12 1 -2
BITMAP
7FE0
0020
0040
0040
0040
FFF0
0000
0000
0600
0500
1880
6060
ENDCHAR
STARTCHAR AE0D
ENCODING 12640
SWIDTH 1400 0
DWIDTH 14 0
BBX 12 12 1 -2
BITMAP
7FE0
0040
0040
0040
0040
FFF0
0000
1F80
6060
4020
4040
3F80
ENDCHAR
STARTCHAR AE14
ENCODING 12641
SWIDTH 1400 0
DWIDTH 14 0
BBX 10 13 2 -2
BITMAP
0040
0040
FE40
0240
0240
0240
0240
0240
0040
FF40
0040
0040
0040
ENDCHAR
STARTCHAR AE30
ENCODING 12642
SWIDTH 1400 0
DWIDTH 14 0
BBX 11 13 2 -2
BITMAP
0020
0020
FC20
0420
0420
0420
0820
0820
1020
2020
4020
8020
0020
ENDCHAR
STARTCHAR AE31
ENCODING 12643
SWIDTH 1400 0
DWIDTH 14 0
BBX 10 13 2 -2
BITMAP
0040
FC40
0440
0840
0840
1040
2040
C040
0000
7FC0
0040
0040
0040
ENDCHAR
STARTCHAR AE34
ENCODING 12644
SWIDTH 1400 0
DWIDTH 14 0
BBX 11 13 1 -2
BITMAP
0020
7E20
0220
0220
0420
0820
1020
E020
0020
2020
2000
2000
3FE0
ENDCHAR
STARTCHAR AE37
ENCODING 12645
SWIDTH 1400 0
DWIDTH 14 0
BBX 10 12 2 -2
BITMAP
FC40
0440
0840
0840
1040
2040
C040
0040
7FC0
4000
4000
7FC0
ENDCHAR
STARTCHAR AE38
ENCODING 12646
SWIDTH 1400 0
DWIDTH 14 0
BBX 10 13 2 -2
BITMAP
0040
FC40
0440
0440
0840
1040
E040
0000
7FC0
0040
7FC0
4000
7FC0
ENDCHAR
STARTCHAR AE3A
ENCODING 12647
SWIDTH 1400 0
DWIDTH 14 0
BBX 10 14 2 -3
BITMAP
0040
FC40
0440
0440
0840
1040
E040
0000
7BC0
0A40
7A40
4240
5FC0
2200
ENDCHAR
STARTCHAR AE40
ENCODING 12648
SWIDTH 1400 0
DWIDTH 14 0
BBX 10 14 2 -3
BITMAP
0040
FC40
0440
0440
0840
1040
2040
C040
0000
7FC0
4040
4040
7FC0
4000
ENDCHAR
STARTCHAR AE41
ENCODING 12649
SWIDTH 1400 0
DWIDTH 14 0
BBX 10 14 2 -3
BITMAP
0040
FC40
0440
0440
0840
1040
2040
C000
4040
4040
7FC0
4040
7FC0
4000
ENDCHAR
STARTCHAR AE43
ENCODING 12650
SWIDTH 1400 0
DWIDTH 14 0
BBX 11 13 2 -2
BITMAP
0040
FC40
0840
0840
0840
1040
2040
C040
0440
0400
0A00
1180
6060
ENDCHAR
STARTCHAR AE45
ENCODING 12651
SWIDTH 1400 0
DWIDTH 14 0
BBX 11 13 2 -2
BITMAP
0040
FC40
0440
0440
0840
0840
3040
C040
1F80
6060
4020
6060
1F80
ENDCHAR
STARTCHAR AE46
ENCODING 12652
SWIDTH 1400 0
DWIDTH 14 0
BBX 10 13 2 -2
BITMAP
0040
FC40
0440
0840
0840
1040
6040
8000
7FC0
0400
0C00
1300
E0C0
ENDCHAR
STARTCHAR AE4A
ENCODING 12653
SWIDTH 1400 0
DWIDTH 14 0
BBX 12 13 1 -2
BITMAP
0020
7E20
0220
0420
0420
0820
1020
E000
3FE0
0880
0880
0880
7FF0
ENDCHAR
STARTCHAR AE4C
ENCODING 12654
SWIDTH 1400 0
DWIDTH 14 0
BBX 12 13 1 -3
BITMAP
0040
FE40
1240
2240
2240
2270
4240
4440
8440
0840
0040
0040
0040
ENDCHAR
STARTCHAR AE4D
ENCODING 12655
SWIDTH 1400 0
DWIDTH 14 0
BBX 12 13 1 -2
BITMAP
0040
EE40
2240
2240
2240
4470
8840
0840
0040
7FC0
0040
0040
0040
ENDCHAR
STARTCHAR AE4E
ENCODING 12656
SWIDTH 1400 0
DWIDTH 14 0
BBX 13 13 0 -3
BITMAP
0020
7720
1120
1138
2220
2220
C420
3DE0
0420
0420
0420
0420
0400
ENDCHAR
STARTCHAR AE50
ENCODING 12657
SWIDTH 1400 0
DWIDTH 14 0
BBX 12 13 1 -2
BITMAP
0040
FF40
2240
2240
2240
4270
8440
0840
0040
4040
4000
4000
7FC0
ENDCHAR
STARTCHAR AE54
ENCODING 12658
SWIDTH 1400 0
DWIDTH 14 0
BBX 12 13 1 -2
BITMAP
0040
F640
2240
2240
2270
4440
8840
0000
7FC0
0040
7FC0
4000
7FC0
ENDCHAR
STARTCHAR AE56
ENCODING 12659
SWIDTH 1400 0
DWIDTH 14 0
BBX 12 13 1 -2
BITMAP
0040
EE40
2240
2240
2470
4440
8840
0000
7BC0
0A40
7A40
4240
7FC0
ENDCHAR
STARTCHAR AE5C
ENCODING 12660
SWIDTH 1400 0
DWIDTH 14 0
BBX 12 14 1 -3
BITMAP
0040
FE40
2240
2240
2240
4270
8440
0840
0040
7FC0
4040
4040
7FC0
4000
ENDCHAR
STARTCHAR AE5D
ENCODING 12661
SWIDTH 1400 0
DWIDTH 14 0
BBX 12 13 1 -2
BITMAP
0040
F740
2240
2240
2270
4440
8440
0840
4040
4040
7FC0
4040
7FC0
ENDCHAR
STARTCHAR AE5F
ENCODING 12662
SWIDTH 1400 0
DWIDTH 14 0
BBX 12 13 1 -2
BITMAP
0040
F740
1140
1140
2140
2270
4240
8440
0240
0340
0500
08C0
3020
ENDCHAR
STARTCHAR AE60
ENCODING 12663
SWIDTH 1400 0
DWIDTH 14 0
BBX 12 14 1 -3
BITMAP
0040
FF40
2240
2240
2240
4270
8440
0840
0040
1080
1080
28C0
4160
0220
ENDCHAR
STARTCHAR AE61
ENCODING 12664
SWIDTH 1400 0
DWIDTH 14 0
BBX 12 14 1 -3
BITMAP
0040
FE40
1240
2240
2240
4270
C440
0440
0040
3FC0
6060
4020
2040
1F80
ENDCHAR
STARTCHAR AE65
ENCODING 12665
SWIDTH 1400 0
DWIDTH 14 0
BBX 12 13 1 -2
BITMAP
0040
EE40
2240
2240
2240
4470
8840
0040
7FC0
4000
7FC0
4000
7FC0
ENDCHAR
STARTCHAR AE68
ENCODING 12666
SWIDTH 1400 0
DWIDTH 14 0
BBX 12 13 1 -2
BITMAP
0010
0090
7E90
1290
2290
2490
2490
24F0
4490
8890
0090
0090
0090
ENDCHAR
STARTCHAR AE69
ENCODING 12667
SWIDTH 1400 0
DWIDTH 14 0
BBX 12 13 1 -2
BITMAP
0010
6C90
2490
2490
2890
48F0
9090
1090
0000
3FF0
0010
0010
0010
ENDCHAR
STARTCHAR AE6C
ENCODING 12668
SWIDTH 1400 0
DWIDTH 14 0
BBX 11 13 2 -2
BITMAP
0020
FD20
2520
4520
4520
4920
89E0
1120
0120
4120
4020
4000
7FE0
ENDCHAR
STARTCHAR AE70
ENCODING 12669
SWIDTH 1400 0
DWIDTH 14 0
BBX 11 13 2 -2
BITMAP
0020
FD20
4520
4520
4920
49E0
9120
1120
7FE0
0020
7FE0
4000
7FE0
ENDCHAR
STARTCHAR AE78
ENCODING 12670
SWIDTH 1400 0
DWIDTH 14 0
BBX 11 14 2 -3
BITMAP
0020
FD20
2520
4520
4920
49E0
8920
1120
0000
7FE0
4020
4020
7FE0
4000
ENDCHAR
STARTCHAR AE79
ENCODING 12833
SWIDTH 1400 0
DWIDTH 14 0
BBX 11 13 2 -2
BITMAP
0020
DD20
4520
4520
4920
89E0
8920
1120
4020
4020
7FE0
4020
7FE0
ENDCHAR
STARTCHAR AE7B
ENCODING 12834
SWIDTH 1400 0
DWIDTH 14 0
BBX 12 13 1 -2
BITMAP
0020
6EA0
22A0
24A0
24A0
44E0
48A0
88A0
0120
0300
0480
0840
3030
ENDCHAR
STARTCHAR AE7C
ENCODING 12835
SWIDTH 1400 0
DWIDTH 14 0
BBX 11 13 2 -2
BITMAP
0020
DD20
4520
4520
4520
89E0
8920
1120
00A0
1080
10C0
2940
4200
ENDCHAR
STARTCHAR AE7D
ENCODING 12836
SWIDTH 1400 0
DWIDTH 14 0
BBX 11 12 2 -2
BITMAP
FD20
2520
4520
4920
49E0
8920
1120
0020
3FC0
4020
6060
3FC0
ENDCHAR
STARTCHAR AE84
ENCODING 12837
SWIDTH 1400 0
DWIDTH 14 0
BBX 12 13 1 -2
BITMAP
0040
0040
EE40
2240
2270
2240
2240
4240
4470
8440
0840
0040
0040
ENDCHAR
STARTCHAR AE85
ENCODING 12838
SWIDTH 1400 0
DWIDTH 14 0
BBX 12 13 1 -2
BITMAP
0040
EF40
2240
2270
2240
4240
8470
0840
0040
7FC0
0040
0040
0040
ENDCHAR
STARTCHAR AE8C
ENCODING 12839
SWIDTH 1400 0
DWIDTH 14 0
BBX 12 12 1 -2
BITMAP
FE40
2240
2270
2240
4470
8840
0040
7FC0
0040
7FC0
4000
7FC0
ENDCHAR
STARTCHAR AEBC
ENCODING 12840
SWIDTH 1400 0
DWIDTH 14 0
BBX 10 12 2 -2
BITMAP
0040
EE40
2240
2240
2240
43C0
4440
8440
0840
1040
0040
0040
ENDCHAR
STARTCHAR AEBD
ENCODING 12841
SWIDTH 1400 0
DWIDTH 14 0
BBX 10 13 2 -2
BITMAP
0040
EE40
2240
2240
45C0
4440
8840
1040
0000
FFC0
0040
0040
0040
ENDCHAR
STARTCHAR AEBE
ENCODING 12842
SWIDTH 1400 0
DWIDTH 14 0
BBX 11 13 2 -2
BITMAP
0020
EE20
2220
2220
44E0
4420
8820
0020
7BE0
0820
0820
0820
0820
ENDCHAR
STARTCHAR AEC0
ENCODING 12843
SWIDTH 1400 0
DWIDTH 14 0
BBX 10 13 2 -2
BITMAP
0040
EE40
2240
2240
25C0
4440
8840
0840
0040
4040
4000
4000
7FC0
ENDCHAR
STARTCHAR AEC4
ENCODING 12844
SWIDTH 1400 0
DWIDTH 14 0
BBX 10 13 2 -2
BITMAP
0040
EE40
2240
2240
45C0
4440
8840
0000
7FC0
0040
7FC0
4000
7FC0
ENDCHAR
STARTCHAR AECC
ENCODING 12845
SWIDTH 1400 0
DWIDTH 14 0
BBX 10 14 2 -3
BITMAP
0040
EE40
2240
2440
25C0
4440
8840
1040
0000
7FC0
4040
4040
7FC0
4000
ENDCHAR
STARTCHAR AECD
ENCODING 12846
SWIDTH 1400 0
DWIDTH 14 0
BBX 10 14 2 -3
BITMAP
0040
EE40
2240
2240
25C0
4440
8840
0040
4040
4040
7FC0
4040
7FC0
4000
ENDCHAR
STARTCHAR AECF
ENCODING 12847
SWIDTH 1400 0
DWIDTH 14 0
BBX 10 14 2 -3
BITMAP
0040
EE40
2240
2440
4440
45C0
8840
1840
0040
0440
0400
0A00
1100
60C0
ENDCHAR
STARTCHAR AED0
ENCODING 12848
SWIDTH 1400 0
DWIDTH 14 0
BBX 12 13 1 -2
BITMAP
0020
7E20
1220
2220
24E0
4420
8820
1020
0800
0840
18C0
24C0
4130
ENDCHAR
STARTCHAR AED1
ENCODING 12849
SWIDTH 1400 0
DWIDTH 14 0
BBX 11 13 2 -2
BITMAP
0040
EE40
2240
2440
25C0
4440
8840
1040
0040
3FC0
4020
4020
3FC0
ENDCHAR
STARTCHAR AED8
ENCODING 12850
SWIDTH 1400 0
DWIDTH 14 0
BBX 11 13 2 -2
BITMAP
0020
0120
F920
2920
4920
4920
4F20
8920
9120
1120
2120
0120
0120
ENDCHAR
STARTCHAR AED9
ENCODING 12851
SWIDTH 1400 0
DWIDTH 14 0
BBX 12 13 1 -2
BITMAP
0010
7E50
2250
2250
2450
45D0
8850
0850
0040
3FF0
0010
0010
0010
ENDCHAR
STARTCHAR AEDC
ENCODING 12852
SWIDTH 1400 0
DWIDTH 14 0
BBX 12 13 1 -2
BITMAP
0010
6E90
2290
2490
2790
4490
8890
1090
0090
2090
2000
2000
3FF0
ENDCHAR
STARTCHAR AEE8
ENCODING 12853
SWIDTH 1400 0
DWIDTH 14 0
BBX 11 13 2 -2
BITMAP
0020
FD20
4520
4920
4920
8F20
9120
2120
0100
7FE0
4020
4020
7FE0
ENDCHAR
STARTCHAR AEEB
ENCODING 12854
SWIDTH 1400 0
DWIDTH 14 0
BBX 12 13 1 -2
BITMAP
0010
7C90
2490
2490
2890
4B90
D090
1090
0280
0300
0500
08C0
3020
ENDCHAR
STARTCHAR AEED
ENCODING 12855
SWIDTH 1400 0
DWIDTH 14 0
BBX 12 13 1 -2
BITMAP
0010
7E90
2290
2490
2490
4790
C890
1090
0080
1FE0
2010
2010
1FE0
ENDCHAR
STARTCHAR AEF4
ENCODING 12856
SWIDTH 1400 0
DWIDTH 14 0
BBX 11 13 2 -2
BITMAP
0020
0020
EE20
22E0
2220
2220
4420
44E0
8420
0820
1020
0020
0020
ENDCHAR
STARTCHAR AEF8
ENCODING 12857
SWIDTH 1400 0
DWIDTH 14 0
BBX 11 13 2 -2
BITMAP
0040
EE40
2240
23C0
4440
4440
89C0
1040
0040
4040
4000
4000
7FE0
ENDCHAR
STARTCHAR AEFC
ENCODING 12858
SWIDTH 1400 0
DWIDTH 14 0
BBX 11 13 2 -2
BITMAP
0040
EE40
2240
23C0
4440
45C0
8840
0040
7FC0
0040
7FC0
4000
7FE0
ENDCHAR
STARTCHAR AF07
ENCODING 12859
SWIDTH 1400 0
DWIDTH 14 0
BBX 11 13 2 -2
BITMAP
0040
EE40
2240
23C0
2440
4440
89C0
0840
0240
0240
0500
0880
3060
ENDCHAR
STARTCHAR AF08
ENCODING 12860
SWIDTH 1400 0
DWIDTH 14 0
BBX 12 14 1 -3
BITMAP
0020
7E20
1220
12E0
2220
4420
C4E0
0820
0000
0840
0840
14A0
2310
4000
ENDCHAR
STARTCHAR AF0D
ENCODING 12861
SWIDTH 1400 0
DWIDTH 14 0
BBX 11 13 2 -2
BITMAP
0040
EE40
2240
25C0
4440
4440
89C0
0040
7FC0
4000
7FC0
4000
7FE0
ENDCHAR
STARTCHAR AF10
ENCODING 12862
SWIDTH 1400 0
DWIDTH 14 0
BBX 11 14 2 -3
BITMAP
0020
0120
F920
2920
4F20
4920
4920
9720
9120
2120
2120
0120
0120
0020
ENDCHAR
STARTCHAR AF2C
ENCODING 12863
SWIDTH 1400 0
DWIDTH 14 0
BBX 13 10 1 -1
BITMAP
79E0
0820
1020
1020
1040
1240
1240
0200
0200
FFF8
ENDCHAR
STARTCHAR AF2D
ENCODING 12864
SWIDTH 1400 0
DWIDTH 14 0
BBX 12 12 1 -2
BITMAP
7BE0
0820
1240
1240
1240
FFF0
0000
7FE0
0020
0020
0020
0020
ENDCHAR
STARTCHAR AF30
ENCODING 12865
SWIDTH 1400 0
DWIDTH 14 0
BBX 13 12 1 -2
BITMAP
7BE0
0820
1020
1240
1240
0200
FFF8
0000
4000
4000
4000
7FE0
ENDCHAR
STARTCHAR AF32
ENCODING 12866
SWIDTH 1400 0
DWIDTH 14 0
BBX 13 12 1 -2
BITMAP
7BE0
0840
1240
1240
0200
FFF8
0000
4380
47E0
4240
4420
73E0
ENDCHAR
STARTCHAR AF34
ENCODING 12867
SWIDTH 1400 0
DWIDTH 14 0
BBX 13 12 1 -2
BITMAP
7BE0
0820
0840
1240
1240
FFF8
0000
3FE0
0020
7FE0
4000
7FE0
ENDCHAR
STARTCHAR AF3C
ENCODING 12868
SWIDTH 1400 0
DWIDTH 14 0
BBX 13 13 1 -3
BITMAP
7BE0
0840
1240
1240
0200
FFF8
0000
0000
7FE0
4020
4020
7FE0
4000
ENDCHAR
STARTCHAR AF3D
ENCODING 12869
SWIDTH 1400 0
DWIDTH 14 0
BBX 13 12 1 -2
BITMAP
7BE0
0820
1240
1240
0200
FFF8
0000
4020
4020
7FE0
4020
7FE0
ENDCHAR
STARTCHAR AF3F
ENCODING 12870
SWIDTH 1400 0
DWIDTH 14 0
BBX 13 12 1 -2
BITMAP
7BE0
0820
1040
1240
1240
0200
FFF8
0200
0600
0600
1980
6060
ENDCHAR
STARTCHAR AF41
ENCODING 12871
SWIDTH 1400 0
DWIDTH 14 0
BBX 13 12 1 -2
BITMAP
7BE0
0820
1040
1240
0200
FFF8
0000
1F80
6060
4020
6060
1FC0
ENDCHAR
STARTCHAR AF42
ENCODING 12872
SWIDTH 1400 0
DWIDTH 14 0
BBX 12 12 1 -2
BITMAP
7BE0
0820
1040
1200
0200
FFF0
0000
7FE0
0400
0600
0900
70E0
ENDCHAR
STARTCHAR AF43
ENCODING 12873
SWIDTH 1400 0
DWIDTH 14 0
BBX 13 13 1 -3
BITMAP
7BE0
1020
1040
1240
0200
FFF8
0F00
0000
7FE0
0600
0600
1980
2060
ENDCHAR
STARTCHAR AF48
ENCODING 12874
SWIDTH 1400 0
DWIDTH 14 0
BBX 12 14 1 -3
BITMAP
0040
0040
E740
2140
2140
2140
2970
2840
0840
3F40
4040
0040
0040
0040
ENDCHAR
STARTCHAR AF49
ENCODING 12875
SWIDTH 1400 0
DWIDTH 14 0
BBX 12 13 1 -2
BITMAP
0040
EE40
2240
2240
2A40
2A70
0F40
7040
0000
7FC0
0040
0040
0040
ENDCHAR
STARTCHAR AF50
ENCODING 12876
SWIDTH 1400 0
DWIDTH 14 0
BBX 12 13 1 -2
BITMAP
0040
EF40
2140
2140
2A40
2A70
FF40
0040
7FC0
0040
7FC0
4000
7FC0
ENDCHAR
STARTCHAR AF5C
ENCODING 12877
SWIDTH 1400 0
DWIDTH 14 0
BBX 12 13 1 -2
BITMAP
0040
EF40
2140
2140
2A40
2870
08C0
7740
0040
1080
18C0
2920
4200
ENDCHAR
STARTCHAR AF5D
ENCODING 12878
SWIDTH 1400 0
DWIDTH 14 0
BBX 12 13 1 -2
BITMAP
0040
E740
2140
2240
2A40
2A70
09C0
F640
0040
3F80
4040
4040
3F80
ENDCHAR
STARTCHAR AF64
ENCODING 12879
SWIDTH 1400 0
DWIDTH 14 0
BBX 11 13 2 -2
BITMAP
0120
0120
DD20
4520
4520
4520
55E0
5520
1120
3F20
4120
0120
0120
ENDCHAR
STARTCHAR AF65
ENCODING 12880
SWIDTH 1400 0
DWIDTH 14 0
BBX 11 13 2 -2
BITMAP
0020
DD20
4520
4520
5520
11E0
3F20
4120
0000
7FE0
0020
0020
0020
ENDCHAR
STARTCHAR AF79
ENCODING 12881
SWIDTH 1400 0
DWIDTH 14 0
BBX 11 13 2 -2
BITMAP
0020
DD20
4520
4520
5120
11E0
1720
6920
0020
3FC0
4020
4020
3FC0
ENDCHAR
STARTCHAR AF80
ENCODING 12882
SWIDTH 1400 0
DWIDTH 14 0
BBX 10 12 2 -2
BITMAP
0040
EF40
2140
2140
2A40
2A40
0A40
0840
FF40
0040
0040
0040
ENDCHAR
STARTCHAR AF84
ENCODING 12883
SWIDTH 1400 0
DWIDTH 14 0
BBX 10 13 2 -2
BITMAP
0040
EF40
2140
2140
2240
2840
0840
FFC0
0040
4040
4000
4000
7FC0
ENDCHAR
STARTCHAR AF88
ENCODING 12884
SWIDTH 1400 0
DWIDTH 14 0
BBX 10 13 2 -2
BITMAP
0040
EF40
2140
2940
2A40
0840
FF40
0000
7FC0
0040
7FC0
4000
7FC0
ENDCHAR
STARTCHAR AF90
ENCODING 12885
SWIDTH 1400 0
DWIDTH 14 0
BBX 10 14 2 -3
BITMAP
0040
EF40
2140
2140
2940
2840
0840
FF40
0000
7FC0
4040
4040
7FC0
4040
ENDCHAR
STARTCHAR AF91
ENCODING 12886
SWIDTH 1400 0
DWIDTH 14 0
BBX 10 14 2 -3
BITMAP
0040
EF40
2140
2140
2A40
2840
0840
F700
4040
4040
7FC0
4040
7FC0
4000
ENDCHAR
STARTCHAR AF95
ENCODING 12887
SWIDTH 1400 0
DWIDTH 14 0
BBX 10 13 2 -2
BITMAP
0040
EF40
2140
2140
2940
2840
0840
FFC0
0000
3F80
4040
4040
3F80
ENDCHAR
STARTCHAR AF9C
ENCODING 12888
SWIDTH 1400 0
DWIDTH 14 0
BBX 12 10 1 -1
BITMAP
73E0
1020
1020
1020
1020
2020
2900
0900
0900
FFF0
ENDCHAR
STARTCHAR AFB8
ENCODING 12889
SWIDTH 1400 0
DWIDTH 14 0
BBX 13 13 0 -3
BITMAP
79E0
0820
0820
0820
0820
FFF8
0200
0200
0200
0200
0200
0200
0200
ENDCHAR
STARTCHAR AFB9
ENCODING 12890
SWIDTH 1400 0
DWIDTH 14 0
BBX 13 13 0 -3
BITMAP
79E0
0820
0820
0820
0820
FFF8
0200
3FF0
0010
0010
0010
0010
0010
ENDCHAR
STARTCHAR AFBC
ENCODING 12891
SWIDTH 1400 0
DWIDTH 14 0
BBX 12 12 1 -2
BITMAP
7BE0
0840
0840
0840
1040
FFF0
0400
0400
4400
4000
4000
7FE0
ENDCHAR
STARTCHAR AFC0
ENCODING 12892
SWIDTH 1400 0
DWIDTH 14 0
BBX 14 12 0 -2
BITMAP
78F0
0810
0810
0820
FFFC
0200
0200
3FF0
0010
3FF0
2000
3FF0
ENDCHAR
STARTCHAR AFC7
ENCODING 12893
SWIDTH 1400 0
DWIDTH 14 0
BBX 13 13 1 -3
BITMAP
79E0
0820
0820
0820
FFF8
0200
7B80
0BE0
0800
79C0
4220
41C0
7000
ENDCHAR
STARTCHAR AFC8
ENCODING 12894
SWIDTH 1400 0
DWIDTH 14 0
BBX 14 12 0 -2
BITMAP
78F0
0810
0810
0820
FFFC
0200
0200
3FF0
2010
2010
2010
3FF0
ENDCHAR
STARTCHAR AFC9
ENCODING 12895
SWIDTH 1400 0
DWIDTH 14 0
BBX 14 12 0 -2
BITMAP
79F0
0810
0810
0810
0810
FFFC
0200
2200
2210
3FF0
2010
3FF0
ENDCHAR
STARTCHAR AFCB
ENCODING 12896
SWIDTH 1400 0
DWIDTH 14 0
BBX 13 12 0 -2
BITMAP
79E0
0820
0820
0820
FFF8
0200
0200
0000
0300
0700
0CC0
3030
ENDCHAR
STARTCHAR AFCD
ENCODING 12897
SWIDTH 1400 0
DWIDTH 14 0
BBX 13 12 1 -2
BITMAP
79E0
0820
0820
0820
FFF8
0200
0200
1FC0
6060
4020
6060
1F80
ENDCHAR
STARTCHAR AFCE
ENCODING 12898
SWIDTH 1400 0
DWIDTH 14 0
BBX 13 12 0 -2
BITMAP
79E0
0820
0820
0820
FFF8
0200
0200
3FF0
0200
0300
0C80
3070
ENDCHAR
STARTCHAR AFD4
ENCODING 12899
SWIDTH 1400 0
DWIDTH 14 0
BBX 11 13 1 -3
BITMAP
0020
F720
1120
1120
2120
2220
FF20
0820
09E0
0820
0820
0820
0020
ENDCHAR
STARTCHAR AFDC
ENCODING 12900
SWIDTH 1400 0
DWIDTH 14 0
BBX 12 12 1 -2
BITMAP
F720
1120
2120
2220
3FA0
49E0
0820
3FE0
0020
3FE0
2000
3FF0
ENDCHAR
STARTCHAR AFE8
ENCODING 12901
SWIDTH 1400 0
DWIDTH 14 0
BBX 12 13 1 -2
BITMAP
0020
F720
1120
2120
2120
FFA0
0820
08E0
0060
0840
18C0
18A0
6510
ENDCHAR
STARTCHAR AFE9
ENCODING 12902
SWIDTH 1400 0
DWIDTH 14 0
BBX 10 13 3 -2
BITMAP
0080
EE80
2280
4280
4280
7F80
9080
1780
0080
7F80
8040
8040
7F80
ENDCHAR
STARTCHAR AFF0
ENCODING 12903
SWIDTH 1400 0
DWIDTH 14 0
BBX 12 13 1 -2
BITMAP
0090
0090
6E90
2290
2490
2490
E690
1890
1790
1090
1090
1090
0090
ENDCHAR
STARTCHAR AFF1
ENCODING 12904
SWIDTH 1400 0
DWIDTH 14 0
BBX 12 14 1 -3
BITMAP
0010
0090
EC90
2490
2490
C690
3890
1190
0080
3FF0
0010
0010
0010
0010
ENDCHAR
STARTCHAR AFF4
ENCODING 12905
SWIDTH 1400 0
DWIDTH 14 0
BBX 12 13 1 -2
BITMAP
0010
0090
EC90
2490
4490
4490
5E90
3090
1390
3090
2080
2000
3FF0
ENDCHAR
STARTCHAR AFF8
ENCODING 12906
SWIDTH 1400 0
DWIDTH 14 0
BBX 12 13 1 -2
BITMAP
0090
0090
EC90
2490
2490
C690
3B90
1000
3FF0
0010
3FF0
2000
3FF0
ENDCHAR
STARTCHAR B000
ENCODING 12907
SWIDTH 1400 0
DWIDTH 14 0
BBX 12 14 1 -3
BITMAP
0010
0090
EC90
2490
2490
4490
F890
1390
1080
3FF0
2010
2010
3FF0
2010
ENDCHAR
STARTCHAR B001
ENCODING 12908
SWIDTH 1400 0
DWIDTH 14 0
BBX 12 14 1 -3
BITMAP
0010
0090
FC90
2490
2490
4490
FB90
1080
3010
2010
3FF0
2010
3FF0
2000
ENDCHAR
STARTCHAR B004
ENCODING 12909
SWIDTH 1400 0
DWIDTH 14 0
BBX 12 14 1 -3
BITMAP
0020
0120
ED20
2520
2520
2520
FF20
1720
1100
0840
0840
1460
20A0
0110
ENDCHAR
STARTCHAR B00C
ENCODING 12910
SWIDTH 1400 0
DWIDTH 14 0
BBX 10 13 2 -2
BITMAP
0040
0040
E740
2140
2140
2140
2240
FFC0
0840
0840
0840
0840
0840
ENDCHAR
STARTCHAR B010
ENCODING 12911
SWIDTH 1400 0
DWIDTH 14 0
BBX 10 13 2 -2
BITMAP
0040
E740
2140
2140
2240
2240
FD40
0840
0840
4840
4000
4000
7FC0
ENDCHAR
STARTCHAR B014
ENCODING 12912
SWIDTH 1400 0
DWIDTH 14 0
BBX 10 13 2 -2
BITMAP
0040
E740
2140
2140
2240
FFC0
0840
0840
7FC0
0040
7FC0
4000
7FC0
ENDCHAR
STARTCHAR B01C
ENCODING 12913
SWIDTH 1400 0
DWIDTH 14 0
BBX 10 14 2 -3
BITMAP
0040
E740
2140
2140
2240
FFC0
0840
0840
0000
7FC0
4040
4040
7FC0
4040
ENDCHAR
STARTCHAR B01D
ENCODING 12914
SWIDTH 1400 0
DWIDTH 14 0
BBX 10 14 2 -3
BITMAP
0040
E740
2140
2140
2240
3FC0
4840
0800
4840
4040
7FC0
4040
7FC0
4040
ENDCHAR
STARTCHAR B028
ENCODING 12915
SWIDTH 1400 0
DWIDTH 14 0
BBX 14 13 0 -3
BITMAP
3DF0
0410
0410
0820
0820
FFFC
0840
0840
0840
0840
0840
0840
0040
ENDCHAR
STARTCHAR B044
ENCODING 12916
SWIDTH 1400 0
DWIDTH 14 0
BBX 12 10 1 -1
BITMAP
7BE0
0820
0820
0840
0840
1040
1040
1040
1040
FFF0
ENDCHAR
STARTCHAR B045
ENCODING 12917
SWIDTH 1400 0
DWIDTH 14 0
BBX 12 12 1 -2
BITMAP
7BE0
0820
0840
0840
1040
FFF0
0000
7FE0
0020
0020
0020
0020
ENDCHAR
STARTCHAR B048
ENCODING 12918
SWIDTH 1400 0
DWIDTH 14 0
BBX 12 12 1 -2
BITMAP
7BE0
0820
0840
0840
1040
FFF0
0000
0000
4000
4000
4000
7FE0
ENDCHAR
STARTCHAR B04A
ENCODING 12919
SWIDTH 1400 0
DWIDTH 14 0
BBX 12 12 1 -2
BITMAP
7BE0
0840
0840
1040
FFF0
0000
03C0
47E0
4000
43C0
4420
7BC0
ENDCHAR
STARTCHAR B04C
ENCODING 12920
SWIDTH 1400 0
DWIDTH 14 0
BBX 12 12 1 -2
BITMAP
7BE0
0840
0840
1040
FFF0
0000
0000
7FE0
0020
7FE0
4000
7FE0
ENDCHAR
STARTCHAR B04E
ENCODING 12921
SWIDTH 1400 0
DWIDTH 14 0
BBX 12 13 1 -3
BITMAP
7BE0
0820
0840
1040
1040
FFF0
0000
3FE0
0620
7E20
4220
47E0
3A00
ENDCHAR
STARTCHAR B053
ENCODING 12922
SWIDTH 1400 0
DWIDTH 14 0
BBX 14 13 0 -3
BITMAP
7DF0
0410
0810
0820
FFFC
0000
3CE0
05F0
0400
3CE0
2110
20E0
3800
ENDCHAR
STARTCHAR B054
ENCODING 12923
SWIDTH 1400 0
DWIDTH 14 0
BBX 12 12 1 -2
BITMAP
7BE0
0820
0840
1040
1040
FFF0
0000
7FE0
4020
4020
4020
7FE0
ENDCHAR
STARTCHAR B055
ENCODING 12924
SWIDTH 1400 0
DWIDTH 14 0
BBX 12 13 1 -3
BITMAP
7BE0
0820
0840
1040
1040
FFF0
4020
4020
7FE0
4020
4020
7FE0
4000
ENDCHAR
STARTCHAR B057
ENCODING 12925
SWIDTH 1400 0
DWIDTH 14 0
BBX 12 12 1 -2
BITMAP
7BE0
0820
0840
0840
1040
FFF0
0000
0000
0600
0900
1080
6060
ENDCHAR
STARTCHAR B059
ENCODING 12926
SWIDTH 1400 0
DWIDTH 14 0
BBX 12 12 1 -2
BITMAP
7BE0
0820
0840
1040
1040
FFF0
0000
1F80
6060
4020
6060
1F80
ENDCHAR
STARTCHAR B05D
ENCODING 13089
SWIDTH 1400 0
DWIDTH 14 0
BBX 12 12 1 -2
BITMAP
7BE0
0840
0840
1040
FFF0
0000
7FC0
4000
4000
7FC0
4000
7FE0
ENDCHAR
STARTCHAR B07C
ENCODING 13090
SWIDTH 1400 0
DWIDTH 14 0
BBX 10 13 2 -2
BITMAP
0040
0040
EE40
2240
2240
2240
2240
4240
8440
8440
0840
1040
0040
ENDCHAR
STARTCHAR B07D
ENCODING 13091
SWIDTH 1400 0
DWIDTH 14 0
BBX 10 13 2 -2
BITMAP
0040
EE40
2240
2240
2440
4440
8840
1040
0000
7FC0
0040
0040
0040
ENDCHAR
STARTCHAR B080
ENCODING 13092
SWIDTH 1400 0
DWIDTH 14 0
BBX 10 13 2 -2
BITMAP
0040
EE40
2240
2240
2240
4440
C440
8840
0040
4040
4000
4000
7FC0
ENDCHAR
STARTCHAR B084
ENCODING 13093
SWIDTH 1400 0
DWIDTH 14 0
BBX 10 12 2 -2
BITMAP
EE40
2240
2240
4240
4440
8840
0040
7FC0
0040
7FC0
4000
7FC0
ENDCHAR
STARTCHAR B08C
ENCODING 13094
SWIDTH 1400 0
DWIDTH 14 0
BBX 10 14 2 -3
BITMAP
0040
EE40
2240
2240
2240
4440
8440
0840
0000
7FC0
4040
4040
7FC0
4000
ENDCHAR
STARTCHAR B08D
ENCODING 13095
SWIDTH 1400 0
DWIDTH 14 0
BBX 10 12 2 -2
BITMAP
EE40
2240
2240
2240
4440
8840
0040
4040
4040
7FC0
4040
7FC0
ENDCHAR
STARTCHAR B08F
ENCODING 13096
SWIDTH 1400 0
DWIDTH 14 0
BBX 11 13 2 -2
BITMAP
0040
EE40
2240
2240
4440
4440
8840
1040
0240
0600
0900
1080
6060
ENDCHAR
STARTCHAR B091
ENCODING 13097
SWIDTH 1400 0
DWIDTH 14 0
BBX 11 12 2 -2
BITMAP
EE40
2240
2240
2240
4440
8840
1040
0040
3FC0
4020
4020
3FC0
ENDCHAR
STARTCHAR B098
ENCODING 13098
SWIDTH 1400 0
DWIDTH 14 0
BBX 12 13 1 -2
BITMAP
0040
0040
8040
8040
8040
8040
8070
8040
8040
FE40
0040
0040
0040
ENDCHAR
STARTCHAR B099
ENCODING 13099
SWIDTH 1400 0
DWIDTH 14 0
BBX 12 13 1 -2
BITMAP
0040
8040
8040
8040
8070
8040
FF40
0040
0000
7FC0
0040
0040
0040
ENDCHAR
STARTCHAR B09A
ENCODING 13100
SWIDTH 1400 0
DWIDTH 14 0
BBX 12 13 1 -2
BITMAP
0040
8040
8040
8040
8070
8040
FF40
0040
7BC0
0840
0840
0840
0840
ENDCHAR
STARTCHAR B09C
ENCODING 13101
SWIDTH 1400 0
DWIDTH 14 0
BBX 12 13 1 -2
BITMAP
0040
8040
8040
8040
8040
8070
8040
FE40
0040
4040
4000
4000
7FC0
ENDCHAR
STARTCHAR B09F
ENCODING 13102
SWIDTH 1400 0
DWIDTH 14 0
BBX 12 13 1 -2
BITMAP
0040
8040
8040
8040
8040
8070
FF40
0040
0040
7FC0
4000
4000
7FC0
ENDCHAR
STARTCHAR B0A0
ENCODING 13103
SWIDTH 1400 0
DWIDTH 14 0
BBX 12 12 1 -2
BITMAP
8040
8040
8040
8070
8040
FE40
0000
7FC0
0040
7FC0
4000
7FC0
ENDCHAR
STARTCHAR B0A1
ENCODING 13104
SWIDTH 1400 0
DWIDTH 14 0
BBX 12 14 1 -3
BITMAP
0040
8040
8040
8040
8070
8040
FE40
0000
7BC0
0840
7840
4040
4040
3800
ENDCHAR
STARTCHAR B0A2
ENCODING 13105
SWIDTH 1400 0
DWIDTH 14 0
BBX 12 14 1 -3
BITMAP
0040
8040
8040
8040
8070
8040
FE40
0000
7BC0
0A40
7A40
4240
4FC0
3200
ENDCHAR
STARTCHAR B0A8
ENCODING 13106
SWIDTH 1400 0
DWIDTH 14 0
BBX 12 13 1 -2
BITMAP
0040
8040
8040
8040
8040
8070
FE40
0040
0000
7FC0
4040
4040
7FC0
ENDCHAR
STARTCHAR B0A9
ENCODING 13107
SWIDTH 1400 0
DWIDTH 14 0
BBX 12 14 1 -3
BITMAP
0040
8040
8040
8040
8070
8040
FE40
0000
4040
4040
7FC0
4040
7FC0
4000
ENDCHAR
STARTCHAR B0AB
ENCODING 13108
SWIDTH 1400 0
DWIDTH 14 0
BBX 12 13 1 -2
BITMAP
0040
8040
8040
8040
8040
8070
8140
FE40
0040
0600
0600
1980
6060
ENDCHAR
STARTCHAR B0AC
ENCODING 13109
SWIDTH 1400 0
DWIDTH 14 0
BBX 12 13 1 -2
BITMAP
0040
8040
8040
8040
8070
8040
FF40
0000
1080
1080
1140
2940
4220
ENDCHAR
STARTCHAR B0AD
ENCODING 13110
SWIDTH 1400 0
DWIDTH 14 0
BBX 12 13 1 -2
BITMAP
0040
8040
8040
8040
8040
8070
FF40
0040
0040
3F80
4040
4040
3F80
ENDCHAR
STARTCHAR B0AE
ENCODING 13111
SWIDTH 1400 0
DWIDTH 14 0
BBX 12 13 1 -2
BITMAP
0040
8040
8040
8040
8070
8140
FE40
0040
7FC0
0400
0E00
1100
60C0
ENDCHAR
STARTCHAR B0AF
ENCODING 13112
SWIDTH 1400 0
DWIDTH 14 0
BBX 12 14 1 -3
BITMAP
0040
8040
8040
8040
8070
FE40
0040
0E00
0000
7FC0
0400
0A00
1B00
60C0
ENDCHAR
STARTCHAR B0B1
ENCODING 13113
SWIDTH 1400 0
DWIDTH 14 0
BBX 12 13 1 -2
BITMAP
0040
8040
8040
8040
8070
8740
7840
0040
7FC0
4000
7FC0
4000
7FC0
ENDCHAR
STARTCHAR B0B3
ENCODING 13114
SWIDTH 1400 0
DWIDTH 14 0
BBX 12 13 1 -2
BITMAP
0040
8040
8040
8040
8070
FF40
0040
0E40
7FC0
0000
7FC0
4040
3F80
ENDCHAR
STARTCHAR B0B4
ENCODING 13115
SWIDTH 1400 0
DWIDTH 14 0
BBX 10 13 2 -2
BITMAP
0240
0240
8240
8240
8240
8240
83C0
8240
8240
FE40
0240
0240
0240
ENDCHAR
STARTCHAR B0B5
ENCODING 13116
SWIDTH 1400 0
DWIDTH 14 0
BBX 10 14 2 -3
BITMAP
0040
8240
8240
8240
8240
83C0
FA40
0240
0040
FFC0
0040
0040
0040
0040
ENDCHAR
STARTCHAR B0B8
ENCODING 13117
SWIDTH 1400 0
DWIDTH 14 0
BBX 11 13 2 -2
BITMAP
0040
8240
8240
8240
8240
83C0
8640
FA40
0240
4240
4000
4000
7FE0
ENDCHAR
STARTCHAR B0BC
ENCODING 13118
SWIDTH 1400 0
DWIDTH 14 0
BBX 11 13 2 -2
BITMAP
0240
8240
8240
8240
83C0
8240
FA40
0000
7FC0
0040
7FC0
4000
7FE0
ENDCHAR
STARTCHAR B0C4
ENCODING 13119
SWIDTH 1400 0
DWIDTH 14 0
BBX 10 14 2 -3
BITMAP
0040
0240
8240
8240
8240
83C0
FE40
0240
0040
7FC0
4040
4040
7FC0
4000
ENDCHAR
STARTCHAR B0C5
ENCODING 13120
SWIDTH 1400 0
DWIDTH 14 0
BBX 10 14 2 -3
BITMAP
0040
8240
8240
8240
8240
83C0
FA40
0240
0000
4040
7FC0
4040
7FC0
4000
ENDCHAR
STARTCHAR B0C7
ENCODING 13121
SWIDTH 1400 0
DWIDTH 14 0
BBX 11 14 1 -3
BITMAP
0020
8120
8120
8120
8120
81E0
8520
F920
0020
0200
0200
0300
0CC0
3020
ENDCHAR
STARTCHAR B0C8
ENCODING 13122
SWIDTH 1400 0
DWIDTH 14 0
BBX 11 13 1 -2
BITMAP
0020
8120
8120
8120
8120
81E0
BD20
4120
0040
1040
18C0
24A0
4120
ENDCHAR
STARTCHAR B0C9
ENCODING 13123
SWIDTH 1400 0
DWIDTH 14 0
BBX 10 14 2 -3
BITMAP
0040
8240
8240
8240
8240
83C0
FE40
0240
0240
3F80
4040
4040
3180
0E00
ENDCHAR
STARTCHAR B0D0
ENCODING 13124
SWIDTH 1400 0
DWIDTH 14 0
BBX 12 13 1 -2
BITMAP
0040
8040
8040
8040
8070
8040
8040
8040
8170
FE40
0040
0040
0040
ENDCHAR
STARTCHAR B0D1
ENCODING 13125
SWIDTH 1400 0
DWIDTH 14 0
BBX 12 13 1 -2
BITMAP
0040
8040
8040
8070
8040
8740
7870
0040
0040
7FC0
0040
0040
0040
ENDCHAR
STARTCHAR B0D4
ENCODING 13126
SWIDTH 1400 0
DWIDTH 14 0
BBX 12 13 1 -2
BITMAP
0040
8040
8040
8070
8040
8040
FF40
0070
0040
4040
4040
4000
7FC0
ENDCHAR
STARTCHAR B0D8
ENCODING 13127
SWIDTH 1400 0
DWIDTH 14 0
BBX 12 13 1 -2
BITMAP
0040
8040
8040
8070
8040
8370
7C40
0000
7FC0
0040
7FC0
4000
7FC0
ENDCHAR
STARTCHAR B0E0
ENCODING 13128
SWIDTH 1400 0
DWIDTH 14 0
BBX 12 13 1 -2
BITMAP
0040
8040
8040
8070
8040
8040
FE70
0040
0000
7FC0
4040
4040
7FC0
ENDCHAR
STARTCHAR B0E5
ENCODING 13129
SWIDTH 1400 0
DWIDTH 14 0
BBX 12 14 1 -3
BITMAP
0040
8040
8040
8070
8040
8040
FE70
0040
0040
3F80
60C0
4040
4080
3F00
ENDCHAR
STARTCHAR B108
ENCODING 13130
SWIDTH 1400 0
DWIDTH 14 0
BBX 10 13 2 -2
BITMAP
0040
0040
8040
8040
8040
87C0
8040
8040
8040
FE40
0040
0040
0040
ENDCHAR
STARTCHAR B109
ENCODING 13131
SWIDTH 1400 0
DWIDTH 14 0
BBX 10 13 2 -2
BITMAP
0040
8040
8040
87C0
8040
8040
FC40
0040
0040
7FC0
0040
0040
0040
ENDCHAR
STARTCHAR B10B
ENCODING 13132
SWIDTH 1400 0
DWIDTH 14 0
BBX 11 13 1 -2
BITMAP
0020
8020
8020
83E0
8020
8220
FC20
0020
7880
0880
08C0
0960
0A20
ENDCHAR
STARTCHAR B10C
ENCODING 13133
SWIDTH 1400 0
DWIDTH 14 0
BBX 10 12 2 -2
BITMAP
8040
8040
8040
87C0
8040
8240
FC40
0040
4040
4040
4000
7FC0
ENDCHAR
STARTCHAR B110
ENCODING 13134
SWIDTH 1400 0
DWIDTH 14 0
BBX 10 13 2 -2
BITMAP
0040
8040
8040
87C0
8040
8040
F840
0040
7FC0
0040
7FC0
4000
7FC0
ENDCHAR
STARTCHAR B112
ENCODING 13135
SWIDTH 1400 0
DWIDTH 14 0
BBX 10 14 2 -3
BITMAP
0040
8040
8040
87C0
8040
8040
F840
0000
7BC0
0A40
7A40
4240
7FC0
0200
ENDCHAR
STARTCHAR B113
ENCODING 13136
SWIDTH 1400 0
DWIDTH 14 0
BBX 10 14 2 -3
BITMAP
0040
8040
8040
87C0
8040
8440
F840
0040
7A40
0BC0
7A40
4240
47C0
3A00
ENDCHAR
STARTCHAR B118
ENCODING 13137
SWIDTH 1400 0
DWIDTH 14 0
BBX 10 13 2 -2
BITMAP
0040
8040
8040
87C0
8040
8040
FC40
0040
0000
7FC0
4040
4040
7FC0
ENDCHAR
STARTCHAR B119
ENCODING 13138
SWIDTH 1400 0
DWIDTH 14 0
BBX 10 14 2 -3
BITMAP
0040
8040
8040
87C0
8040
8040
FC40
0000
4040
4040
7FC0
4040
7FC0
0040
ENDCHAR
STARTCHAR B11B
ENCODING 13139
SWIDTH 1400 0
DWIDTH 14 0
BBX 11 13 1 -2
BITMAP
0020
8020
8020
8020
83E0
8020
8020
F820
0220
0220
0500
08C0
3020
ENDCHAR
STARTCHAR B11C
ENCODING 13140
SWIDTH 1400 0
DWIDTH 14 0
BBX 11 13 1 -2
BITMAP
0040
8040
8040
87C0
8040
8040
8040
7840
0040
1840
1840
24A0
4120
ENDCHAR
STARTCHAR B11D
ENCODING 13141
SWIDTH 1400 0
DWIDTH 14 0
BBX 10 13 2 -2
BITMAP
0040
8040
8040
87C0
8040
8040
FC40
0040
0000
3F80
4040
4040
3F80
ENDCHAR
STARTCHAR B123
ENCODING 13142
SWIDTH 1400 0
DWIDTH 14 0
BBX 10 14 2 -3
BITMAP
0040
8040
8040
87C0
8040
FC40
0040
1E40
FFC0
0000
3F80
4040
71C0
0E00
ENDCHAR
STARTCHAR B124
ENCODING 13143
SWIDTH 1400 0
DWIDTH 14 0
BBX 10 13 2 -2
BITMAP
0240
0240
8240
8240
8240
9E40
8240
8240
8240
9A40
6240
0240
0240
ENDCHAR
STARTCHAR B125
ENCODING 13144
SWIDTH 1400 0
DWIDTH 14 0
BBX 10 13 2 -2
BITMAP
0040
8240
8240
8240
9E40
8240
8A40
F240
0200
FFC0
0040
0040
0040
ENDCHAR
STARTCHAR B128
ENCODING 13145
SWIDTH 1400 0
DWIDTH 14 0
BBX 11 13 2 -2
BITMAP
0200
0240
8240
8240
9E40
8240
8240
FA40
0240
4240
4040
4000
7FE0
ENDCHAR
STARTCHAR B12C
ENCODING 13146
SWIDTH 1400 0
DWIDTH 14 0
BBX 11 13 2 -2
BITMAP
0040
0240
8240
9E40
8240
8240
FA40
0000
7FC0
0040
7FC0
4000
7FE0
ENDCHAR
STARTCHAR B134
ENCODING 13147
SWIDTH 1400 0
DWIDTH 14 0
BBX 10 13 2 -2
BITMAP
0040
8240
8240
8240
8E40
8240
FA40
0240
0200
7FC0
4040
4040
7FC0
ENDCHAR
STARTCHAR B135
ENCODING 13148
SWIDTH 1400 0
DWIDTH 14 0
BBX 10 13 2 -2
BITMAP
0040
8240
8240
9E40
8240
8240
FA40
0240
0000
4040
7FC0
4040
7FC0
ENDCHAR
STARTCHAR B137
ENCODING 13149
SWIDTH 1400 0
DWIDTH 14 0
BBX 11 14 1 -3
BITMAP
0020
0120
8120
8120
8F20
8120
8120
F120
0120
0200
0200
0500
18C0
6020
ENDCHAR
STARTCHAR B138
ENCODING 13150
SWIDTH 1400 0
DWIDTH 14 0
BBX 11 14 1 -3
BITMAP
0020
0120
8120
8F20
8120
8120
F920
0120
0000
0880
1080
1940
2520
4000
ENDCHAR
STARTCHAR B139
ENCODING 13151
SWIDTH 1400 0
DWIDTH 14 0
BBX 10 13 2 -2
BITMAP
0240
8240
8240
9E40
8240
8240
FA40
0240
0000
3F80
4040
4040
3F80
ENDCHAR
STARTCHAR B140
ENCODING 13152
SWIDTH 1400 0
DWIDTH 14 0
BBX 10 13 2 -2
BITMAP
0040
0040
8040
87C0
8040
8040
8040
87C0
8040
8C40
7040
0040
0040
ENDCHAR
STARTCHAR B141
ENCODING 13153
SWIDTH 1400 0
DWIDTH 14 0
BBX 10 14 2 -3
BITMAP
0040
8040
87C0
8040
8040
87C0
8040
F840
0040
7FC0
0040
0040
0040
0040
ENDCHAR
STARTCHAR B144
ENCODING 13154
SWIDTH 1400 0
DWIDTH 14 0
BBX 10 13 2 -2
BITMAP
0040
8040
87C0
8040
8040
87C0
8040
FC40
0040
4040
4000
4000
7FC0
ENDCHAR
STARTCHAR B148
ENCODING 13155
SWIDTH 1400 0
DWIDTH 14 0
BBX 10 13 2 -2
BITMAP
0040
8040
87C0
8040
87C0
8040
F840
0000
7FC0
0040
7FC0
4000
7FC0
ENDCHAR
STARTCHAR B150
ENCODING 13156
SWIDTH 1400 0
DWIDTH 14 0
BBX 10 13 2 -2
BITMAP
0040
8040
83C0
8040
8040
83C0
8440
F840
0040
7FC0
4040
4040
7FC0
ENDCHAR
STARTCHAR B151
ENCODING 13157
SWIDTH 1400 0
DWIDTH 14 0
BBX 10 14 2 -3
BITMAP
0040
8040
87C0
8040
8040
87C0
FC40
0040
4040
4040
7FC0
4040
7FC0
4000
ENDCHAR
STARTCHAR B154
ENCODING 13158
SWIDTH 1400 0
DWIDTH 14 0
BBX 12 13 1 -2
BITMAP
0020
8020
81E0
8020
8020
81E0
9C20
6020
0040
0840
1840
24A0
4110
ENDCHAR
STARTCHAR B155
ENCODING 13159
SWIDTH 1400 0
DWIDTH 14 0
BBX 10 13 2 -3
BITMAP
8040
87C0
8040
8040
87C0
8440
7840
0040
3F80
60C0
4040
60C0
3F00
ENDCHAR
STARTCHAR B158
ENCODING 13160
SWIDTH 1400 0
DWIDTH 14 0
BBX 10 13 2 -2
BITMAP
0040
8040
87C0
8040
8040
87C0
FC40
0040
0040
7FC0
0040
7E80
0080
ENDCHAR
STARTCHAR B15C
ENCODING 13161
SWIDTH 1400 0
DWIDTH 14 0
BBX 10 14 2 -3
BITMAP
0040
0240
8240
8240
9E40
8240
8240
9E40
8240
8A40
F240
0240
0240
0040
ENDCHAR
STARTCHAR B160
ENCODING 13162
SWIDTH 1400 0
DWIDTH 14 0
BBX 11 13 2 -2
BITMAP
0040
0240
8240
8E40
8240
8E40
8240
FA40
0240
4240
4000
4000
7FE0
ENDCHAR
STARTCHAR B178
ENCODING 13163
SWIDTH 1400 0
DWIDTH 14 0
BBX 13 10 0 -1
BITMAP
2000
2000
2000
2000
3FF0
0200
0200
0200
0200
FFF8
ENDCHAR
STARTCHAR B179
ENCODING 13164
SWIDTH 1400 0
DWIDTH 14 0
BBX 13 13 1 -3
BITMAP
4000
4000
4000
7FE0
0200
FFF8
0000
0000
7FE0
0020
0020
0020
0020
ENDCHAR
STARTCHAR B17C
ENCODING 13165
SWIDTH 1400 0
DWIDTH 14 0
BBX 13 12 0 -2
BITMAP
2000
2000
2000
3FE0
0200
0200
FFF8
0000
2000
2000
2000
3FF0
ENDCHAR
STARTCHAR B180
ENCODING 13166
SWIDTH 1400 0
DWIDTH 14 0
BBX 13 12 0 -2
BITMAP
2000
2000
3FE0
0200
0200
FFF8
0000
3FF0
0010
3FF0
2000
3FF0
ENDCHAR
STARTCHAR B182
ENCODING 13167
SWIDTH 1400 0
DWIDTH 14 0
BBX 13 12 0 -2
BITMAP
2000
2000
3FE0
0200
0200
FFF8
0000
1FF0
0310
3F10
2110
3FF0
ENDCHAR
STARTCHAR B188
ENCODING 13168
SWIDTH 1400 0
DWIDTH 14 0
BBX 13 13 0 -3
BITMAP
2000
2000
3FE0
0200
0200
FFF8
0000
0000
3FF0
2010
2010
3FF0
2000
ENDCHAR
STARTCHAR B189
ENCODING 13169
SWIDTH 1400 0
DWIDTH 14 0
BBX 13 13 0 -3
BITMAP
2000
2000
3FE0
0200
0200
FFF8
0000
0000
2010
3FF0
2010
3FF0
2000
ENDCHAR
STARTCHAR B18B
ENCODING 13170
SWIDTH 1400 0
DWIDTH 14 0
BBX 13 12 0 -2
BITMAP
2000
2000
2000
3FF0
0200
0200
FFF8
0000
0200
0300
0480
3870
ENDCHAR
STARTCHAR B18D
ENCODING 13171
SWIDTH 1400 0
DWIDTH 14 0
BBX 13 12 0 -2
BITMAP
2000
2000
2000
3FE0
0200
0200
FFF8
0000
1FE0
2010
2010
1FE0
ENDCHAR
STARTCHAR B192
ENCODING 13172
SWIDTH 1400 0
DWIDTH 14 0
BBX 13 12 0 -2
BITMAP
2000
2000
3FE0
0200
0200
FFF8
0000
3FF0
0000
0880
0880
3FF0
ENDCHAR
STARTCHAR B193
ENCODING 13173
SWIDTH 1400 0
DWIDTH 14 0
BBX 13 12 0 -2
BITMAP
2000
2000
3FF0
0200
0200
FFF8
0780
0000
3FF0
1FE0
2010
1FE0
ENDCHAR
STARTCHAR B194
ENCODING 13174
SWIDTH 1400 0
DWIDTH 14 0
BBX 13 13 0 -2
BITMAP
0020
2020
2020
2020
2020
3FA0
0438
0420
0420
FFA0
0020
0020
0020
ENDCHAR
STARTCHAR B198
ENCODING 13175
SWIDTH 1400 0
DWIDTH 14 0
BBX 12 12 1 -2
BITMAP
4040
4040
4040
7F40
0840
0870
FFC0
0040
4040
4040
4000
7FC0
ENDCHAR
STARTCHAR B19C
ENCODING 13176
SWIDTH 1400 0
DWIDTH 14 0
BBX 12 13 1 -2
BITMAP
0040
4040
4040
4040
7F40
0870
0840
FF40
7FC0
0040
7FC0
4000
7FC0
ENDCHAR
STARTCHAR B1A8
ENCODING 13177
SWIDTH 1400 0
DWIDTH 14 0
BBX 12 14 1 -3
BITMAP
0040
0040
4040
4040
7F40
0870
0840
FF40
0040
0000
1080
18C0
2520
4000
ENDCHAR
STARTCHAR B1CC
ENCODING 13178
SWIDTH 1400 0
DWIDTH 14 0
BBX 11 13 2 -2
BITMAP
0020
4020
4020
4020
4020
7F20
0820
0820
0820
FFA0
0020
0020
0020
ENDCHAR
STARTCHAR B1D0
ENCODING 13179
SWIDTH 1400 0
DWIDTH 14 0
BBX 11 12 1 -2
BITMAP
2020
2020
2020
3F20
0820
0820
FFA0
0020
2020
2020
2000
3FE0
ENDCHAR
STARTCHAR B1D4
ENCODING 13180
SWIDTH 1400 0
DWIDTH 14 0
BBX 9 12 3 -2
BITMAP
8080
8080
8080
FE80
1080
1780
E880
FF80
0080
FF80
8000
FF80
ENDCHAR
STARTCHAR B1DC
ENCODING 13181
SWIDTH 1400 0
DWIDTH 14 0
BBX 10 14 2 -3
BITMAP
0040
4040
4040
4040
7F40
0840
0840
FF40
0000
7FC0
4040
4040
7FC0
4040
ENDCHAR
STARTCHAR B1DD
ENCODING 13182
SWIDTH 1400 0
DWIDTH 14 0
BBX 11 14 1 -3
BITMAP
0020
2020
2020
2020
3F20
0820
0820
FF80
2020
2020
3FE0
2020
3FE0
2000
ENDCHAR
STARTCHAR B1DF
ENCODING 13345
SWIDTH 1400 0
DWIDTH 14 0
BBX 11 13 1 -2
BITMAP
0020
4020
4020
4020
7F20
0820
08A0
F720
0020
0300
0300
04C0
3820
ENDCHAR
STARTCHAR B1E8
ENCODING 13346
SWIDTH 1400 0
DWIDTH 14 0
BBX 14 10 0 -1
BITMAP
2000
2000
2000
2000
3FF0
0000
0840
0840
0840
FFFC
ENDCHAR
STARTCHAR B1E9
ENCODING 13347
SWIDTH 1400 0
DWIDTH 14 0
BBX 13 12 0 -2
BITMAP
2000
2000
3FF0
0000
0880
0880
FFF8
0000
1FF0
0010
0010
0010
ENDCHAR
STARTCHAR B1EC
ENCODING 13348
SWIDTH 1400 0
DWIDTH 14 0
BBX 12 12 1 -2
BITMAP
4000
4000
4000
7FC0
0900
0900
FFF0
0000
4000
4000
4000
7FE0
ENDCHAR
STARTCHAR B1F0
ENCODING 13349
SWIDTH 1400 0
DWIDTH 14 0
BBX 12 12 1 -2
BITMAP
4000
4000
4000
7FC0
0900
FFF0
0000
7FE0
0020
7FE0
4000
7FE0
ENDCHAR
STARTCHAR B1F9
ENCODING 13350
SWIDTH 1400 0
DWIDTH 14 0
BBX 12 12 1 -2
BITMAP
4000
4000
7FE0
0000
0900
0900
FFF0
0000
4020
7FE0
4020
7FE0
ENDCHAR
STARTCHAR B1FB
ENCODING 13351
SWIDTH 1400 0
DWIDTH 14 0
BBX 13 12 0 -2
BITMAP
2000
2000
2000
3FE0
0880
0880
FFF8
0000
0200
0300
0CC0
3030
ENDCHAR
STARTCHAR B1FD
ENCODING 13352
SWIDTH 1400 0
DWIDTH 14 0
BBX 13 12 0 -2
BITMAP
2000
2000
3FF0
0000
0880
0880
FFF8
0000
1FE0
2010
3030
1FE0
ENDCHAR
STARTCHAR B204
ENCODING 13353
SWIDTH 1400 0
DWIDTH 14 0
BBX 13 12 0 -2
BITMAP
2000
2000
2000
3FE0
0000
0000
FFF8
0200
0200
0200
0200
0200
ENDCHAR
STARTCHAR B205
ENCODING 13354
SWIDTH 1400 0
DWIDTH 14 0
BBX 13 12 1 -2
BITMAP
4000
4000
7FE0
0000
0000
FFF8
0200
0200
3FE0
0020
0020
0020
ENDCHAR
STARTCHAR B208
ENCODING 13355
SWIDTH 1400 0
DWIDTH 14 0
BBX 13 12 0 -2
BITMAP
2000
2000
2000
3FF0
0000
FFF8
0200
0200
2200
2000
2000
3FF0
ENDCHAR
STARTCHAR B20B
ENCODING 13356
SWIDTH 1400 0
DWIDTH 14 0
BBX 13 12 0 -2
BITMAP
2000
2000
3FF0
0000
0000
FFF8
0200
0200
3FE0
2000
2000
3FF0
ENDCHAR
STARTCHAR B20C
ENCODING 13357
SWIDTH 1400 0
DWIDTH 14 0
BBX 13 12 0 -2
BITMAP
2000
2000
2000
3FF0
0000
FFF8
0200
3FF0
0010
3FF0
2000
3FF0
ENDCHAR
STARTCHAR B214
ENCODING 13358
SWIDTH 1400 0
DWIDTH 14 0
BBX 13 13 0 -3
BITMAP
2000
2000
2000
3FF0
0000
FFF8
0200
0200
3FF0
2010
2010
3FF0
2010
ENDCHAR
STARTCHAR B215
ENCODING 13359
SWIDTH 1400 0
DWIDTH 14 0
BBX 13 12 0 -2
BITMAP
2000
2000
3FF0
0000
0000
FFF8
0200
2210
2010
3FF0
2010
3FF0
ENDCHAR
STARTCHAR B217
ENCODING 13360
SWIDTH 1400 0
DWIDTH 14 0
BBX 13 12 0 -2
BITMAP
2000
2000
2000
3FF0
0000
0000
FFF8
0200
0000
0300
0480
3870
ENDCHAR
STARTCHAR B219
ENCODING 13361
SWIDTH 1400 0
DWIDTH 14 0
BBX 13 12 0 -2
BITMAP
2000
2000
2000
3FF0
0000
FFF8
0200
0200
1FE0
2010
2010
1FE0
ENDCHAR
STARTCHAR B220
ENCODING 13362
SWIDTH 1400 0
DWIDTH 14 0
BBX 12 13 1 -2
BITMAP
0010
2010
2010
2010
3F90
0010
0010
FF90
0810
08F0
0810
0810
0810
ENDCHAR
STARTCHAR B234
ENCODING 13363
SWIDTH 1400 0
DWIDTH 14 0
BBX 12 13 1 -2
BITMAP
0020
4020
4020
4020
7F20
0020
FFA0
09E0
0800
0840
0840
14A0
2110
ENDCHAR
STARTCHAR B23C
ENCODING 13364
SWIDTH 1400 0
DWIDTH 14 0
BBX 11 14 2 -3
BITMAP
0120
8120
8120
8120
8120
F920
0120
1D20
E120
2720
2120
2120
2120
0020
ENDCHAR
STARTCHAR B258
ENCODING 13365
SWIDTH 1400 0
DWIDTH 14 0
BBX 10 13 2 -2
BITMAP
0040
4040
4040
4040
7F40
0040
0040
FFC0
0840
0840
0840
0840
0840
ENDCHAR
STARTCHAR B25C
ENCODING 13366
SWIDTH 1400 0
DWIDTH 14 0
BBX 10 13 2 -2
BITMAP
0040
4040
4040
4040
7F40
0040
0040
FF40
0840
0840
4800
4000
7FC0
ENDCHAR
STARTCHAR B260
ENCODING 13367
SWIDTH 1400 0
DWIDTH 14 0
BBX 10 13 2 -2
BITMAP
0040
4040
4040
7F40
0040
FFC0
0840
0800
7FC0
0040
7FC0
4000
7FC0
ENDCHAR
STARTCHAR B268
ENCODING 13368
SWIDTH 1400 0
DWIDTH 14 0
BBX 10 14 2 -3
BITMAP
0040
4040
4040
4040
7F40
0040
FF40
0840
0000
7FC0
4040
4040
7FC0
4000
ENDCHAR
STARTCHAR B269
ENCODING 13369
SWIDTH 1400 0
DWIDTH 14 0
BBX 10 13 2 -3
BITMAP
4040
4040
4040
7F40
0040
FFC0
0840
0840
4040
7FC0
4040
7FC0
4040
ENDCHAR
STARTCHAR B274
ENCODING 13370
SWIDTH 1400 0
DWIDTH 14 0
BBX 14 13 0 -3
BITMAP
2000
2000
2000
3FF0
0000
0000
FFFC
0840
0840
0840
0840
0840
0840
ENDCHAR
STARTCHAR B275
ENCODING 13371
SWIDTH 1400 0
DWIDTH 14 0
BBX 14 12 0 -2
BITMAP
2000
2000
3FF0
0000
0000
FFFC
0840
0840
3FF0
0010
0010
0010
ENDCHAR
STARTCHAR B27C
ENCODING 13372
SWIDTH 1400 0
DWIDTH 14 0
BBX 12 12 1 -2
BITMAP
4000
4000
4000
7FE0
0000
FFF0
0900
3FE0
0020
7FE0
4000
7FE0
ENDCHAR
STARTCHAR B284
ENCODING 13373
SWIDTH 1400 0
DWIDTH 14 0
BBX 14 13 0 -3
BITMAP
2000
2000
3FF0
0000
0000
FFFC
0840
0840
3FF0
2010
2010
3FF0
2000
ENDCHAR
STARTCHAR B285
ENCODING 13374
SWIDTH 1400 0
DWIDTH 14 0
BBX 12 13 1 -3
BITMAP
4000
4000
7FE0
0000
0000
FFF0
0900
0900
4920
7FE0
4020
7FE0
4000
ENDCHAR
STARTCHAR B289
ENCODING 13375
SWIDTH 1400 0
DWIDTH 14 0
BBX 14 12 0 -2
BITMAP
2000
2000
2000
3FF0
0000
FFFC
0840
0840
37A0
2010
3030
1FE0
ENDCHAR
STARTCHAR B290
ENCODING 13376
SWIDTH 1400 0
DWIDTH 14 0
BBX 12 10 1 -1
BITMAP
4000
4000
4000
4000
7FE0
0000
0000
0000
0000
FFF0
ENDCHAR
STARTCHAR B291
ENCODING 13377
SWIDTH 1400 0
DWIDTH 14 0
BBX 12 12 1 -2
BITMAP
4000
4000
4000
7FE0
0000
FFF0
0000
0000
7FE0
0020
0020
0020
ENDCHAR
STARTCHAR B294
ENCODING 13378
SWIDTH 1400 0
DWIDTH 14 0
BBX 12 12 1 -2
BITMAP
4000
4000
4000
7FE0
0000
0000
FFF0
0000
4000
4000
4000
7FE0
ENDCHAR
STARTCHAR B298
ENCODING 13379
SWIDTH 1400 0
DWIDTH 14 0
BBX 12 12 1 -2
BITMAP
4000
4000
4000
7FE0
0000
FFF0
0000
7FE0
0020
7FE0
4000
7FE0
ENDCHAR
STARTCHAR B299
ENCODING 13380
SWIDTH 1400 0
DWIDTH 14 0
BBX 12 12 1 -2
BITMAP
4000
4000
4000
7FE0
0000
FFF0
0000
7DE0
0420
7C20
4020
7C20
ENDCHAR
STARTCHAR B29A
ENCODING 13381
SWIDTH 1400 0
DWIDTH 14 0
BBX 12 12 1 -2
BITMAP
4000
4000
7FE0
0000
0000
FFF0
0000
7FE0
0620
7E20
4220
7FE0
ENDCHAR
STARTCHAR B2A0
ENCODING 13382
SWIDTH 1400 0
DWIDTH 14 0
BBX 12 13 1 -3
BITMAP
4000
4000
4000
7FE0
0000
FFF0
0000
0000
7FE0
4020
4020
7FE0
0020
ENDCHAR
STARTCHAR B2A1
ENCODING 13383
SWIDTH 1400 0
DWIDTH 14 0
BBX 12 13 1 -3
BITMAP
4000
4000
4000
7FE0
0000
FFF0
0000
4020
7FE0
4020
4020
7FE0
4000
ENDCHAR
STARTCHAR B2A3
ENCODING 13384
SWIDTH 1400 0
DWIDTH 14 0
BBX 12 12 1 -2
BITMAP
4000
4000
4000
7FC0
0000
0000
FFF0
0000
0200
0600
1980
6060
ENDCHAR
STARTCHAR B2A5
ENCODING 13385
SWIDTH 1400 0
DWIDTH 14 0
BBX 12 12 1 -2
BITMAP
4000
4000
4000
7FC0
0000
FFF0
0000
0000
3FC0
4020
4020
3FC0
ENDCHAR
STARTCHAR B2A6
ENCODING 13386
SWIDTH 1400 0
DWIDTH 14 0
BBX 12 12 1 -2
BITMAP
4000
4000
4000
7FE0
0000
FFF0
0000
7FE0
0400
0600
0980
7060
ENDCHAR
STARTCHAR B2AA
ENCODING 13387
SWIDTH 1400 0
DWIDTH 14 0
BBX 12 12 1 -2
BITMAP
4000
4000
4000
7FE0
0000
FFF0
0000
7FC0
0000
0880
0880
7FF0
ENDCHAR
STARTCHAR B2AC
ENCODING 13388
SWIDTH 1400 0
DWIDTH 14 0
BBX 12 12 1 -1
BITMAP
2010
2010
2010
2010
3F90
0010
0010
0010
FF90
0010
0010
0010
ENDCHAR
STARTCHAR B2B0
ENCODING 13389
SWIDTH 1400 0
DWIDTH 14 0
BBX 11 13 1 -2
BITMAP
0020
2020
2020
2020
3FA0
0020
0020
FFA0
0020
2020
2000
2000
3FE0
ENDCHAR
STARTCHAR B2B4
ENCODING 13390
SWIDTH 1400 0
DWIDTH 14 0
BBX 11 13 1 -2
BITMAP
0020
2020
2020
2020
3FA0
0020
FFE0
0000
3FE0
0020
3FE0
2000
3FE0
ENDCHAR
STARTCHAR B2C8
ENCODING 13391
SWIDTH 1400 0
DWIDTH 14 0
BBX 10 13 2 -2
BITMAP
0040
0040
8040
8040
8040
8040
8040
8040
8040
FE40
0040
0040
0040
ENDCHAR
STARTCHAR B2C9
ENCODING 13392
SWIDTH 1400 0
DWIDTH 14 0
BBX 10 13 2 -2
BITMAP
0040
8040
8040
8040
8040
8040
FF40
0040
0000
7FC0
0040
0040
0040
ENDCHAR
STARTCHAR B2CC
ENCODING 13393
SWIDTH 1400 0
DWIDTH 14 0
BBX 10 13 2 -2
BITMAP
0040
8040
8040
8040
8040
8040
8F40
7040
0040
4040
4000
4000
7FC0
ENDCHAR
STARTCHAR B2D0
ENCODING 13394
SWIDTH 1400 0
DWIDTH 14 0
BBX 10 13 2 -2
BITMAP
0040
8040
8040
8040
8040
8040
FF40
0000
7FC0
0040
7FC0
4000
7FC0
ENDCHAR
STARTCHAR B2D2
ENCODING 13395
SWIDTH 1400 0
DWIDTH 14 0
BBX 10 14 2 -3
BITMAP
0040
8040
8040
8040
8040
8140
FE40
0000
7BC0
0A40
7A40
4240
4FC0
3000
ENDCHAR
STARTCHAR B2D8
ENCODING 13396
SWIDTH 1400 0
DWIDTH 14 0
BBX 10 13 2 -2
BITMAP
0040
8040
8040
8040
8040
8040
FE40
0040
0000
7FC0
4040
4040
7FC0
ENDCHAR
STARTCHAR B2D9
ENCODING 13397
SWIDTH 1400 0
DWIDTH 14 0
BBX 10 13 2 -2
BITMAP
0040
8040
8040
8040
8040
8040
FE40
4040
4040
7FC0
4040
4040
7FC0
ENDCHAR
STARTCHAR B2DB
ENCODING 13398
SWIDTH 1400 0
DWIDTH 14 0
BBX 10 13 2 -2
BITMAP
0040
8040
8040
8040
8040
8040
8740
7840
0440
0400
0A00
1100
60C0
ENDCHAR
STARTCHAR B2DD
ENCODING 13399
SWIDTH 1400 0
DWIDTH 14 0
BBX 10 13 2 -2
BITMAP
0040
8040
8040
8040
8040
8040
FE40
0040
0000
3F80
4040
4040
3F80
ENDCHAR
STARTCHAR B2E2
ENCODING 13400
SWIDTH 1400 0
DWIDTH 14 0
BBX 11 13 2 -2
BITMAP
0040
8040
8040
8040
8040
8040
FE40
0000
7FC0
1100
1100
1100
FFE0
ENDCHAR
STARTCHAR B2E4
ENCODING 13401
SWIDTH 1400 0
DWIDTH 14 0
BBX 12 13 1 -2
BITMAP
0040
0040
FC40
8040
8040
8040
8070
8040
8040
8140
FE40
0040
0040
ENDCHAR
STARTCHAR B2E5
ENCODING 13402
SWIDTH 1400 0
DWIDTH 14 0
BBX 12 13 1 -2
BITMAP
0040
FC40
8040
8040
8070
8040
FE40
0040
0000
7FC0
0040
0040
0040
ENDCHAR
STARTCHAR B2E6
ENCODING 13403
SWIDTH 1400 0
DWIDTH 14 0
BBX 12 13 1 -2
BITMAP
0040
FC40
8040
8040
8070
8340
FC40
0000
7FC0
0840
0840
0840
0840
ENDCHAR
STARTCHAR B2E8
ENCODING 13404
SWIDTH 1400 0
DWIDTH 14 0
BBX 12 13 1 -2
BITMAP
0040
0040
FC40
8040
8040
8070
8040
FE40
0040
4040
4000
4000
7FC0
ENDCHAR
STARTCHAR B2EB
ENCODING 13405
SWIDTH 1400 0
DWIDTH 14 0
BBX 12 13 1 -2
BITMAP
0040
FC40
8040
8040
8070
8040
FC40
0040
0000
7FC0
4000
4000
7FC0
ENDCHAR
STARTCHAR B2EC
ENCODING 13406
SWIDTH 1400 0
DWIDTH 14 0
BBX 12 12 1 -2
BITMAP
FC40
8040
8040
8070
8240
FC40
0000
7FC0
0040
7FC0
4000
7FC0
ENDCHAR
STARTCHAR B2ED
ENCODING 13407
SWIDTH 1400 0
DWIDTH 14 0
BBX 12 13 1 -2
BITMAP
0040
FC40
8040
8040
8070
8340
FC40
0000
7BC0
0840
7840
4040
7C40
ENDCHAR
STARTCHAR B2EE
ENCODING 13408
SWIDTH 1400 0
DWIDTH 14 0
BBX 12 14 1 -3
BITMAP
0040
FC40
8040
8040
8070
FE40
0040
0000
7FC0
0C40
7C40
4440
47C0
3000
ENDCHAR
STARTCHAR B2EF
ENCODING 13409
SWIDTH 1400 0
DWIDTH 14 0
BBX 12 13 1 -2
BITMAP
0040
FC40
8040
8040
8070
8240
FC40
0000
7A40
0BC0
7A40
4240
7FC0
ENDCHAR
STARTCHAR B2F3
ENCODING 13410
SWIDTH 1400 0
DWIDTH 14 0
BBX 12 14 1 -3
BITMAP
0040
FC40
8040
8040
8070
FE40
0040
0380
7800
0FC0
7F80
4440
4780
3000
ENDCHAR
STARTCHAR B2F4
ENCODING 13411
SWIDTH 1400 0
DWIDTH 14 0
BBX 12 13 1 -2
BITMAP
0040
FC40
8040
8040
8070
8040
FE40
0040
0000
7FC0
4040
4040
7FC0
ENDCHAR
STARTCHAR B2F5
ENCODING 13412
SWIDTH 1400 0
DWIDTH 14 0
BBX 12 14 1 -3
BITMAP
0040
FC40
8040
8040
8070
8040
FE40
0040
4040
4040
7FC0
4040
7FC0
4000
ENDCHAR
STARTCHAR B2F7
ENCODING 13413
SWIDTH 1400 0
DWIDTH 14 0
BBX 12 13 1 -2
BITMAP
0040
0040
FC40
8040
8040
8070
8040
FE40
0040
0600
0600
1980
6040
ENDCHAR
STARTCHAR B2F8
ENCODING 13414
SWIDTH 1400 0
DWIDTH 14 0
BBX 12 13 1 -2
BITMAP
0040
0040
FC40
8040
8070
8040
FE40
0040
1000
1080
1880
2540
4220
ENDCHAR
STARTCHAR B2F9
ENCODING 13415
SWIDTH 1400 0
DWIDTH 14 0
BBX 12 13 1 -2
BITMAP
0040
0040
FC40
8040
8040
8070
8040
FE40
0040
3F80
4040
4040
3F80
ENDCHAR
STARTCHAR B2FA
ENCODING 13416
SWIDTH 1400 0
DWIDTH 14 0
BBX 12 13 1 -2
BITMAP
0040
FC40
8040
8040
8070
8040
FE40
0000
7FC0
0400
0C00
1300
E0C0
ENDCHAR
STARTCHAR B2FB
ENCODING 13417
SWIDTH 1400 0
DWIDTH 14 0
BBX 12 13 1 -2
BITMAP
0040
FC40
8040
8040
8070
8040
FE40
0040
0E00
7FC0
0400
0A00
71C0
ENDCHAR
STARTCHAR B2FF
ENCODING 13418
SWIDTH 1400 0
DWIDTH 14 0
BBX 12 14 1 -3
BITMAP
0040
FC40
8040
8040
8070
8240
FC40
0000
0E00
7FC0
3F80
4040
4040
3F80
ENDCHAR
STARTCHAR B300
ENCODING 13419
SWIDTH 1400 0
DWIDTH 14 0
BBX 10 13 2 -2
BITMAP
0240
0240
FA40
8240
8240
8240
83C0
8240
8240
8240
FA40
0240
0240
ENDCHAR
STARTCHAR B301
ENCODING 13420
SWIDTH 1400 0
DWIDTH 14 0
BBX 10 13 2 -2
BITMAP
0240
FA40
8240
8240
83C0
8240
FA40
0240
0000
FFC0
0040
0040
0040
ENDCHAR
STARTCHAR B304
ENCODING 13421
SWIDTH 1400 0
DWIDTH 14 0
BBX 11 13 2 -2
BITMAP
0040
0240
FA40
8240
8240
83C0
8240
FE40
0240
4240
4000
4000
7FE0
ENDCHAR
STARTCHAR B308
ENCODING 13422
SWIDTH 1400 0
DWIDTH 14 0
BBX 11 13 2 -2
BITMAP
0240
FA40
8240
8240
83C0
8640
7A40
0040
7FC0
0040
7FC0
4000
7FE0
ENDCHAR
STARTCHAR B310
ENCODING 13423
SWIDTH 1400 0
DWIDTH 14 0
BBX 10 14 2 -3
BITMAP
0040
FA40
8240
8240
8240
83C0
FA40
0240
0040
7FC0
4040
4040
7FC0
4040
ENDCHAR
STARTCHAR B311
ENCODING 13424
SWIDTH 1400 0
DWIDTH 14 0
BBX 10 14 2 -3
BITMAP
0240
FA40
8240
8240
83C0
8240
FA40
0040
4000
4040
7FC0
4040
7FC0
4040
ENDCHAR
STARTCHAR B313
ENCODING 13425
SWIDTH 1400 0
DWIDTH 14 0
BBX 11 14 1 -3
BITMAP
0020
0120
F920
8120
8120
81E0
8120
F920
0020
0200
0200
0300
0CC0
3020
ENDCHAR
STARTCHAR B314
ENCODING 13426
SWIDTH 1400 0
DWIDTH 14 0
BBX 11 14 1 -3
BITMAP
0120
F920
8120
8120
81E0
8120
9D20
6120
0000
0040
1040
18C0
2520
4000
ENDCHAR
STARTCHAR B315
ENCODING 13427
SWIDTH 1400 0
DWIDTH 14 0
BBX 10 14 2 -3
BITMAP
0040
0240
FA40
8240
8240
83C0
8240
FA40
0240
3FC0
4040
4040
3180
0E00
ENDCHAR
STARTCHAR B31C
ENCODING 13428
SWIDTH 1400 0
DWIDTH 14 0
BBX 12 13 1 -3
BITMAP
0040
FC40
8040
8040
8070
8040
8040
8070
8140
FE40
0040
0040
0040
ENDCHAR
STARTCHAR B354
ENCODING 13429
SWIDTH 1400 0
DWIDTH 14 0
BBX 10 12 2 -2
BITMAP
0040
FC40
8040
8040
8040
83C0
8040
8040
8040
FE40
0040
0040
ENDCHAR
STARTCHAR B355
ENCODING 13430
SWIDTH 1400 0
DWIDTH 14 0
BBX 10 13 2 -2
BITMAP
0040
FC40
8040
83C0
8040
8040
FE40
0040
0000
7FC0
0040
0040
0040
ENDCHAR
STARTCHAR B356
ENCODING 13431
SWIDTH 1400 0
DWIDTH 14 0
BBX 10 13 2 -3
BITMAP
FC40
8040
83C0
8040
8040
FE40
0040
0000
7FC0
0840
0840
0840
0840
ENDCHAR
STARTCHAR B358
ENCODING 13432
SWIDTH 1400 0
DWIDTH 14 0
BBX 10 13 2 -2
BITMAP
0040
0040
FC40
8040
87C0
8040
8040
BF40
4040
4040
4000
4000
7FC0
ENDCHAR
STARTCHAR B35B
ENCODING 13433
SWIDTH 1400 0
DWIDTH 14 0
BBX 10 13 2 -2
BITMAP
0040
FC40
8040
8040
83C0
8040
FE40
0040
0040
7FC0
4000
4000
7FC0
ENDCHAR
STARTCHAR B35C
ENCODING 13434
SWIDTH 1400 0
DWIDTH 14 0
BBX 10 13 2 -2
BITMAP
0040
FC40
8040
8040
83C0
8040
FE40
0040
7FC0
0040
7FC0
4000
7FC0
ENDCHAR
STARTCHAR B35E
ENCODING 13435
SWIDTH 1400 0
DWIDTH 14 0
BBX 10 14 2 -3
BITMAP
0040
FC40
8040
83C0
8040
8040
FC40
0000
7BC0
0A40
7A40
4240
4FC0
3200
ENDCHAR
STARTCHAR B35F
ENCODING 13436
SWIDTH 1400 0
DWIDTH 14 0
BBX 10 14 2 -3
BITMAP
0040
FC40
8040
83C0
8040
8040
FC40
0200
7A40
0BC0
7A40
4240
4FC0
3000
ENDCHAR
STARTCHAR B364
ENCODING 13437
SWIDTH 1400 0
DWIDTH 14 0
BBX 10 14 2 -3
BITMAP
0040
FC40
8040
8040
83C0
8040
FE40
0040
0000
7FC0
4040
4040
7FC0
0040
ENDCHAR
STARTCHAR B365
ENCODING 13438
SWIDTH 1400 0
DWIDTH 14 0
BBX 10 14 2 -3
BITMAP
0040
FC40
8040
8040
83C0
8040
FE40
0040
4040
4040
7FC0
4040
7FC0
4000
ENDCHAR
STARTCHAR B367
ENCODING 13601
SWIDTH 1400 0
DWIDTH 14 0
BBX 11 12 1 -2
BITMAP
0020
FC20
8020
81E0
8020
8020
8720
7A20
0300
0500
08C0
3020
ENDCHAR
STARTCHAR B369
ENCODING 13602
SWIDTH 1400 0
DWIDTH 14 0
BBX 10 12 2 -2
BITMAP
0040
FC40
8040
83C0
8040
8040
8640
7840
3F80
4040
4040
3F80
ENDCHAR
STARTCHAR B36B
ENCODING 13603
SWIDTH 1400 0
DWIDTH 14 0
BBX 11 14 1 -3
BITMAP
0020
FC20
8020
81E0
8020
8020
FC20
0720
0000
3FC0
0600
0600
1980
2040
ENDCHAR
STARTCHAR B36E
ENCODING 13604
SWIDTH 1400 0
DWIDTH 14 0
BBX 10 13 2 -2
BITMAP
0040
FC40
8040
83C0
8040
8040
FE40
0040
7FC0
1100
1100
1100
FFC0
ENDCHAR
STARTCHAR B370
ENCODING 13605
SWIDTH 1400 0
DWIDTH 14 0
BBX 10 13 2 -2
BITMAP
0240
0240
F240
8240
8240
9E40
8240
8240
8240
8240
F240
0240
0240
ENDCHAR
STARTCHAR B371
ENCODING 13606
SWIDTH 1400 0
DWIDTH 14 0
BBX 10 13 2 -2
BITMAP
0040
FA40
8240
8240
8E40
8240
9A40
6240
0000
FFC0
0040
0040
0040
ENDCHAR
STARTCHAR B374
ENCODING 13607
SWIDTH 1400 0
DWIDTH 14 0
BBX 11 13 2 -2
BITMAP
0040
F240
8240
8240
8E40
8240
9A40
6240
0240
4240
4000
4000
7FE0
ENDCHAR
STARTCHAR B378
ENCODING 13608
SWIDTH 1400 0
DWIDTH 14 0
BBX 11 13 2 -2
BITMAP
0040
F240
8240
8240
8E40
8240
FE40
0240
7FC0
0040
7FC0
4000
7FE0
ENDCHAR
STARTCHAR B380
ENCODING 13609
SWIDTH 1400 0
DWIDTH 14 0
BBX 10 13 2 -2
BITMAP
0040
FA40
8240
8240
8E40
8240
8A40
7240
0000
7FC0
4040
4040
7FC0
ENDCHAR
STARTCHAR B381
ENCODING 13610
SWIDTH 1400 0
DWIDTH 14 0
BBX 10 13 2 -2
BITMAP
0040
FA40
8240
8240
8E40
8240
8A40
7240
0000
4040
7FC0
4040
7FC0
ENDCHAR
STARTCHAR B383
ENCODING 13611
SWIDTH 1400 0
DWIDTH 14 0
BBX 11 13 1 -2
BITMAP
0020
F120
8120
8120
8720
8120
9920
6120
0220
0200
0500
0880
3060
ENDCHAR
STARTCHAR B384
ENCODING 13612
SWIDTH 1400 0
DWIDTH 14 0
BBX 11 14 1 -3
BITMAP
0020
F920
8120
8120
8720
8120
9920
6120
0000
0040
0840
18C0
2520
4000
ENDCHAR
STARTCHAR B385
ENCODING 13613
SWIDTH 1400 0
DWIDTH 14 0
BBX 10 13 2 -2
BITMAP
0040
F240
8240
8240
8E40
8240
9E40
6240
0200
3F80
4040
4040
3F80
ENDCHAR
STARTCHAR B38C
ENCODING 13614
SWIDTH 1400 0
DWIDTH 14 0
BBX 10 12 2 -2
BITMAP
0040
FC40
8040
83C0
8040
8040
8040
83C0
8040
FE40
0040
0040
ENDCHAR
STARTCHAR B390
ENCODING 13615
SWIDTH 1400 0
DWIDTH 14 0
BBX 10 13 2 -2
BITMAP
0040
0040
FC40
83C0
8040
83C0
8040
8040
FE40
4040
4040
4000
7FC0
ENDCHAR
STARTCHAR B394
ENCODING 13616
SWIDTH 1400 0
DWIDTH 14 0
BBX 10 13 2 -2
BITMAP
0040
FC40
83C0
8040
83C0
8040
FC40
0000
7FC0
0040
7FC0
4000
7FC0
ENDCHAR
STARTCHAR B3A0
ENCODING 13617
SWIDTH 1400 0
DWIDTH 14 0
BBX 12 13 1 -2
BITMAP
0020
0020
FC20
81E0
8020
81E0
8020
FE20
1040
1040
18C0
28A0
4530
ENDCHAR
STARTCHAR B3A1
ENCODING 13618
SWIDTH 1400 0
DWIDTH 14 0
BBX 10 13 2 -2
BITMAP
0040
0040
FC40
83C0
8040
83C0
8040
FE40
0040
3F80
4040
4040
3F80
ENDCHAR
STARTCHAR B3A8
ENCODING 13619
SWIDTH 1400 0
DWIDTH 14 0
BBX 10 13 2 -2
BITMAP
0040
0240
F240
8240
9E40
8240
8240
9E40
8240
8240
FA40
0240
0240
ENDCHAR
STARTCHAR B3AC
ENCODING 13620
SWIDTH 1400 0
DWIDTH 14 0
BBX 11 13 2 -2
BITMAP
0040
0240
F240
8E40
8240
8E40
8240
9A40
6240
4240
4000
4000
7FE0
ENDCHAR
STARTCHAR B3C4
ENCODING 13621
SWIDTH 1400 0
DWIDTH 14 0
BBX 13 10 0 -1
BITMAP
3FE0
2000
2000
2000
3FE0
0000
0200
0200
0200
FFF8
ENDCHAR
STARTCHAR B3C5
ENCODING 13622
SWIDTH 1400 0
DWIDTH 14 0
BBX 13 12 1 -2
BITMAP
7FC0
4000
4000
7FE0
0200
0200
FFF8
0000
7FE0
0020
0020
0020
ENDCHAR
STARTCHAR B3C8
ENCODING 13623
SWIDTH 1400 0
DWIDTH 14 0
BBX 13 12 0 -2
BITMAP
3FE0
2000
2000
3FE0
0200
0200
FFF8
0000
2000
2000
2000
3FF0
ENDCHAR
STARTCHAR B3CB
ENCODING 13624
SWIDTH 1400 0
DWIDTH 14 0
BBX 13 12 0 -2
BITMAP
3FE0
2000
2000
3FE0
0200
0200
FFF8
0000
3FE0
2000
2000
3FF0
ENDCHAR
STARTCHAR B3CC
ENCODING 13625
SWIDTH 1400 0
DWIDTH 14 0
BBX 13 12 0 -2
BITMAP
3FE0
2000
2000
3FE0
0200
FFF8
0000
3FF0
0010
3FF0
2000
3FF0
ENDCHAR
STARTCHAR B3CE
ENCODING 13626
SWIDTH 1400 0
DWIDTH 14 0
BBX 13 13 0 -3
BITMAP
3FF0
2000
2000
3FE0
0200
FFF8
0000
3FF0
0310
3F10
2110
3FF0
0100
ENDCHAR
STARTCHAR B3D0
ENCODING 13627
SWIDTH 1400 0
DWIDTH 14 0
BBX 13 12 0 -2
BITMAP
3FE0
2000
2000
3FE0
0200
FFF8
0000
3E00
0240
3E60
2090
3F08
ENDCHAR
STARTCHAR B3D4
ENCODING 13628
SWIDTH 1400 0
DWIDTH 14 0
BBX 13 12 0 -2
BITMAP
3FE0
2000
2000
3FE0
0200
0200
FFF8
0000
3FF0
2010
2010
3FF0
ENDCHAR
STARTCHAR B3D5
ENCODING 13629
SWIDTH 1400 0
DWIDTH 14 0
BBX 13 13 0 -3
BITMAP
3FE0
2000
2000
3FE0
0200
0200
FFF8
0000
2010
3FF0
2010
3FF0
2000
ENDCHAR
STARTCHAR B3D7
ENCODING 13630
SWIDTH 1400 0
DWIDTH 14 0
BBX 13 12 0 -2
BITMAP
3FE0
2000
2000
3FE0
0200
0200
FFF8
0000
0300
0300
0CC0
3030
ENDCHAR
STARTCHAR B3D9
ENCODING 13631
SWIDTH 1400 0
DWIDTH 14 0
BBX 13 13 1 -3
BITMAP
7FC0
4000
4000
7FE0
0200
0200
FFF8
0000
3FC0
6060
4020
2040
1F80
ENDCHAR
STARTCHAR B3DB
ENCODING 13632
SWIDTH 1400 0
DWIDTH 14 0
BBX 13 13 0 -3
BITMAP
3FE0
2000
3FE0
0200
FFF8
0000
0780
0000
3FE0
0200
0700
08F0
3000
ENDCHAR
STARTCHAR B3DD
ENCODING 13633
SWIDTH 1400 0
DWIDTH 14 0
BBX 13 12 0 -2
BITMAP
3FE0
2000
2000
3FE0
0200
FFF8
0000
0000
3FE0
3FE0
2000
3FF0
ENDCHAR
STARTCHAR B3E0
ENCODING 13634
SWIDTH 1400 0
DWIDTH 14 0
BBX 12 13 1 -2
BITMAP
0040
7F40
4040
4040
4040
4040
7F70
0840
0840
0840
FFC0
0040
0040
ENDCHAR
ENDFONT
